<svg xmlns="http://www.w3.org/2000/svg" width="30.106" height="26.762" viewBox="0 0 30.106 26.762">
  <g id="Group_452" data-name="Group 452" transform="translate(0 0)">
    <path id="Path_111" data-name="Path 111" d="M179.741,64H159.21l2.737,13.381h15.323a1.254,1.254,0,0,0,1.223-.976l2.471-10.872a1.254,1.254,0,0,0-.945-1.5,1.239,1.239,0,0,0-.278-.031ZM174.3,71.109a.836.836,0,0,1-.836.836h-2.091v2.091a.836.836,0,0,1-.836.836h-.836a.836.836,0,0,1-.836-.836V71.945h-2.091a.836.836,0,0,1-.836-.836v-.836a.836.836,0,0,1,.836-.836h2.091V67.345a.836.836,0,0,1,.836-.836h.836a.836.836,0,0,1,.836.836v2.091h2.091a.836.836,0,0,1,.836.836Z" transform="translate(-150.888 -60.655)" fill="rgba(254,206,81,0.75)"/>
    <path id="Path_112" data-name="Path 112" d="M26.365,21.2l.289-1.269A1.254,1.254,0,0,0,25.431,18.4H11.4L7.84,1A1.254,1.254,0,0,0,6.614,0H1.254A1.254,1.254,0,0,0,0,1.254v.836A1.254,1.254,0,0,0,1.254,3.345H4.907L8.579,21.3a2.927,2.927,0,1,0,3.5.448H23.041a2.927,2.927,0,1,0,3.324-.544ZM15.89,11.29h2.091v2.091a.836.836,0,0,0,.836.836h.836a.836.836,0,0,0,.836-.836V11.29H22.58a.836.836,0,0,0,.836-.836V9.617a.836.836,0,0,0-.836-.836H20.489V6.69a.836.836,0,0,0-.836-.836h-.836a.836.836,0,0,0-.836.836V8.781H15.89a.836.836,0,0,0-.836.836v.836A.836.836,0,0,0,15.89,11.29Z" transform="translate(0 0)" fill="#fff"/>
  </g>
</svg>
