<svg xmlns="http://www.w3.org/2000/svg" width="20.573" height="18" viewBox="0 0 20.573 18">
  <g id="Group_482" data-name="Group 482" transform="translate(0.005 -32.026)">
    <path id="Path_132" data-name="Path 132" d="M12.861,40.537l-2,3.994A.643.643,0,0,1,9.7,44.507L7.417,39.432,6.211,42.313H2.431l7.333,7.493a.716.716,0,0,0,1.033,0l7.337-7.493H13.749Zm6.167-6.824-.1-.1a5.263,5.263,0,0,0-7.529,0l-1.122,1.147L9.16,33.614a5.257,5.257,0,0,0-7.53,0l-.1.1a5.517,5.517,0,0,0-.293,7.317H5.356L6.8,37.566a.643.643,0,0,1,1.181-.016l2.339,5.2,1.969-3.934a.643.643,0,0,1,1.149,0l1.109,2.218h4.777A5.516,5.516,0,0,0,19.028,33.713Z" transform="translate(0)" fill="#a5a1a1"/>
    <path id="Path_133" data-name="Path 133" d="M47.923,165.108l0,0H43.556l-.888-1.776-2,3.994a.643.643,0,0,1-1.161-.024l-2.286-5.075-1.205,2.881H32.253v0l-1.2-1.284h4.113l1.442-3.463a.643.643,0,0,1,1.181-.016l2.339,5.2,1.969-3.933a.643.643,0,0,1,1.149,0l1.109,2.218h4.777Z" transform="translate(-29.807 -122.797)" fill="#e7ece9"/>
  </g>
</svg>
