<svg xmlns="http://www.w3.org/2000/svg" width="18" height="18" viewBox="0 0 18 18">
  <g id="Group_490" data-name="Group 490" transform="translate(0 0.009)">
    <path id="Path_138" data-name="Path 138" d="M8.06,10.554a2.619,2.619,0,0,0,.3-1.2,2.99,2.99,0,0,0-1.517-2.5,3.654,3.654,0,0,0-1.5-.488V4.455l.584-1.168a1.02,1.02,0,0,0,.108-.457V.929A.929.929,0,0,0,5.106,0H3.892a.928.928,0,0,0-.929.928v1.9a1.024,1.024,0,0,0,.108.457l.585,1.169V6.363a3.647,3.647,0,0,0-1.5.486,3.656,3.656,0,0,0-.653.516A2.8,2.8,0,0,0,.64,9.354a2.614,2.614,0,0,0,.3,1.2,1.605,1.605,0,0,1-.172,1.715A3.165,3.165,0,0,0,0,14.308C0,16.347,2.015,18,4.5,18a4.923,4.923,0,0,0,3.48-1.352c.045-.045.078-.1.121-.143a3.917,3.917,0,0,1,.082-2.823l.36-.975a3.643,3.643,0,0,0-.31-.437A1.607,1.607,0,0,1,8.06,10.554ZM5.493,11.682a1.406,1.406,0,1,1,0-1.989,1.406,1.406,0,0,1,0,1.989Zm9.412,1.255H12.093a.281.281,0,0,0-.281.281v.562a.281.281,0,0,0,.281.281h2.812a.281.281,0,0,0,.281-.281v-.562A.281.281,0,0,0,14.906,12.937Zm0-2.254H12.093a.281.281,0,0,0-.281.281v.562a.281.281,0,0,0,.281.281h2.812a.281.281,0,0,0,.281-.281v-.562A.281.281,0,0,0,14.906,10.683Z" transform="translate(0 -0.008)" fill="#a5a1a1"/>
    <path id="Path_139" data-name="Path 139" d="M264.811,14.083l-.947-2.582a2.537,2.537,0,0,1,.09-1.961,2.536,2.536,0,0,0,.246-1.088v-1a.649.649,0,0,0-1.226-.3l-.373.722a1.291,1.291,0,0,1-.936.668l-.281,0V2.571a1.2,1.2,0,0,0,.179-.134A1.433,1.433,0,0,0,259.755.232c-.576.392-.492.469-1.12,3.383a.96.96,0,0,0,.258.879l.8.806V8.522l-.281,0a1.28,1.28,0,0,1-.879-.786l-.457-1.257a.615.615,0,0,0-1.192.211V8.455a2.534,2.534,0,0,0,.246,1.087,2.534,2.534,0,0,1,.089,1.961l-.949,2.583a2.8,2.8,0,0,0,2.572,3.9h3.389A2.806,2.806,0,0,0,264.811,14.083Zm-2.583-.31a.281.281,0,0,1-.281.281h-2.812a.281.281,0,0,1-.281-.281V13.21a.281.281,0,0,1,.281-.281h2.812a.281.281,0,0,1,.281.281Zm0-2.254a.281.281,0,0,1-.281.281h-2.812a.281.281,0,0,1-.281-.281v-.562a.281.281,0,0,1,.281-.281h2.812a.281.281,0,0,1,.281.281Z" transform="translate(-247.041 0)" fill="#e7ece9"/>
  </g>
</svg>
