<svg id="Group_487" data-name="Group 487" xmlns="http://www.w3.org/2000/svg" width="15.75" height="18" viewBox="0 0 15.75 18">
  <path id="Path_136" data-name="Path 136" d="M64.813.142l-.879.586a3.649,3.649,0,0,1-4.056,0L59,.142A.844.844,0,0,0,58.531,0l.78,2.34a5.327,5.327,0,0,0,2.595.692A5.328,5.328,0,0,0,64.5,2.34L65.281,0A.844.844,0,0,0,64.813.142Zm1.822,9.932h-.178V9.9a.866.866,0,0,0-1.729-.1q0,.034,0,.069l-.008,1.708a.235.235,0,0,0,.234.236h0L66.66,11.8a.877.877,0,0,0,.871-.883q0-.036,0-.072A.88.88,0,0,0,66.635,10.074Zm-9.229,3.145a1.406,1.406,0,1,0,1.406,1.406A1.406,1.406,0,0,0,57.406,13.219Z" transform="translate(-54.031)" fill="#e7ece9"/>
  <path id="Path_137" data-name="Path 137" d="M15.372,8.433,13.5,5.625v-4.5A1.125,1.125,0,0,0,12.375,0H11.25L7.875,10.125V18h6.75a1.125,1.125,0,0,0,1.125-1.125V9.681A2.25,2.25,0,0,0,15.372,8.433ZM12.7,11.8l-.072,0h0l-1.706.008a.235.235,0,0,1-.236-.234v0L10.7,9.869A.878.878,0,0,1,11.583,9l.069,0a.88.88,0,0,1,.775.894v.178H12.6a.865.865,0,0,1,.1,1.728ZM3.375,0A1.125,1.125,0,0,0,2.25,1.125v4.5L.378,8.433A2.25,2.25,0,0,0,0,9.681v7.194A1.125,1.125,0,0,0,1.125,18H6.75V10.125a1.125,1.125,0,0,1,.058-.356l.474-1.423L4.5,0Zm0,16.031a1.406,1.406,0,1,1,1.406-1.406A1.406,1.406,0,0,1,3.375,16.031ZM4.518,9.58h0l-.545.545.545.545a.422.422,0,0,1-.6.6l-.545-.545-.545.545a.422.422,0,0,1-.6-.6l.545-.545L2.232,9.58a.422.422,0,0,1,.6-.6l.545.545.545-.545a.422.422,0,0,1,.6.6Z" transform="translate(0)" fill="#a5a1a1"/>
</svg>
