<svg xmlns="http://www.w3.org/2000/svg" width="18" height="18" viewBox="0 0 18 18">
  <g id="Group_493" data-name="Group 493" transform="translate(0.01 0)">
    <path id="Path_140" data-name="Path 140" d="M141.732,4.5V17.16a.842.842,0,0,1-.844.84h-9.281V14.794a2.172,2.172,0,0,0,1.248-1.445c.013-.05.025-.1.035-.139.023-.09.049-.189.066-.246.04-.043.11-.114.173-.178l.1-.1a2.2,2.2,0,0,0,.555-2.088c-.013-.05-.025-.1-.035-.138-.024-.092-.051-.193-.065-.252.013-.059.041-.162.065-.255.011-.041.023-.086.035-.135a2.2,2.2,0,0,0-.549-2.084l-.1-.1c-.065-.066-.137-.139-.178-.183-.017-.058-.043-.159-.067-.25l-.035-.137a2.169,2.169,0,0,0-1.516-1.536h0l-.132-.035c-.086-.023-.18-.049-.237-.066-.043-.041-.113-.113-.176-.178l-.1-.1a2.14,2.14,0,0,0-2.091-.573h0l-.133.035c-.084.023-.176.049-.235.063V.84a.842.842,0,0,1,.835-.84h8.156V3.937a.562.562,0,0,0,.563.562Z" transform="translate(-123.741 0)" fill="#e7ece9"/>
    <path id="Path_141" data-name="Path 141" d="M17.745,3.691,14.3.246a.844.844,0,0,0-.6-.246h-.214V3.937a.562.562,0,0,0,.562.562h3.937V4.285a.84.84,0,0,0-.246-.594ZM8.955,9.53a1.06,1.06,0,0,0-.266-1.012,1.641,1.641,0,0,1-.663-1.171A1.04,1.04,0,0,0,7.3,6.609a1.6,1.6,0,0,1-1.149-.675,1.017,1.017,0,0,0-.994-.274,1.582,1.582,0,0,1-1.327,0,1.017,1.017,0,0,0-.994.271,1.6,1.6,0,0,1-1.149.675,1.038,1.038,0,0,0-.728.741,1.638,1.638,0,0,1-.663,1.17A1.06,1.06,0,0,0,.026,9.53a1.662,1.662,0,0,1,0,1.35,1.059,1.059,0,0,0,.266,1.012,1.643,1.643,0,0,1,.664,1.17,1.038,1.038,0,0,0,.728.741,2.148,2.148,0,0,1,.557.176V18l2.25-1.125L6.741,18V13.979A2.142,2.142,0,0,1,7.3,13.8a1.038,1.038,0,0,0,.728-.741,1.639,1.639,0,0,1,.664-1.17,1.059,1.059,0,0,0,.266-1.012,1.663,1.663,0,0,1,0-1.351ZM4.491,12.375a2.25,2.25,0,1,1,2.25-2.25A2.25,2.25,0,0,1,4.491,12.375Z" transform="translate(0 0)" fill="#a5a1a1"/>
  </g>
</svg>
