<svg id="Group_476" data-name="Group 476" xmlns="http://www.w3.org/2000/svg" width="22.5" height="18" viewBox="0 0 22.5 18">
  <path id="Path_124" data-name="Path 124" d="M175.188,0h-13.5A1.718,1.718,0,0,0,160,1.743V3.375A4.449,4.449,0,0,1,162.25,4V2.25h12.375V12.375h-9.43a4.481,4.481,0,0,1,1.4,2.25h8.6a1.718,1.718,0,0,0,1.688-1.743V1.743A1.718,1.718,0,0,0,175.188,0Zm-9.844,7.662L167.277,9.6a.844.844,0,0,0,1.2,0L171,7.066l.854.854a.633.633,0,0,0,1.08-.448V4.359a.422.422,0,0,0-.422-.422H169.4a.633.633,0,0,0-.448,1.08l.853.853L167.875,7.8l-1.934-1.934a.844.844,0,0,0-1.2,0l-.519.519a4.4,4.4,0,0,1,.272,1.485,4.433,4.433,0,0,1-.07.7Z" transform="translate(-154.375)" fill="#a5a1a1"/>
  <path id="Path_125" data-name="Path 125" d="M5.625,134.75a3.375,3.375,0,1,0-3.375-3.375,3.375,3.375,0,0,0,3.375,3.375Zm1.687,1.125H7.179a4.721,4.721,0,0,1-1.554.281,4.721,4.721,0,0,1-1.554-.281H3.937A3.938,3.938,0,0,0,0,139.813,1.687,1.687,0,0,0,1.687,141.5H9.562a1.687,1.687,0,0,0,1.687-1.687A3.938,3.938,0,0,0,7.312,135.875Z" transform="translate(0 -123.5)" fill="#e7ece9"/>
</svg>
