<svg xmlns="http://www.w3.org/2000/svg" width="18" height="18" viewBox="0 0 18 18">
  <g id="Group_484" data-name="Group 484" transform="translate(0 -32)">
    <path id="Path_134" data-name="Path 134" d="M16.714,32H1.286A1.286,1.286,0,0,0,0,33.286V48.714A1.286,1.286,0,0,0,1.286,50H16.714A1.286,1.286,0,0,0,18,48.714V33.286A1.286,1.286,0,0,0,16.714,32ZM15.429,44.857H2.571V34.571H15.429Z" fill="#a5a1a1"/>
    <path id="Path_135" data-name="Path 135" d="M64,96v10.286H76.857V96Zm2.571,1.286a1.286,1.286,0,1,1-1.286,1.286A1.286,1.286,0,0,1,66.571,97.286ZM65.286,105l2.037-3.054a.643.643,0,0,1,1.07,0l.826,1.24,1.982-2.642a.643.643,0,0,1,1.029,0L75.571,105Z" transform="translate(-61.429 -61.429)" fill="#e7ece9"/>
  </g>
</svg>
