<svg xmlns="http://www.w3.org/2000/svg" width="25.499" height="18.424" viewBox="0 0 25.499 18.424">
  <g id="Group_481" data-name="Group 481" transform="translate(-6552 289.72)">
    <g id="Group_480" data-name="Group 480" transform="translate(6552 -288)">
      <path id="Path_128" data-name="Path 128" d="M295.829,13.7a.979.979,0,0,1-1.59.765l-2.6-2.08A7.426,7.426,0,0,0,288,10.833V3.849A7.427,7.427,0,0,0,291.639,2.3l2.6-2.081A.977.977,0,0,1,294.851,0a.989.989,0,0,1,.979.979Z" transform="translate(-279.192 0)" fill="#e7ece9"/>
      <path id="Path_129" data-name="Path 129" d="M16.637,129.74v3.371a1.941,1.941,0,0,0,0-3.371ZM0,129.957v2.936a1.957,1.957,0,0,0,1.957,1.957H2.988a7.431,7.431,0,0,0-.067.979,7.749,7.749,0,0,0,.782,3.394.959.959,0,0,0,.868.52H6.843a.972.972,0,0,0,.792-1.546,3.9,3.9,0,0,1-.8-2.368,3.7,3.7,0,0,1,.135-.979h.859V128H1.957A1.957,1.957,0,0,0,0,129.957Z" transform="translate(0 -124.085)" fill="#a5a1a1"/>
    </g>
    <path id="Path_130" data-name="Path 130" d="M-1.051.42S3.489,2.061,3.68,8.587a9.573,9.573,0,0,1-4.731,8.948" transform="translate(6573.313 -289.5)" fill="none" stroke="#a5a1a1" stroke-linecap="round" stroke-width="1"/>
    <path id="Path_131" data-name="Path 131" d="M0,0A7.022,7.022,0,0,1,3.68,6.32,7.748,7.748,0,0,1,0,13.248" transform="translate(6569.703 -287.148)" fill="none" stroke="#a5a1a1" stroke-linecap="round" stroke-width="1"/>
  </g>
</svg>
