<svg xmlns="http://www.w3.org/2000/svg" width="13.5" height="18" viewBox="0 0 13.5 18">
  <g id="Group_470" data-name="Group 470" transform="translate(0 0)">
    <path id="Path_122" data-name="Path 122" d="M13.5,4.5H9.562A.562.562,0,0,1,9,3.937V0H.844A.842.842,0,0,0,0,.839V17.156A.842.842,0,0,0,.839,18H12.656a.842.842,0,0,0,.844-.84ZM4.985,13.343l-.688.733a.19.19,0,0,1-.269.008l-2.28-2.134a.189.189,0,0,1-.008-.267l.009-.009,2.28-2.134a.191.191,0,0,1,.269.008l.688.733a.19.19,0,0,1-.009.268l0,0L3.538,11.812l1.433,1.259a.19.19,0,0,1,.017.268Zm1.115,2.5-.965-.281a.189.189,0,0,1-.129-.234L7.167,7.906A.189.189,0,0,1,7.4,7.778l.965.281a.19.19,0,0,1,.128.234l-2.16,7.425a.19.19,0,0,1-.235.129Zm5.66-3.907-.009.009-2.28,2.134a.191.191,0,0,1-.269-.008l-.688-.733a.189.189,0,0,1,.009-.267l0,0,1.434-1.259L8.528,10.554a.19.19,0,0,1-.017-.268l0,0L9.2,9.549a.191.191,0,0,1,.269-.008l2.28,2.134a.188.188,0,0,1,.009.267Z" fill="#a5a1a1"/>
    <path id="Path_123" data-name="Path 123" d="M59.567,3.691,56.125.246a.844.844,0,0,0-.6-.246h-.214V3.937a.562.562,0,0,0,.563.562h3.937V4.285a.84.84,0,0,0-.246-.594Zm-8.282,9.38-1.433-1.259,1.433-1.259,0,0a.19.19,0,0,0,.009-.268l-.688-.733a.191.191,0,0,0-.269-.008l-2.28,2.134-.009.009a.189.189,0,0,0,.008.267l2.28,2.134a.19.19,0,0,0,.269-.008l.688-.733,0,0a.19.19,0,0,0-.017-.268Zm3.523-4.779a.19.19,0,0,0-.128-.234l-.965-.281a.189.189,0,0,0-.235.128l-2.162,7.428a.189.189,0,0,0,.128.234l.965.281a.19.19,0,0,0,.235-.129l2.16-7.426Zm3.258,3.382L55.785,9.54a.191.191,0,0,0-.269.008l-.688.733,0,0a.19.19,0,0,0,.017.268l1.433,1.259-1.433,1.259,0,0a.189.189,0,0,0-.009.267l.688.733a.191.191,0,0,0,.269.008l2.28-2.134.009-.009a.188.188,0,0,0-.009-.267Z" transform="translate(-46.313 0)" fill="#e7ece9"/>
  </g>
</svg>
