<svg xmlns="http://www.w3.org/2000/svg" width="154.011" height="224.406" viewBox="0 0 154.011 224.406">
  <path id="Path_1440" data-name="Path 1440" d="M-4337.168-788.531l.532-.227.021-.009,35.238-15.053s-.466-4.425-5.724-12.481-13.771-19.895-27.214-25.736-32.917-9.138-43.948-7.295-26.376,1.091-49.565,24.07-5.825,62.274-5.825,62.274,10.455,18.882,34.291,29.693,34.188,10.582,46.3,18.174,20.507,15.491,18.29,28.333-10.731,18.74-18.29,20.955-27.135,5.5-39.288-5.117-16.592-27.062-16.592-27.062l-1.083-3.522-38.494,15.734a98.277,98.277,0,0,0,18.538,33.176c13.887,16.466,34.36,23.094,34.36,23.094s19.873,5.953,38.744,3.5,35.792-12.572,35.792-12.572,19.034-10.951,24.789-34.22-4.211-45.741-4.211-45.741-8.767-21.651-41.738-34.315-18.31-5.472-40.894-15.041-16.783-26.9-16.783-26.9,10.1-29.682,48.172-12.722c.052.023,7.423,2.845,15.113,18.782" transform="translate(4448.518 849.844)" fill="#fff"/>
</svg>
