<svg id="Group_812" data-name="Group 812" xmlns="http://www.w3.org/2000/svg" width="18" height="18" viewBox="0 0 18 18">
  <path id="Path_96" data-name="Path 96" d="M163.375,6.75a3.375,3.375,0,1,1,3.375-3.375A3.375,3.375,0,0,1,163.375,6.75Z" transform="translate(-154.375)" fill="#e7ece9"/>
  <path id="Path_97" data-name="Path 97" d="M8.212,193.728c-2.086-1.277-5.464-1.628-7.164-1.723A.97.97,0,0,0,0,192.956v7.833a.967.967,0,0,0,.931.951A18.9,18.9,0,0,1,7.716,203.2a.489.489,0,0,0,.72-.417v-8.648A.468.468,0,0,0,8.212,193.728Zm8.74-1.723c-1.7.1-5.079.448-7.164,1.723a.477.477,0,0,0-.226.409v8.641a.491.491,0,0,0,.722.418,18.913,18.913,0,0,1,6.785-1.455.967.967,0,0,0,.93-.95v-7.835A.973.973,0,0,0,16.952,192Z" transform="translate(0 -185.252)" fill="#a5a1a1"/>
</svg>
