<svg xmlns="http://www.w3.org/2000/svg" width="223.366" height="185.539" viewBox="0 0 223.366 185.539">
  <g id="Vector" transform="translate(-90 136.992)">
    <rect id="wrap" width="223.366" height="185.539" rx="8" transform="translate(90 -136.992)" fill="none"/>
    <g id="Illustration_-_failed" data-name="Illustration - failed" transform="translate(1247.745 -989.254)">
      <path id="Path_14348" data-name="Path 14348" d="M-1096.821,1034.655c-4.421-.944-57.532-9.451-53.622-72.192s8.816-81.609,29.465-88.512,70.843-39.568,110.23-8.509,81.889,58.916,65.023,108.507-19.627,66.135-63.632,63.6S-1075.8,1039.146-1096.821,1034.655Z" fill="#fff"/>
      <g id="Group_8585" data-name="Group 8585">
        <rect id="Rectangle_1127" data-name="Rectangle 1127" width="58.328" height="58.328" transform="translate(-1070.632 880.683)" fill="#e5e5e5"/>
        <g id="Group_8564" data-name="Group 8564">
          <rect id="Rectangle_1128" data-name="Rectangle 1128" width="58.328" height="58.328" transform="translate(-1069.334 881.982)" fill="#fff"/>
          <g id="Group_8563" data-name="Group 8563">
            <path id="Path_14349" data-name="Path 14349" d="M-1010.982,940.116h-57.446a3.426,3.426,0,0,0-.784,0,.4.4,0,0,1-.1,0l.245.173V882.843a3.12,3.12,0,0,0,0-.784.4.4,0,0,1,0-.1l-.293.214h57.447a3.418,3.418,0,0,0,.783,0,.4.4,0,0,1,.1,0l-.245-.173v55.946a19.125,19.125,0,0,0,0,2.284.8.8,0,0,1,0,.1c0,.276.538.2.538-.041V884.343a19.125,19.125,0,0,0,0-2.284.8.8,0,0,1,0-.1c0-.137-.129-.173-.245-.173h-55.946c-.754,0-1.532-.056-2.284,0-.032,0-.066,0-.1,0-.1,0-.292.09-.292.214v55.946a18.935,18.935,0,0,0,0,2.284c0,.032,0,.066,0,.1,0,.137.128.173.244.173h55.947c.753,0,1.531.056,2.283,0,.033,0,.066,0,.1,0C-1010.727,940.5-1010.622,940.116-1010.982,940.116Z" fill="#637aaa"/>
          </g>
        </g>
        <rect id="Rectangle_1129" data-name="Rectangle 1129" width="58.328" height="51.876" transform="translate(-1069.334 888.434)" fill="#f8f8f8"/>
        <rect id="Rectangle_1130" data-name="Rectangle 1130" width="55.741" height="51.876" transform="translate(-1069.334 888.434)" fill="#fff"/>
        <g id="Group_8565" data-name="Group 8565">
          <path id="Path_14350" data-name="Path 14350" d="M-1010.981,940.122h-57.446a3.427,3.427,0,0,0-.784,0,.447.447,0,0,1-.1,0l.243.165V882.841a3.12,3.12,0,0,0,0-.784.356.356,0,0,1,0-.1l-.294.21h57.446a3.426,3.426,0,0,0,.784,0,.458.458,0,0,1,.1,0l-.243-.165V937.95a18.712,18.712,0,0,0,0,2.284.791.791,0,0,1,0,.1c0,.27.536.186.536-.044V884.341a18.724,18.724,0,0,0,0-2.284.8.8,0,0,1,0-.1c0-.136-.129-.165-.243-.165h-55.946c-.753,0-1.532-.056-2.284,0-.032,0-.065,0-.1,0-.1,0-.294.088-.294.21V937.95a18.935,18.935,0,0,0,0,2.284.779.779,0,0,1,0,.1c0,.137.129.166.243.166h55.946c.754,0,1.532.056,2.284,0,.032,0,.065,0,.1,0C-1010.733,940.5-1010.62,940.122-1010.981,940.122Z" fill="#637aaa"/>
        </g>
        <g id="Group_8568" data-name="Group 8568">
          <rect id="Rectangle_1131" data-name="Rectangle 1131" width="33.612" height="2.424" transform="translate(-1057.724 930.36)" fill="#d5f2f8"/>
          <g id="Group_8566" data-name="Group 8566">
            <path id="Path_14351" data-name="Path 14351" d="M-1048.164,931.631h14.18c.178,0,.507-.269.186-.269h-14.18c-.179,0-.508.269-.186.269Z" fill="#fff"/>
          </g>
          <g id="Group_8567" data-name="Group 8567">
            <path id="Path_14352" data-name="Path 14352" d="M-1061.422,929.5h39.172a14.024,14.024,0,0,0,1.6,0,.551.551,0,0,1,.071,0c.279,0,.361-.367.037-.367h-39.171a14.009,14.009,0,0,0-1.6,0,.563.563,0,0,1-.071,0c-.279,0-.361.367-.038.367Z" fill="#d5f2f8"/>
          </g>
          <rect id="Rectangle_1132" data-name="Rectangle 1132" width="50.323" height="20.236" transform="translate(-1065.767 905.077)" fill="#f1f1f1"/>
        </g>
        <g id="Group_8579" data-name="Group 8579">
          <rect id="Rectangle_1133" data-name="Rectangle 1133" width="58.199" height="6.426" transform="translate(-1069.269 882.008)" fill="rgba(31,203,84,0.27)"/>
          <path id="Path_14353" data-name="Path 14353" d="M-1013.593,888.434h-55.676v-5.117h52.879a2.8,2.8,0,0,1,2.8,2.8Z" fill="#1fcb54"/>
          <g id="Group_8569" data-name="Group 8569">
            <path id="Path_14354" data-name="Path 14354" d="M-1010.968,888.279h-57.315a2.955,2.955,0,0,0-.786,0,.356.356,0,0,1-.1,0l.163.123v-6.426l-.367.186h57.315a2.914,2.914,0,0,0,.786,0,.358.358,0,0,1,.1,0l-.164-.123v6.427c0,.226.531.116.531-.064v-6.426c0-.09-.081-.123-.163-.123h-51.056c-2.343,0-4.7-.082-7.045,0h-.1c-.087,0-.368.05-.368.186v6.427c0,.089.081.122.164.122h51.055c2.344,0,4.7.083,7.046,0,.032,0,.065,0,.1,0C-1010.967,888.588-1010.611,888.279-1010.968,888.279Z" fill="#637aaa"/>
          </g>
          <g id="Group_8570" data-name="Group 8570">
            <ellipse id="Ellipse_846" data-name="Ellipse 846" cx="1.141" cy="1.136" rx="1.141" ry="1.136" transform="translate(-1066.421 884.085)" fill="#fff"/>
            <ellipse id="Ellipse_847" data-name="Ellipse 847" cx="1.141" cy="1.136" rx="1.141" ry="1.136" transform="translate(-1062.997 884.085)" fill="#fff"/>
            <ellipse id="Ellipse_848" data-name="Ellipse 848" cx="1.141" cy="1.136" rx="1.141" ry="1.136" transform="translate(-1059.573 884.085)" fill="#fff"/>
          </g>
          <g id="Group_8574" data-name="Group 8574">
            <g id="Group_8571" data-name="Group 8571">
              <path id="Path_14355" data-name="Path 14355" d="M-1064.262,885.15c-.093-1.713-2.816-1.537-2.814.12,0,1.733,2.727,1.561,2.815-.077.014-.244-.522-.15-.533.055-.027.49-.347.992-.9.932a1.007,1.007,0,0,1-.842-1.009.844.844,0,0,1,.983-.889,1.033,1.033,0,0,1,.761,1.01C-1064.782,885.493-1064.25,885.377-1064.262,885.15Z" fill="#abdff5"/>
            </g>
            <g id="Group_8572" data-name="Group 8572">
              <path id="Path_14356" data-name="Path 14356" d="M-1060.838,885.15c-.092-1.7-2.809-1.508-2.813.123-.005,1.72,2.726,1.527,2.813-.085.012-.218-.521-.114-.531.066-.027.508-.373,1.053-.958.931a1.038,1.038,0,0,1-.787-1.016.833.833,0,0,1,1.041-.883,1.063,1.063,0,0,1,.7,1.006C-1061.359,885.463-1060.827,885.355-1060.838,885.15Z" fill="#abdff5"/>
            </g>
            <g id="Group_8573" data-name="Group 8573">
              <path id="Path_14357" data-name="Path 14357" d="M-1057.414,885.15c-.092-1.694-2.805-1.488-2.813.125-.009,1.712,2.726,1.5,2.812-.091.01-.2-.52-.088-.529.073-.029.53-.412,1.115-1.025.92a1.066,1.066,0,0,1-.722-1.01.832.832,0,0,1,1.073-.881,1.09,1.09,0,0,1,.673,1.006C-1057.937,885.442-1057.4,885.339-1057.414,885.15Z" fill="#abdff5"/>
            </g>
          </g>
          <g id="Group_8578" data-name="Group 8578">
            <g id="Group_8575" data-name="Group 8575">
              <path id="Path_14358" data-name="Path 14358" d="M-1063.873,885.15c-.092-1.713-2.816-1.537-2.814.12,0,1.733,2.727,1.561,2.816-.077.013-.244-.523-.15-.534.055-.026.49-.346.992-.9.932a1.008,1.008,0,0,1-.842-1.009.844.844,0,0,1,.983-.889,1.033,1.033,0,0,1,.762,1.01C-1064.392,885.493-1063.86,885.377-1063.873,885.15Z" fill="#637aaa"/>
            </g>
            <g id="Group_8576" data-name="Group 8576">
              <path id="Path_14359" data-name="Path 14359" d="M-1060.449,885.15c-.092-1.7-2.809-1.508-2.813.123,0,1.72,2.726,1.527,2.813-.085.012-.218-.521-.114-.53.066-.028.508-.373,1.053-.959.931a1.039,1.039,0,0,1-.787-1.016.834.834,0,0,1,1.041-.883,1.063,1.063,0,0,1,.7,1.006C-1060.97,885.463-1060.438,885.355-1060.449,885.15Z" fill="#637aaa"/>
            </g>
            <g id="Group_8577" data-name="Group 8577">
              <path id="Path_14360" data-name="Path 14360" d="M-1057.025,885.15c-.091-1.694-2.8-1.488-2.812.125-.009,1.712,2.725,1.5,2.811-.091.011-.2-.52-.088-.528.073-.029.53-.413,1.115-1.025.92a1.064,1.064,0,0,1-.722-1.01.832.832,0,0,1,1.073-.881,1.091,1.091,0,0,1,.673,1.006C-1057.547,885.442-1057.014,885.339-1057.025,885.15Z" fill="#637aaa"/>
            </g>
          </g>
        </g>
        <g id="Group_8581" data-name="Group 8581">
          <g id="Group_8580" data-name="Group 8580">
            <path id="Path_14361" data-name="Path 14361" d="M-1048.469,902.068a10.894,10.894,0,0,1,4.708-2.509,12.424,12.424,0,0,1,9.142,1.258,8.259,8.259,0,0,1,1.566,1.095c.123.115.619-.083.495-.2a11.334,11.334,0,0,0-5.364-2.525,12.951,12.951,0,0,0-9.322,1.591,9.176,9.176,0,0,0-1.715,1.295c-.141.142.38.105.49-.006Z" fill="#637aaa"/>
          </g>
          <circle id="Ellipse_849" data-name="Ellipse 849" cx="1.168" cy="1.168" r="1.168" transform="translate(-1052.292 894.328)" fill="#637aaa"/>
          <circle id="Ellipse_850" data-name="Ellipse 850" cx="1.168" cy="1.168" r="1.168" transform="translate(-1031.88 894.328)" fill="#637aaa"/>
        </g>
        <g id="Group_8582" data-name="Group 8582">
          <path id="Path_14362" data-name="Path 14362" d="M-1076.209,917.248a17.59,17.59,0,0,0,6.97-11.368c.034-.214-.5-.125-.531.063a17.23,17.23,0,0,1-6.771,11.137c-.289.211.16.294.332.168Z" fill="#637aaa"/>
        </g>
        <g id="Group_8583" data-name="Group 8583">
          <path id="Path_14363" data-name="Path 14363" d="M-1003.827,917.062a17.349,17.349,0,0,1-6.852-11.222c-.027-.17-.561-.047-.531.142a17.469,17.469,0,0,0,6.889,11.284c.146.107.631-.1.494-.2Z" fill="#637aaa"/>
        </g>
        <g id="Group_8584" data-name="Group 8584">
          <path id="Path_14364" data-name="Path 14364" d="M-1043.249,920.761V910.7l7.878,5.031Z" fill="#fec22d"/>
          <path id="Path_14365" data-name="Path 14365" d="M-1036.075,912.626l-3.988,1.237.185-.378.422,1.646.046.179-.145.071-1.362.666.052-.053-.792,1.323,0-.049.68,1.01-.755-.955-.016-.021.013-.028.643-1.4.013-.029.039-.024,1.282-.81-.1.25-.6-1.591-.1-.256.281-.122,3.83-1.663Z" fill="#d5f2f8"/>
        </g>
        <path id="Path_14366" data-name="Path 14366" d="M-1040.6,923.77a7.886,7.886,0,0,1-7.877-7.876,7.886,7.886,0,0,1,7.877-7.876,7.885,7.885,0,0,1,7.876,7.876A7.885,7.885,0,0,1-1040.6,923.77Zm0-15.486a7.618,7.618,0,0,0-7.61,7.61,7.618,7.618,0,0,0,7.61,7.61,7.619,7.619,0,0,0,7.61-7.61A7.619,7.619,0,0,0-1040.6,908.284Z" fill="#a5a1a1"/>
      </g>
      <g id="Group_8588" data-name="Group 8588">
        <path id="Path_14367" data-name="Path 14367" d="M-1077.449,994.452h-48.11a3.029,3.029,0,0,1-1.565-.427,15.088,15.088,0,0,1-7.326-12.93,15.1,15.1,0,0,1,15.082-15.082c.112,0,.225,0,.338,0a3.058,3.058,0,0,0,2.843-1.78,22.129,22.129,0,0,1,20.154-12.837,20.932,20.932,0,0,1,5.417.691,21.026,21.026,0,0,1,6.127,2.8q.707.468,1.381.98a4.943,4.943,0,0,1,1.337,1.219,22.6,22.6,0,0,0,2.394,2.838c.786.792,1.769,1.178,2.525,1.969.421.44,1.382.936,1.718,1.436,1.907,2.84,7.208-.193,7.866-.6a15.983,15.983,0,0,1,8.38-2.246,16.071,16.071,0,0,1,6.54,1.488c2.139.99,3.788,2.576,5.761,3.815,2.289,1.437,3.892-2.28,4.289-3.9a28.82,28.82,0,0,1,.959-3.944c1.372-3.412,2.7-7.3,4.615-10.448a36.813,36.813,0,0,1,9.841-10.43c5.35-3.969,15.617-6.649,21.967-6.649a32.926,32.926,0,0,1,30.364,19.96A3.08,3.08,0,0,0-971.5,952.2q.651-.045,1.284-.045a22.455,22.455,0,0,1,22.429,22.429,22.443,22.443,0,0,1-11.263,19.447,3.106,3.106,0,0,1-1.55.418h-116.853Z" fill="#e5e5e5"/>
        <path id="Path_14368" data-name="Path 14368" d="M-1074.608,995.873h-48.111a3.034,3.034,0,0,1-1.565-.427,15.089,15.089,0,0,1-7.326-12.931,15.1,15.1,0,0,1,15.082-15.082c.112,0,.225,0,.339.005a3.058,3.058,0,0,0,2.842-1.781,22.131,22.131,0,0,1,20.155-12.837,20.963,20.963,0,0,1,5.416.691,21.011,21.011,0,0,1,6.128,2.8q.706.466,1.381.98a4.922,4.922,0,0,1,1.336,1.219,22.834,22.834,0,0,0,2.394,2.838c.786.791,1.769,1.178,2.526,1.968.421.44,1.382.937,1.717,1.436,1.908,2.841,7.208-.193,7.867-.6a15.97,15.97,0,0,1,8.38-2.247,16.052,16.052,0,0,1,6.539,1.489c2.14.99,3.789,2.575,5.762,3.814,2.288,1.437,3.891-2.279,4.288-3.9a29.108,29.108,0,0,1,.959-3.944c1.373-3.412,2.7-7.3,4.615-10.448a36.842,36.842,0,0,1,9.841-10.43c5.351-3.969,15.617-6.649,21.968-6.649a32.926,32.926,0,0,1,30.364,19.96,3.081,3.081,0,0,0,3.055,1.818q.652-.047,1.285-.046a22.456,22.456,0,0,1,22.429,22.43,22.446,22.446,0,0,1-11.263,19.447,3.107,3.107,0,0,1-1.551.418h-116.852Z" fill="rgba(31,203,84,0.1)"/>
        <path id="Path_14369" data-name="Path 14369" d="M-1076.2,995.873h-46.77a3.085,3.085,0,0,1-1.521-.391,13.658,13.658,0,0,1-7.122-11.825c0-7.6,6.578-13.793,14.662-13.793.109,0,.218,0,.329,0a2.992,2.992,0,0,0,2.763-1.628,21.642,21.642,0,0,1,19.593-11.74,21.591,21.591,0,0,1,5.266.632,21.042,21.042,0,0,1,5.956,2.561q.687.428,1.343.9a4.714,4.714,0,0,1,1.3,1.115,21.141,21.141,0,0,0,2.327,2.6c.764.724,1.72,1.078,2.455,1.8.409.4,1.344.856,1.67,1.313,1.854,2.6,7.007-.177,7.647-.546a16.291,16.291,0,0,1,8.146-2.054,16.438,16.438,0,0,1,6.358,1.361c2.08.906,3.682,2.356,5.6,3.489,2.225,1.314,3.783-2.085,4.169-3.564a25.2,25.2,0,0,1,.933-3.606c1.334-3.121,2.626-6.681,4.486-9.555a34.643,34.643,0,0,1,9.567-9.539c5.2-3.63,15.181-6.08,21.355-6.08,13.013,0,24.421,7.2,29.518,18.254a3.023,3.023,0,0,0,2.97,1.662q.633-.042,1.248-.042c12.023,0,21.8,9.2,21.8,20.512a20.347,20.347,0,0,1-10.949,17.785,3.165,3.165,0,0,1-1.507.383h-113.6Z" fill="#f1f1f1"/>
        <g id="Group_8586" data-name="Group 8586">
          <path id="Path_14370" data-name="Path 14370" d="M-1101.543,971.348a12.007,12.007,0,0,1,13.07,7.922,12.152,12.152,0,0,1-5.707,14.615c-.685.373.331.591.729.375a12.78,12.78,0,0,0,6.03-15.6,12.81,12.81,0,0,0-13.973-7.985c-.567.091-.949.8-.149.677Z" fill="#637aaa"/>
          <path id="Path_14371" data-name="Path 14371" d="M-1123.066,995.583a15.06,15.06,0,0,1-7.271-17.654,14.4,14.4,0,0,1,15.819-9.953c.324.053.807-.048.934-.4a21.875,21.875,0,0,1,13.476-13.34,21.885,21.885,0,0,1,20.749,4.054c.327.272,1.411-.184,1.076-.464a23.314,23.314,0,0,0-31.571,1.861,23.437,23.437,0,0,0-4.893,8.025l.933-.4a16.047,16.047,0,0,0-14.765,5.435,15.386,15.386,0,0,0-2.192,16.3,15.67,15.67,0,0,0,6.785,7.11c.35.19,1.413-.312.92-.579Z" fill="#a5a1a1"/>
          <path id="Path_14372" data-name="Path 14372" d="M-1110.066,978.625a8.106,8.106,0,0,1,8.812,5.439,8.223,8.223,0,0,1-3.863,9.821c-.683.377.331.594.729.375a8.854,8.854,0,0,0,4.189-10.8,8.909,8.909,0,0,0-9.717-5.509c-.57.085-.951.8-.15.677Z" fill="#637aaa"/>
          <path id="Path_14373" data-name="Path 14373" d="M-1072.792,981.948a17.112,17.112,0,0,1,6.144-16.021,16.606,16.606,0,0,1,17.738-1.822,17.484,17.484,0,0,1,7.509,7.352c.22.409,1.348.036,1.161-.311a18,18,0,0,0-16.586-9.493,18.356,18.356,0,0,0-15.32,9.571,17.467,17.467,0,0,0-1.807,11.035c.068.416,1.235.139,1.161-.311Z" fill="#637aaa"/>
          <path id="Path_14374" data-name="Path 14374" d="M-1088.584,971.164a8.775,8.775,0,0,1,5.165-9.446,8.691,8.691,0,0,1,10.728,4.1c.224.408,1.35.032,1.161-.311a9.75,9.75,0,0,0-11.763-4.519,9.607,9.607,0,0,0-6.452,10.489c.065.415,1.232.141,1.161-.311Z" fill="#637aaa"/>
          <path id="Path_14375" data-name="Path 14375" d="M-1053.451,992.942a9.732,9.732,0,0,1-7.1-9.567,9.438,9.438,0,0,1,8.621-9.182c.584-.047.954-.741.15-.676a10.64,10.64,0,0,0-9.9,9.364,10.2,10.2,0,0,0,7.519,10.716c.391.107,1.367-.475.7-.655Z" fill="#637aaa"/>
        </g>
        <g id="Group_8587" data-name="Group 8587">
          <path id="Path_14376" data-name="Path 14376" d="M-1001.031,992.782a18.172,18.172,0,0,1-9.55-16.526,17.973,17.973,0,0,1,9.3-15.052,17.378,17.378,0,0,1,11.112-1.858c.607.1,1.163-.77.387-.9a19.105,19.105,0,0,0-18.162,7.253,18.828,18.828,0,0,0-1.943,19.488,19.085,19.085,0,0,0,8.2,8.42c.508.274,1.317-.473.658-.827Z" fill="#a5a1a1"/>
          <path id="Path_14377" data-name="Path 14377" d="M-1039.094,964.875a39.925,39.925,0,0,1,10.73-22.355c9.84-10.124,26.5-13.13,39.378-7.447a33.028,33.028,0,0,1,17.521,18.982c.108.3.427.318.7.274a21.88,21.88,0,0,1,20.964,8.705,22.213,22.213,0,0,1,2.128,22.523,22.165,22.165,0,0,1-9.552,9.943c-.694.372-.072,1.068.53.745a23.181,23.181,0,0,0,12.308-21.613,23.036,23.036,0,0,0-12.353-18.96A22.837,22.837,0,0,0-971,953.47l.7.274a33.926,33.926,0,0,0-15.26-18.118c-7.161-3.987-15.4-4.952-23.435-3.724a35.786,35.786,0,0,0-17.977,7.995,38.45,38.45,0,0,0-9.665,12.962,40.579,40.579,0,0,0-3.634,12.088c-.077.625,1.112.493,1.181-.072Z" fill="#a5a1a1"/>
          <path id="Path_14378" data-name="Path 14378" d="M-987.074,992.782a12.324,12.324,0,0,1-5.792-14.756,11.933,11.933,0,0,1,13.059-7.858c.607.1,1.164-.774.387-.9a13.331,13.331,0,0,0-14.456,8.294,13.062,13.062,0,0,0,6.143,16.045c.508.276,1.315-.47.659-.827Z" fill="#a5a1a1"/>
          <path id="Path_14379" data-name="Path 14379" d="M-1018.984,992.155a22.279,22.279,0,0,1-11.725-20.47,22.088,22.088,0,0,1,11.49-18.337,21.381,21.381,0,0,1,13.624-2.255c.607.1,1.163-.77.387-.9a23.175,23.175,0,0,0-22.09,8.864,22.924,22.924,0,0,0-2.38,23.552,23.224,23.224,0,0,0,10.035,10.371c.509.273,1.317-.474.659-.827Z" fill="#a5a1a1"/>
          <path id="Path_14380" data-name="Path 14380" d="M-971.423,992.844a8.981,8.981,0,0,1-4.347-10.622,8.577,8.577,0,0,1,9.425-5.8c.607.1,1.164-.777.387-.9a9.981,9.981,0,0,0-10.707,5.932,9.666,9.666,0,0,0,4.356,12.09c.478.262,1.473-.38.886-.7Z" fill="#a5a1a1"/>
        </g>
      </g>
      <g id="Group_8594" data-name="Group 8594">
        <g id="Group_8593" data-name="Group 8593">
          <g id="Group_8590" data-name="Group 8590">
            <g id="Group_8589" data-name="Group 8589">
              <path id="Path_14381" data-name="Path 14381" d="M-1077.087,977.133l-15.586-51.74-.331-1.1a4.426,4.426,0,0,0-3.461-1.783,4.426,4.426,0,0,0-3.46,1.783l-.331,1.1-15.8,52.462-18.391,9.345v4.729l39.306,18.914,41.376-19.358v-5.024Z" fill="#fec22d"/>
              <path id="Path_14382" data-name="Path 14382" d="M-1095.146,1011.4l-.214-.1-39.59-19.05v-5.349l18.474-9.388,16.124-53.474a4.931,4.931,0,0,1,3.849-2.02,4.96,4.96,0,0,1,3.925,2.02l.052.116,15.848,52.611,23.41,9.363V991.8Zm-38.8-19.782,38.809,18.675,40.873-19.122V986.8l-23.229-9.291-15.966-53.007a3.983,3.983,0,0,0-3.04-1.494,3.944,3.944,0,0,0-2.963,1.494l-16.176,53.7-18.308,9.3Z" fill="#a5a1a1"/>
            </g>
            <path id="Path_14383" data-name="Path 14383" d="M-1104.291,940.3l-3.1,11.081a62.833,62.833,0,0,0,10.97,1.1,54.77,54.77,0,0,0,10.97-1.1l-3.472-11.081a30.221,30.221,0,0,1-7.5,1.2A29.973,29.973,0,0,1-1104.291,940.3Z" fill="#3d3d3d"/>
            <path id="Path_14384" data-name="Path 14384" d="M-1111.137,964.6l-3.1,11.081a79.471,79.471,0,0,0,17.775,2.463c8.078,0,18.35-2.463,18.35-2.463l-3.472-11.081s-10.051,1.527-14.878,1.527A121.029,121.029,0,0,1-1111.137,964.6Z" fill="#3d3d3d"/>
          </g>
          <g id="Group_8592" data-name="Group 8592">
            <g id="Group_8591" data-name="Group 8591">
              <path id="Path_14385" data-name="Path 14385" d="M-1046.178,999.067l53.148,9.759,1.13.207a4.429,4.429,0,0,0,3.167-2.264,4.429,4.429,0,0,0-.007-3.893l-.827-.8-39.458-38.014.083-20.629-4.207-2.159-34.775,26.333-1.67,45.65,4.469,2.294Z" fill="#3d3d3d"/>
              <path id="Path_14386" data-name="Path 14386" d="M-1065.052,1016.153l-5.053-2.593,1.69-46.206.189-.142,35.026-26.523,4.76,2.443-.084,20.722,40.211,38.761a4.931,4.931,0,0,1,.041,4.347,4.963,4.963,0,0,1-3.591,2.57l-.064,0-1.193-.218-52.912-9.716Zm-4.031-3.193,3.886,1.994,18.872-16.423.237.043,54.212,9.955a3.983,3.983,0,0,0,2.717-2.023,3.943,3.943,0,0,0,.023-3.318l-40.39-38.911.083-20.536-3.654-1.876-34.336,26Z" fill="#a5a1a1"/>
            </g>
            <path id="Path_14387" data-name="Path 14387" d="M-1000.987,991.683l-8.442-7.82a62.778,62.778,0,0,0-5.991,9.256,54.838,54.838,0,0,0-4.027,10.264l11.443,1.97a30.235,30.235,0,0,1,2.356-7.219A29.948,29.948,0,0,1-1000.987,991.683Z" fill="#fec22d"/>
            <path id="Path_14388" data-name="Path 14388" d="M-1019.48,974.5l-8.442-7.82a79.508,79.508,0,0,0-10.308,14.69c-3.688,7.186-6.187,17.45-6.187,17.45l11.444,1.97s3.231-9.639,5.435-13.933A121.032,121.032,0,0,1-1019.48,974.5Z" fill="#fec22d"/>
          </g>
        </g>
        <path id="Path_14389" data-name="Path 14389" d="M-1114.24,979.47s5.565,7.534,19.18,7.534c0,0,11.153,11.574.951,12.057s-36.036-11.9-36.036-11.9Z" fill="#fff"/>
        <path id="Path_14390" data-name="Path 14390" d="M-1086.506,983.863l8.391-4.393S-1079.35,984.415-1086.506,983.863Z" fill="#d9e3ff"/>
        <path id="Path_14391" data-name="Path 14391" d="M-1061.371,971.372l30.547-24.979-1.125,16.844s-16.505,5.236-18.6,19.55-3.317,18.473-6.982,19.622S-1061.371,971.372-1061.371,971.372Z" fill="#fff"/>
      </g>
    </g>
  </g>
</svg>
