<svg xmlns="http://www.w3.org/2000/svg" width="25" height="24.167" viewBox="0 0 25 24.167">
  <g id="Group_8597" transform="translate(-2 -2)">
    <path id="Path_14395" d="M24.777,9.566a6.517,6.517,0,0,0,.1-1.122A6.237,6.237,0,0,0,12.767,6.157,4.449,4.449,0,0,0,10.1,5.321c-2.182.022-3.956,1.452-3.956,3.233A2.142,2.142,0,0,0,6.2,9.06H6.18A4.361,4.361,0,0,0,2,13.569H2A4.339,4.339,0,0,0,6.18,18.1H22.819A4.36,4.36,0,0,0,27,13.591h0A4.558,4.558,0,0,0,24.777,9.566Z" fill="#7dccfc"/>
    <path id="Path_14396" d="M45.042,11.461a.417.417,0,0,1-.417-.417,3.2,3.2,0,0,0-3.184-3.213.417.417,0,0,1,0-.833,4.037,4.037,0,0,1,4.017,4.047A.417.417,0,0,1,45.042,11.461Z" transform="translate(-22.765 -2.915)" fill="#fff"/>
    <g id="Group_8596" transform="translate(10.333 11.583)">
      <g id="Group_8598">
        <path id="Polygon_8" d="M3.509.9a.8.8,0,0,1,1.3,0L7.4,4.488A.8.8,0,0,1,6.75,5.756H1.565A.8.8,0,0,1,.916,4.488Z" transform="translate(8.315 14.584) rotate(180)" fill="#a5a1a1"/>
        <rect id="Rectangle_1134" width="3.333" height="9.583" rx="0.8" transform="translate(2.5)" fill="#a5a1a1"/>
      </g>
    </g>
  </g>
</svg>
