<svg xmlns="http://www.w3.org/2000/svg" width="24" height="24" viewBox="0 0 24 24">
  <g id="Group_416" data-name="Group 416" transform="translate(24.006 -0.005) rotate(90)">
    <path id="Path_94" data-name="Path 94" d="M15.766,7.84,19.036.214,18.258.035a1.133,1.133,0,0,0-1.289.652l-2.25,5.25a1.12,1.12,0,0,0,.324,1.313Zm-8.514,7.2a1.125,1.125,0,0,0-1.313-.324l-5.25,2.25A1.139,1.139,0,0,0,.033,18.26l.178.773,7.632-3.27ZM23.133,1.16,20.52.556,16.973,8.829l.909.744A17.372,17.372,0,0,1,9.577,17.88l-.744-.909L.554,20.518l.6,2.617a1.125,1.125,0,0,0,1.1.871A21.748,21.748,0,0,0,24,2.256a1.125,1.125,0,0,0-.871-1.1Z" transform="translate(0 0)" fill="#dbd8d8"/>
    <path id="Path_95" data-name="Path 95" d="M23.235,4.43l-3.27,7.626,1.208.99,3.547-8.273ZM4.41,23.249l.343,1.485,8.278-3.548-.989-1.208Z" transform="translate(-4.199 -4.216)" fill="#e2eae5"/>
  </g>
</svg>
