<svg xmlns="http://www.w3.org/2000/svg" width="21" height="24" viewBox="0 0 21 24">
  <g id="Group_414" data-name="Group 414" transform="translate(0 -1)">
    <path id="Path_90" data-name="Path 90" d="M75.75,11.5H72V8.125a7.125,7.125,0,0,1,14.25,0V11.5H82.5V8.125a3.375,3.375,0,1,0-6.75,0Z" transform="translate(-68.625)" fill="#e2eae5"/>
    <path id="Path_91" data-name="Path 91" d="M18.75,225H2.25A2.25,2.25,0,0,0,0,227.25v9a2.25,2.25,0,0,0,2.25,2.25h16.5A2.25,2.25,0,0,0,21,236.25v-9A2.25,2.25,0,0,0,18.75,225Zm-6.375,7.828a1.875,1.875,0,0,1-3.75,0v-2.25a1.875,1.875,0,0,1,3.75,0Z" transform="translate(0 -213.5)" fill="#dbd8d8"/>
  </g>
</svg>
