<svg id="Group_412" data-name="Group 412" xmlns="http://www.w3.org/2000/svg" width="29.999" height="24" viewBox="0 0 29.999 24">
  <path id="Path_86" data-name="Path 86" d="M352.324,233.85,352,236.709a.746.746,0,0,0,.825.825l2.855-.319,6.464-6.464-3.361-3.361Zm12.848-7.706-1.777-1.777a1.125,1.125,0,0,0-1.584,0l-1.772,1.772-.192.192,3.366,3.361,1.959-1.959A1.129,1.129,0,0,0,365.172,226.144Z" transform="translate(-335.5 -213.539)" fill="#e2eae5"/>
  <path id="Path_87" data-name="Path 87" d="M14.7,13.5h-.783a8.16,8.16,0,0,1-6.834,0H6.3A6.3,6.3,0,0,0,0,19.8V21.75A2.25,2.25,0,0,0,2.25,24H15.136a2.25,2.25,0,0,1-.122-1l.319-2.855.056-.52,3.994-3.994A6.236,6.236,0,0,0,14.7,13.5ZM10.5,12a6,6,0,1,0-6-6,6,6,0,0,0,6,6Z" fill="#dbd8d8"/>
</svg>
