<svg xmlns="http://www.w3.org/2000/svg" width="26.25" height="30" viewBox="0 0 26.25 30">
  <g id="Group_623" data-name="Group 623" transform="translate(0 0)">
    <path id="Path_1118" data-name="Path 1118" d="M26.25,22.5a1.877,1.877,0,0,1-1.881,1.875H1.879A1.876,1.876,0,0,1,0,22.5a1.831,1.831,0,0,1,.5-1.272c1.132-1.216,3.25-3.047,3.25-9.04a9.253,9.253,0,0,1,7.5-9.091V1.875a1.875,1.875,0,0,1,3.75,0V3.1a9.253,9.253,0,0,1,7.493,9.091c0,5.994,2.118,7.824,3.25,9.04A1.832,1.832,0,0,1,26.25,22.5Z" fill="#fece51"/>
    <path id="Path_1119" data-name="Path 1119" d="M160,448h7.5a3.75,3.75,0,0,1-7.5,0Z" transform="translate(-150.625 -421.75)" fill="#fff"/>
  </g>
</svg>
