<svg xmlns="http://www.w3.org/2000/svg" width="20" height="17.344" viewBox="0 0 20 17.344">
  <path id="Path_14400" d="M21,9.58a3.155,3.155,0,0,0-3.273-3.246H7.665l2.706-.667a.353.353,0,0,0,.273-.493,4,4,0,0,0-.767-1.18,3.4,3.4,0,0,0-2.706-1H4.332A3.152,3.152,0,0,0,1,6.327V17.045a3.186,3.186,0,0,0,3.246,3.28h13.5A3.24,3.24,0,0,0,21,16.992V9.58Zm-5.719,2.666-3.7,3.7a1.333,1.333,0,0,1-1.886,0l-2.38-2.38a1.339,1.339,0,0,1,1.88-1.906l1.433,1.433,2.766-2.766a1.334,1.334,0,0,1,1.886,1.886Z" transform="translate(-0.998 -2.982)" fill="#7dccfc"/>
</svg>
