<svg xmlns="http://www.w3.org/2000/svg" width="24" height="24" viewBox="0 0 24 24">
  <g id="Group_413" data-name="Group 413" transform="translate(-8 -8)">
    <path id="Path_88" data-name="Path 88" d="M28.9,18.839c0-4.954-4.058-7.742-8.9-7.742a8.9,8.9,0,1,0,4.81,16.4,1.158,1.158,0,0,1,1.518.248l.495.6a1.207,1.207,0,0,1,.078.107,1.161,1.161,0,0,1-.348,1.6A12,12,0,1,1,20,8c6.677,0,12,4.241,12,10.839,0,3.306-1.627,6.446-5.806,7.034v-3C27.922,22.618,28.9,20.677,28.9,18.839Z" fill="#e2eae5"/>
    <path id="Path_89" data-name="Path 89" d="M125.519,128.171a1.161,1.161,0,0,0-.919-1.362,1.174,1.174,0,0,0-.222-.021H122.2a.654.654,0,0,0-.65.581v0a3.721,3.721,0,0,0-2.9-1.053c-3.607,0-6.668,3.011-6.668,7.328,0,3.16,1.78,5.123,4.645,5.123a4.9,4.9,0,0,0,3.629-1.855c.461,1.65,1.965,1.65,3.421,1.65a10.522,10.522,0,0,0,1.466-.1v-3c-.035,0-.07.011-.105.015-.84-.022-.818-.622-.652-1.452Zm-7.62,7.154a1.733,1.733,0,0,1-1.745-1.973c0-2.177,1.489-3.519,2.837-3.519,1.079,0,1.723.737,1.723,1.973A3.339,3.339,0,0,1,117.9,135.325Z" transform="translate(-98.949 -112.595)" fill="#dbd8d8"/>
  </g>
</svg>
