<svg xmlns="http://www.w3.org/2000/svg" xmlns:xlink="http://www.w3.org/1999/xlink" width="386" height="291" viewBox="0 0 386 291">
  <defs>
    <linearGradient id="linear-gradient" y1="0.5" x2="1" y2="0.5" gradientUnits="objectBoundingBox">
      <stop offset="0" stop-color="#00b488"/>
      <stop offset="0.92" stop-color="#007bc0"/>
    </linearGradient>
    <linearGradient id="linear-gradient-2" x1="-1.17" y1="-0.13" x2="-0.422" y2="0.78" xlink:href="#linear-gradient"/>
    <linearGradient id="linear-gradient-3" x1="-2.713" y1="-0.094" x2="-1.746" y2="0.953" gradientUnits="objectBoundingBox">
      <stop offset="0" stop-color="#8ccc6d"/>
      <stop offset="0.194" stop-color="#81c768"/>
      <stop offset="0.539" stop-color="#62b85b"/>
      <stop offset="0.92" stop-color="#39a54a"/>
    </linearGradient>
    <linearGradient id="linear-gradient-4" x1="0.869" y1="-0.156" x2="0.887" y2="0.824" xlink:href="#linear-gradient"/>
    <linearGradient id="linear-gradient-5" x1="0.863" y1="0.059" x2="1.831" y2="1.106" xlink:href="#linear-gradient-3"/>
    <linearGradient id="linear-gradient-6" y1="0.5" x2="1" y2="0.5" gradientUnits="objectBoundingBox">
      <stop offset="0" stop-color="#c91451"/>
      <stop offset="1" stop-color="#e8486d"/>
    </linearGradient>
    <linearGradient id="linear-gradient-7" x1="-7.396" y1="0.951" x2="-7.69" y2="0.219" gradientUnits="objectBoundingBox">
      <stop offset="0" stop-color="#172652"/>
      <stop offset="1" stop-color="#17263f"/>
    </linearGradient>
    <linearGradient id="linear-gradient-9" y1="0.5" x2="1" y2="0.5" gradientUnits="objectBoundingBox">
      <stop offset="0.002" stop-color="#352d29"/>
      <stop offset="1" stop-color="#1e1b15"/>
    </linearGradient>
    <linearGradient id="linear-gradient-11" x1="19.034" y1="3.048" x2="18.878" y2="4" gradientUnits="objectBoundingBox">
      <stop offset="0" stop-color="#fff"/>
      <stop offset="1"/>
    </linearGradient>
    <linearGradient id="linear-gradient-12" x1="0.709" y1="-0.099" x2="0.466" y2="0.849" xlink:href="#linear-gradient-9"/>
    <linearGradient id="linear-gradient-13" x1="0.835" y1="-0.224" x2="0.166" y2="1.07" xlink:href="#linear-gradient-9"/>
  </defs>
  <g id="Group_809" data-name="Group 809" transform="translate(-2785 319)">
    <rect id="Rectangle_514" data-name="Rectangle 514" width="386" height="291" transform="translate(2785 -319)" fill="none"/>
    <g id="_8" data-name="8" transform="translate(2476.964 -720.443)">
      <path id="Path_463" data-name="Path 463" d="M534.72,814.715s-18.372-37.122,13.779-64.192c0,0,32.15-68.777,114.823-68.013s112.526,64.956,112.526,64.956,47.46,37.445,18.372,66.484Z" transform="translate(-171.782 -203.661)" fill="#88b3ff"/>
      <path id="Path_464" data-name="Path 464" d="M3378.817,1906.179c-7.571,4.326-26.469,12.014-45.072,20.578l-18.677,2.456-.772-11.231c16.65-16.221,37.412-31.924,53.772-38.513C3396.768,1867.908,3405.385,1891,3378.817,1906.179Z" transform="translate(-2737.38 -1303.524)" fill-rule="evenodd" fill="url(#linear-gradient)"/>
      <path id="Path_465" data-name="Path 465" d="M3323.621,2040.575c27.3-26.449,70.579-42.657,70.737-42.718a.55.55,0,0,1,.732.365.655.655,0,0,1-.387.79c-.156.059-42.738,16.011-69.826,41.958l-1.217.16Z" transform="translate(-2745.971 -1415.441)" fill="#0e2d34" fill-rule="evenodd"/>
      <path id="Path_466" data-name="Path 466" d="M3120.845,487.416c-.624,8.686-6.27,44.089-9.525,64.28l-6.876,1.39-9.769-5.623c-4.2-22.844-5.679-48.805-2.034-66.036C3099.036,451.2,3123.038,456.933,3120.845,487.416Z" transform="translate(-2531.266 0)" fill-rule="evenodd" fill="url(#linear-gradient-2)"/>
      <path id="Path_467" data-name="Path 467" d="M3234.372,652.225c-6.763-37.376,3.893-82.274,3.931-82.438a.552.552,0,0,1,.713-.4.655.655,0,0,1,.44.762c-.038.163-10.522,44.343-4.055,81.261l-.546,1.1Z" transform="translate(-2661.677 -99.418)" fill="#0e2d34" fill-rule="evenodd"/>
      <path id="Path_468" data-name="Path 468" d="M3402.573,1468.833c-5.585,6.69-20.613,20.473-35.058,34.974l-16.647,8.8-4.646-10.258c9.941-21,23.916-42.942,36.948-54.812C3406.031,1426.715,3422.171,1445.356,3402.573,1468.833Z" transform="translate(-2766.793 -900.164)" fill="#1b7154" fill-rule="evenodd"/>
      <path id="Path_469" data-name="Path 469" d="M3402.327,1614.954c16.355-34.292,51.253-64.545,51.38-64.656a.55.55,0,0,1,.814.086.654.654,0,0,1-.088.875c-.125.11-34.464,29.882-50.791,63.629l-1.085.573Z" transform="translate(-2818.482 -1003.016)" fill="#0e2d34" fill-rule="evenodd"/>
      <path id="Path_470" data-name="Path 470" d="M3330.592,711.9c-2.546,9.9-5.539,32.874-9.431,56.721,3.81,9.173,2.426,32.931,10.946,37.631,12-23.322,30.166-66.012,32.648-86.269C3369.617,680.328,3340.285,674.215,3330.592,711.9Z" transform="translate(-2743.706 -207.521)" fill-rule="evenodd" fill="url(#linear-gradient-3)"/>
      <path id="Path_471" data-name="Path 471" d="M3435.51,911.1c16.245-38.935,20.778-84.565,20.8-84.755a.783.783,0,0,0-.641-.869.724.724,0,0,0-.8.674c-.02.189-4.5,45.291-20.472,83.841Q3434.943,910.551,3435.51,911.1Z" transform="translate(-2848.025 -335.37)" fill="#5f9850" fill-rule="evenodd"/>
      <path id="Path_472" data-name="Path 472" d="M1954.731,492.892h-78.507a1.518,1.518,0,0,0-1.52,1.517v49.471a1.518,1.518,0,0,0,1.52,1.517h78.507a1.518,1.518,0,0,0,1.52-1.517V494.41A1.518,1.518,0,0,0,1954.731,492.892Z" transform="translate(-1411.105 -28.974)" fill="#6f87aa" opacity="0.6" style="mix-blend-mode: multiply;isolation: isolate"/>
      <rect id="Rectangle_364" data-name="Rectangle 364" width="81.546" height="52.506" rx="21.459" transform="translate(464.565 462.955)" fill="#4a82f4"/>
      <rect id="Rectangle_365" data-name="Rectangle 365" width="68.542" height="44.132" rx="14.995" transform="translate(471.067 467.142)" fill="#d2e2ff"/>
      <path id="Path_473" data-name="Path 473" d="M2001.819,774.892l-1.766-3.462-3.773.955,4.594-10.115,5.539,2.507Z" transform="translate(-1523.11 -277.148)" fill="#e5373a"/>
      <path id="Path_474" data-name="Path 474" d="M2068.37,792.167l-4.47,9.844.216.424,4.594-10.115Z" transform="translate(-1585.408 -304.691)" fill="#e6e7e8"/>
      <path id="Path_475" data-name="Path 475" d="M2111.5,772.378l1.619-3.534,3.81.8-5.017-9.913-5.429,2.738Z" transform="translate(-1624.642 -274.806)" fill="#e5373a"/>
      <path id="Path_476" data-name="Path 476" d="M2106.819,792.377l4.882,9.647-.2.433-5.016-9.913Z" transform="translate(-1624.642 -304.885)" fill="#e6e7e8"/>
      <path id="Path_477" data-name="Path 477" d="M2052.588,767.458a7.117,7.117,0,0,1-10.1.212l-.732,1.612a3.021,3.021,0,0,1,1.292.136,1.988,1.988,0,0,1,.543.863,1.259,1.259,0,0,0,.549.71c.519.2,1.308-.519,1.87-.42.473.083.906.809,1.388.992l.215-.472.234.462c.474-.2.876-.946,1.345-1.049.557-.122,1.376.565,1.886.341s.566-1.3,1.025-1.617a3.021,3.021,0,0,1,1.285-.19Z" transform="translate(-1565.007 -281.928)" fill="#d1d3d4"/>
      <path id="Path_478" data-name="Path 478" d="M2015.742,596.5c.1-.544,1.048-1.036,1.036-1.61s-.983-1.026-1.1-1.566c-.122-.556.566-1.373.342-1.883a1.249,1.249,0,0,0-.733-.517,2,2,0,0,1-.887-.505c-.324-.462,0-1.481-.408-1.87a1.068,1.068,0,0,0-.737-.2,2.42,2.42,0,0,1-1.152-.131,1.2,1.2,0,0,1-.378-.5c-.206-.42-.363-.935-.714-1.072-.519-.2-1.308.519-1.87.42-.545-.1-1.039-1.046-1.613-1.033s-1.027.982-1.568,1.1a.678.678,0,0,1-.19.013c-.541-.029-1.241-.554-1.7-.354-.519.228-.565,1.3-1.024,1.618s-1.483,0-1.873.406-.024,1.411-.329,1.886-1.37.562-1.576,1.089c-.18.463.374,1.138.426,1.676a.668.668,0,0,1-.005.191c-.1.545-1.047,1.037-1.036,1.61s.983,1.025,1.1,1.565c.122.556-.566,1.374-.342,1.883.152.344.675.48,1.1.666a1.214,1.214,0,0,1,.517.356,2.4,2.4,0,0,1,.18,1.143,1.071,1.071,0,0,0,.228.726c.406.389,1.412.024,1.889.328a2,2,0,0,1,.543.863,1.257,1.257,0,0,0,.548.71c.519.2,1.308-.519,1.87-.42.545.1,1.039,1.046,1.613,1.034s1.027-.982,1.568-1.1c.557-.122,1.376.565,1.886.341s.566-1.3,1.024-1.617,1.483,0,1.873-.407.024-1.411.329-1.885,1.37-.562,1.576-1.09S2015.643,597.062,2015.742,596.5Zm-7.876,5.688a7.081,7.081,0,0,1-2.879-.542,7.131,7.131,0,1,1,2.879.542Z" transform="translate(-1525.298 -114.785)" fill="#d11922"/>
      <ellipse id="Ellipse_28" data-name="Ellipse 28" cx="7.305" cy="7.293" rx="7.305" ry="7.293" transform="translate(475.113 473.004)" fill="#f4e9d5"/>
      <ellipse id="Ellipse_29" data-name="Ellipse 29" cx="6.501" cy="6.49" rx="6.501" ry="6.49" transform="translate(475.917 473.806)" fill="#e5373a"/>
      <path id="Path_479" data-name="Path 479" d="M2065.222,642.673a7.086,7.086,0,0,0-2.339-5.114,7.111,7.111,0,0,1-9.847,10.254,7.12,7.12,0,0,0,12.187-5.14Z" transform="translate(-1575.399 -162.253)" fill="#dbbc8f"/>
      <path id="Path_480" data-name="Path 480" d="M2031.47,625.314a6.5,6.5,0,0,1,11.263-4.553,6.5,6.5,0,1,0-9.812,8.5A6.456,6.456,0,0,1,2031.47,625.314Z" transform="translate(-1555.265 -144.552)" fill="#e5d0ae"/>
      <rect id="Rectangle_366" data-name="Rectangle 366" width="73.592" height="47.448" rx="16.11" transform="translate(468.591 465.484)" fill="none" stroke="#d2e2ff" stroke-miterlimit="10" stroke-width="6.813"/>
      <path id="Path_481" data-name="Path 481" d="M2306.953,618.337H2270.6a1.525,1.525,0,0,1-1.526-1.526h0a1.525,1.525,0,0,1,1.526-1.525h36.354a1.525,1.525,0,0,1,1.526,1.525h0A1.525,1.525,0,0,1,2306.953,618.337Zm0,6.423H2270.6a1.525,1.525,0,0,1-1.526-1.525h0a1.525,1.525,0,0,1,1.526-1.526h36.354a1.526,1.526,0,0,1,1.526,1.526h0A1.525,1.525,0,0,1,2306.953,624.759Z" transform="translate(-1774.43 -141.733)" fill="#b8d8ff"/>
      <rect id="Rectangle_367" data-name="Rectangle 367" width="39.406" height="3.051" rx="1.525" transform="translate(494.642 486.398)" fill="#b8d8ff"/>
      <rect id="Rectangle_368" data-name="Rectangle 368" width="39.406" height="3.051" rx="1.525" transform="translate(494.642 492.821)" fill="#b8d8ff"/>
      <rect id="Rectangle_369" data-name="Rectangle 369" width="39.406" height="3.051" rx="1.525" transform="translate(494.642 499.243)" fill="#b8d8ff"/>
      <path id="Path_482" data-name="Path 482" d="M482.6,1306.007c-17.408-5.334-40.276-25.028-29.77-34.4,7.453-6.65,13.6,6.865,6.723-19.675-4.742-18.3,7.854-33.011,25.973-27.62s27.425,28.866,34.542,19.875c9.537-12.05,30.288-10.22,17.949,33.237C523.811,1327.455,482.6,1306.007,482.6,1306.007Z" transform="translate(-98.704 -701.78)" fill-rule="evenodd" fill="url(#linear-gradient-4)"/>
      <path id="Path_483" data-name="Path 483" d="M411.243,1570.118c1.618,6.289,3.519,20.886,5.991,36.038-2.42,5.828-1.541,20.923-6.954,23.909-7.625-14.818-19.166-41.941-20.743-54.811C386.449,1550.06,405.085,1546.177,411.243,1570.118Z" transform="translate(-42.525 -1006.655)" fill-rule="evenodd" fill="url(#linear-gradient-5)"/>
      <path id="Path_484" data-name="Path 484" d="M509.788,1696.693c-10.321-24.737-13.2-53.728-13.213-53.849a.5.5,0,0,1,.407-.552.46.46,0,0,1,.508.428c.013.12,2.861,28.776,13.007,53.268Q510.148,1696.347,509.788,1696.693Z" transform="translate(-141.45 -1087.897)" fill="#5f9850" fill-rule="evenodd"/>
      <ellipse id="Ellipse_30" data-name="Ellipse 30" cx="156.105" cy="15.284" rx="156.105" ry="15.284" transform="translate(343.036 600.572)" fill="#88b3ff"/>
      <path id="Path_485" data-name="Path 485" d="M3422.8,645.222c.15-.127.226-.2.226-.2-2.058-5.643-7.093-17.825-11.853-29.159,2.275-1.691,4.451-2.982,4.451-2.982-2.007-7.415-6.223-17.836-12.245-28.658l-4.8-9.77a3.725,3.725,0,0,1-.251-2.645c1.869-6.772,7.564-23.658,7.564-23.658a27.131,27.131,0,0,0-6.122-9.476l.735-6.49,1.47-.83c.705.977,1.723,2.366,3.064,4.145,1.681,2.229,3.763,4.434,3.763,4.434.08-.247.171-.482.267-.709.973,2.228,5.622-4.836,5.622-4.836a31.936,31.936,0,0,0-6.959-5.077c-1.04-.537-2.012-1.084-2.879-1.6l.336-.207-.268-1.269-.4-1.269-.937-.6-.2-1.2-2.007-1.47-1.926.568a86.209,86.209,0,0,1-3.227-9.252s-1.874-.134-3.48,3.207-4.148,3.874-4.148,3.874c2.676,3.741,8.212,6.3,8.212,6.3l.821,5.328-1.589,3.552c-.371-.291-.586-.445-.586-.445-1.1,1.2-5.521,10.121-5.521,10.121a38.526,38.526,0,0,0-3.473,3.217c-.362.361-.719.725-1.066,1.08.076-.363.123-.555.123-.555l-3,3.555-.017.018c-.025.162-.051.329-.077.5h-.123l-1.205-2.4a7.158,7.158,0,0,0-.718.809l-.12-.81a2.827,2.827,0,0,0,1.632-2.363c.8-.854,2.507-2.864,2.768-4.69.342-2.4-1.517-2.249-1.517-2.249.239-1.986-2.482-2.4-2.482-2.4-.054-1.38-1.366-2.55-3.474-2.751a3.5,3.5,0,0,0-2.6,1.089,1.707,1.707,0,0,1-.324.093,1.9,1.9,0,0,0-1.116.139l-.416.041c-1.237.124-1.1,1.551-1.1,1.551a.434.434,0,0,1-.186-.553,1.982,1.982,0,0,0-.4,1.431,1.821,1.821,0,0,0,.971,1.237,7.167,7.167,0,0,0-.958,1.679s-.092.425-.212,1.1h0c-.193.072-.289.182-.274.257s.095.1.208.136c-.076.45-.157.974-.231,1.538-.061.479-.117.988-.16,1.5-.037.455-.063.914-.073,1.363a6.567,6.567,0,0,0,.547,3.336,2.731,2.731,0,0,0,.965.895,4.567,4.567,0,0,0,2.682.5c.13-.008.26-.021.392-.039l-.023.022.468,1.55-.262.367c-.014-.274-.017-.551-.005-.832l-1.605,1.67s.008.077.033.211c-.519.455-1.215,1.1-1.9,1.751-1.289,1.218-2.548,2.447-2.548,2.447a41.248,41.248,0,0,0-4.752,6.814c-1.672,3.273-6.424,6.814-6.424,6.814v22.245s7.06,1.014,13.551-7.108c.914,16.724,3.346,35.165,3.346,35.165,1.515-1.026,4.15-.363,7.483.466,1.591,10.946,3.347,22.537,4.495,28.63a9.269,9.269,0,0,0,1.75.326l.048,2.117-3.843,3.424s-1.891.962-2.647,1.414-.352,2.16-.352,2.16l8.909-1.163,1.284-1.016.257.814,4.692-.962-1.5-7.435c.241-.066.487-.137.736-.214l.714-27.013a19.146,19.146,0,0,0,3.693-1.141c7.187,12.294,14.035,24.152,14.035,24.152.469-.1.916-.2,1.344-.315l.07.184-2.688,4.875s-1.583,1.661-2.192,2.394.334,2.176.334,2.176l8.842-4.078.859-1.653.557.738,4.3-2.189ZM3376.087,541.9l-.039.052c-.006-.018-.011-.035-.016-.052Z" transform="translate(-2777.527 -47.507)" fill="#6f87aa" opacity="0.6" style="mix-blend-mode: multiply;isolation: isolate"/>
      <path id="Path_486" data-name="Path 486" d="M4022.093,780.569s-6.09,9.252-5.789,3.24C4016.3,783.809,4017.844,779.634,4022.093,780.569Z" transform="translate(-3384.12 -293.88)" fill="#155eb5"/>
      <path id="Path_487" data-name="Path 487" d="M3883.388,621.787l2.944-.869,2.008,1.47.2,1.2.937.6.4,1.269.268,1.269-2.274,1.4-1.673-1.67-.469-3.006Z" transform="translate(-3261.677 -146.923)" fill="#fbbd9d"/>
      <path id="Path_488" data-name="Path 488" d="M3766.633,523.96s-5.536-2.555-8.212-6.3c0,0,2.542-.534,4.148-3.875s3.48-3.207,3.48-3.207,3.066,10.641,4.55,11.223Z" transform="translate(-3146.546 -45.271)" fill="#2d71d3"/>
      <path id="Path_489" data-name="Path 489" d="M3893.083,663.855a58.954,58.954,0,0,0,6.826,4.142,31.938,31.938,0,0,1,6.958,5.077,8.635,8.635,0,0,0-5.888,5.545s-2.083-2.2-3.764-4.434c-2.873-3.81-4.266-5.837-4.266-5.837l-1.271-3.29S3890.005,663.32,3893.083,663.855Z" transform="translate(-3268.896 -186.385)" fill="#2d71d3"/>
      <path id="Path_490" data-name="Path 490" d="M3829.635,614.305a8.337,8.337,0,0,0,3.931,2.872,30.244,30.244,0,0,1,5.721,3.006s-4.568-2.555-7.579-2.705S3829.635,614.305,3829.635,614.305Zm-.536-1.186a22.061,22.061,0,0,0-5.219-3.657,37.716,37.716,0,0,1,4.567,4.81Z" transform="translate(-3206.853 -136.368)" fill="#155eb5"/>
      <path id="Path_491" data-name="Path 491" d="M3851.933,656.671l1.673-3.741-.822-5.328a1.322,1.322,0,0,1,.476-1.229l1.661-1.342a1.089,1.089,0,0,1,1.192-.117l2.121,1.116a.689.689,0,0,1,.113,1.145h0a.693.693,0,0,1-.585.138l-2.083-.462-.2.735,1.271,3.29-.268,2.522-.8,7.081Z" transform="translate(-3232.698 -168.914)" fill="#fbbd9d"/>
      <path id="Path_492" data-name="Path 492" d="M3909.741,716.142l2.426-1.369-2.133-1.879Z" transform="translate(-3285.956 -231.658)" fill="#f9b393"/>
      <path id="Path_493" data-name="Path 493" d="M3584.147,976.052l1.1,3.657s1.857,1.7,3.563-1.5.9-3.758.9-3.758l-.335-2.261-3.58,2.311Z" transform="translate(-2985.99 -470.542)" fill="#f9b393"/>
      <path id="Path_494" data-name="Path 494" d="M3581.963,1010.118l-1,1.4,1.154,4.96,2.259,1.954,3.663-9.419-1.405-1.1Z" transform="translate(-2983.054 -503.456)" fill="#f9b393"/>
      <path id="Path_495" data-name="Path 495" d="M3749.06,2196.478l.209,7.357-6.358.085-.677-6.945Z" transform="translate(-3131.632 -1598.463)" fill="#ffba94"/>
      <path id="Path_496" data-name="Path 496" d="M3683.156,2168l1.659,8.225-4.691.962-.258-.814-1.284,1.016-8.909,1.162s-.405-1.708.352-2.16,2.647-1.413,2.647-1.413l3.844-3.425-.084-3.718Zm26.246-9.57,4.518,8.275-4.3,2.189-.557-.738-.859,1.653-8.842,4.078s-.944-1.443-.334-2.176,2.192-2.394,2.192-2.394l2.688-4.875-1.426-3.764Z" transform="translate(-3064.685 -1563.407)" fill="#2a2838"/>
      <path id="Path_497" data-name="Path 497" d="M3639.471,1604.478a14.8,14.8,0,0,0,6.652.116,21.87,21.87,0,0,0,2.682-.651l.963-36.458-9.042-21.928-9.42,4.273s.151,1.112.416,3.031C3633.068,1562.6,3637.331,1593.111,3639.471,1604.478Z" transform="translate(-3029.438 -998.779)" fill="url(#linear-gradient-6)"/>
      <g id="Group_588" data-name="Group 588" transform="translate(601.869 546.778)">
        <path id="Path_498" data-name="Path 498" d="M3646.123,1604.594a21.8,21.8,0,0,0,2.682-.651l.963-36.458-9.042-21.928-9.42,4.274s4.011.954,4.277,2.873C3639.139,1559.836,3646.591,1584.344,3646.123,1604.594Z" transform="translate(-3631.306 -1545.557)" opacity="0.55" fill="url(#linear-gradient-7)" style="mix-blend-mode: multiply;isolation: isolate"/>
      </g>
      <path id="Path_499" data-name="Path 499" d="M3716.508,1481.7l12.864-.427-.6-2.167,2.28,2.112.313-.01s.16.371.452,1.054c1.167,2,4.448,8.226,9.535,22.468h0c4.881,11.608,10.153,24.344,12.271,30.152,0,0-2.7,2.654-8.5,3.84,0,0-23.972-41.514-29.286-49.718Z" transform="translate(-3107.312 -937.561)" fill="url(#linear-gradient-6)"/>
      <path id="Path_500" data-name="Path 500" d="M3874.633,1538.085s3.742,4.728,7.695,15.94,15.619,36.728,15.619,36.728" transform="translate(-3253.611 -991.895)" fill="none" stroke="#cc1950" stroke-miterlimit="10" stroke-width="4.606"/>
      <path id="Path_501" data-name="Path 501" d="M3384.4,1124.525l-.938,14.163c-6.892,10.688-15.257,9.485-15.257,9.485v-22.245s4.752-3.541,6.424-6.814a41.251,41.251,0,0,1,4.752-6.814l4.282,5.746.33,2.89Z" transform="translate(-2787.05 -599.626)" fill="#2a2838"/>
      <path id="Path_502" data-name="Path 502" d="M3575.911,1015.552h1.472l-2.877,19.907-3.346-2.939-4.015-9.619.268-2.872s1.941,3.14,3.614,3.407Z" transform="translate(-2970.326 -510.493)" fill="#f3faff"/>
      <path id="Path_503" data-name="Path 503" d="M3384.4,1225.6l-.938,14.163c-6.892,10.688-15.257,9.485-15.257,9.485v-6.034c9.576-6.06,13.924-15.437,15.787-21.2Z" transform="translate(-2787.05 -700.698)" fill="#191823"/>
      <path id="Path_504" data-name="Path 504" d="M3556.76,865.742s-6.424,3.808-8.733,6.914-6.992,6.513-14.821,6.513-14.488-3.908-17.3-2c0,0-5.721-43.388-2.911-57.417l-2.81-6.513s1.258-1.229,2.547-2.447a28.9,28.9,0,0,1,2.672-2.363s.7,10.421,6.324,15.532c0,0,.97-12.926,1.907-18.838l.016-.018c.113-.12.811-.864,1.75-1.842.348-.361.727-.754,1.122-1.158.348-.355.7-.719,1.066-1.08a38.49,38.49,0,0,1,3.473-3.217s4.417-8.918,5.521-10.12c0,0,7.729,5.511,10.439,13.327,0,0-5.7,16.886-7.564,23.658a3.726,3.726,0,0,0,.251,2.645l4.8,9.77C3550.537,847.906,3554.753,858.327,3556.76,865.742Z" transform="translate(-2917.852 -300.561)" fill="#2a2838"/>
      <path id="Path_505" data-name="Path 505" d="M3711.255,973.52c-.36-.473-6.145-8.13-7.41-12.4a14.462,14.462,0,0,1-.341-1.759c.347-.361.727-.754,1.122-1.158.348-.355.7-.719,1.066-1.08a2.195,2.195,0,0,1-.341,1.293S3705.652,965.514,3711.255,973.52Z" transform="translate(-3095.952 -456.661)" fill="#191823"/>
      <path id="Path_506" data-name="Path 506" d="M3676.349,1010.219s-.333,13.359-2.977,22.612l-1.239-4.676,2.81-20.241Z" transform="translate(-3067.051 -503.456)" fill="#191823"/>
      <path id="Path_507" data-name="Path 507" d="M3556.465,963.791s-.047.192-.123.555c-.591,2.744-.078,12.2-2.353,27.835,0,0-8.566-2.271-11.439-19.147a28.891,28.891,0,0,1,2.672-2.363s.7,10.421,6.323,15.532c0,0,.97-12.926,1.908-18.838l.015-.018Z" transform="translate(-2947.668 -462.807)" fill="#ea2a2a"/>
      <path id="Path_508" data-name="Path 508" d="M3567.9,988.941l-1.606,1.67a5.919,5.919,0,0,0,3.145,4.409A12.593,12.593,0,0,1,3567.9,988.941Zm6.022-3.941a12.475,12.475,0,0,0-3.279,9.753l4.483-7.348Z" transform="translate(-2969.543 -482.346)" fill="#fff"/>
      <path id="Path_509" data-name="Path 509" d="M3589.883,864.946l1.622-2.139,2.757,1.355.595,2.536-.947,2.932-.15.378S3589.449,867.11,3589.883,864.946Z" transform="translate(-2991.247 -369.771)" fill="#fbbd9d"/>
      <path id="Path_510" data-name="Path 510" d="M3547.214,805.454l-1.432-.873a.768.768,0,0,1-.043-.832,2.228,2.228,0,0,1,2.521-1.321,3.649,3.649,0,0,1,2.727-1.222c2.108.2,3.42,1.371,3.474,2.751,0,0,2.721.417,2.482,2.4,0,0,1.859-.148,1.517,2.249s-3.179,5.112-3.179,5.112-1.308-7.362-3.167-7.923A17.264,17.264,0,0,0,3547.214,805.454Z" transform="translate(-2950.518 -313.009)" fill="#4c3116"/>
      <path id="Path_511" data-name="Path 511" d="M3548.824,820.418s-.435-2.826,3.272-2.978c4.9-.2,4.5,2.194,4.5,2.194a3.42,3.42,0,0,1,2.957,3.267c.452,4.1-3.117,6.743-3.117,6.743l-.528-7.05-2.512-.753-2.167.649-2.715-.249Z" transform="translate(-2953.161 -327.965)" fill="#4c3116"/>
      <path id="Path_512" data-name="Path 512" d="M3526.866,852.567s-.291,1.34-.511,3.029c-.062.48-.118.989-.161,1.5-.037.455-.064.914-.073,1.363a6.565,6.565,0,0,0,.547,3.336,2.725,2.725,0,0,0,.965.895,4.9,4.9,0,0,0,3.535.356l.068-.018a6.343,6.343,0,0,0,2.158-1.014,6.709,6.709,0,0,0,1.58-1.62,2.3,2.3,0,0,0,1.506-.6v0a2.669,2.669,0,0,0,.74-1.237c.528-1.764-.667-2.017-1.316-1.517a1,1,0,0,0-.138.127s0-.046-.008-.127c-.073,0-.15.009-.23.018-2.449.293-3.417-3.852-4.075-5.908-.318-.99-.668-1.366-.946-1.491a4.339,4.339,0,0,0-.514.025C3528.348,849.869,3527.533,851.024,3526.866,852.567Z" transform="translate(-2932.528 -357.662)" fill="#ffceb8"/>
      <path id="Path_513" data-name="Path 513" d="M3539.364,858.354a2.674,2.674,0,0,1-.739,1.236l0,0a2.3,2.3,0,0,1-1.505.6,6.721,6.721,0,0,1-1.581,1.62c-2.446,1.769-5.637,1.488-6.725-.219a6.561,6.561,0,0,1-.547-3.337,27.258,27.258,0,0,1,.233-2.866c.22-1.69.511-3.03.511-3.03.667-1.542,1.483-2.7,3.129-2.878h0a4.1,4.1,0,0,1,.513-.024c.278.123.629.5.947,1.49.658,2.055,1.626,6.2,4.074,5.908.08-.009.156-.016.23-.018.006.082.008.127.008.127a1.064,1.064,0,0,1,.139-.128C3538.7,856.336,3539.893,856.59,3539.364,858.354Z" transform="translate(-2934.504 -357.472)" fill="#fbbd9d"/>
      <path id="Path_514" data-name="Path 514" d="M3528.892,929.476a2.136,2.136,0,0,1-.388.676c.025-.823.1-1.678.2-2.468A2.071,2.071,0,0,1,3528.892,929.476Z" transform="translate(-2934.727 -429.542)" fill="#fc9e8b"/>
      <path id="Path_515" data-name="Path 515" d="M3526.9,926.342a2.119,2.119,0,0,1-.571.866c0-.057,0-.114,0-.172.025-.823.1-1.678.2-2.468.01-.076.019-.151.029-.226A2.052,2.052,0,0,1,3526.9,926.342Z" transform="translate(-2932.727 -426.462)" fill="#fc9e8b"/>
      <ellipse id="Ellipse_31" data-name="Ellipse 31" cx="2.032" cy="1.916" rx="2.032" ry="1.916" transform="translate(597.634 501.367) rotate(-70.097)" fill="#fc9e8b"/>
      <path id="Path_516" data-name="Path 516" d="M3535.317,919.591a.491.491,0,0,0,.356.569c.22.022.417-.2.44-.49a.491.491,0,0,0-.356-.57C3535.538,919.078,3535.341,919.3,3535.317,919.591Zm3.551.547a.483.483,0,0,0,.378.55.463.463,0,0,0,.456-.471.484.484,0,0,0-.378-.551A.462.462,0,0,0,3538.868,920.138Z" transform="translate(-2941.001 -421.631)" fill="#263238"/>
      <path id="Path_517" data-name="Path 517" d="M3532.781,900.8c.076.165.695.031,1.437.056.743.01,1.354.175,1.439.014.037-.077-.08-.228-.333-.372a2.505,2.505,0,0,0-2.191-.053C3532.872,900.572,3532.748,900.718,3532.781,900.8Zm-3.371-.77c.039.157.427.157.838.307.416.133.722.37.851.271.059-.049.052-.194-.054-.369a1.146,1.146,0,0,0-.6-.461,1.161,1.161,0,0,0-.76,0C3529.491,899.841,3529.4,899.951,3529.411,900.026Z" transform="translate(-2935.561 -403.766)" fill="#4c3116"/>
      <path id="Path_518" data-name="Path 518" d="M3541.227,931.732l.03.006.4.06a.077.077,0,1,0,.023-.152l-.4-.06a.4.4,0,0,1-.283-.2.642.642,0,0,1-.073-.422l.007-.045c.018-.119.105-.2.194-.191a.452.452,0,0,0,.375-.122.644.644,0,0,0,.2-.382l.095-.642a.081.081,0,0,0-.065-.087.077.077,0,0,0-.088.065l-.095.642a.488.488,0,0,1-.15.291.3.3,0,0,1-.247.084.349.349,0,0,0-.37.32l-.007.045a.8.8,0,0,0,.093.523A.558.558,0,0,0,3541.227,931.732Zm-.008,1.447a3.333,3.333,0,0,1,2.309.183S3541.952,936.442,3541.219,933.179Z" transform="translate(-2946.02 -431.202)" fill="#ff806d"/>
      <path id="Path_519" data-name="Path 519" d="M3555.7,831.269a12.148,12.148,0,0,1,2.652.913c1.546.714.065,5.027.957,5.152a1.172,1.172,0,0,0,1.2-.819l-.256-5.956-5.313-2.869-2.472,2.182S3552.469,831.19,3555.7,831.269Z" transform="translate(-2956.805 -337.418)" fill="#4c3116"/>
      <path id="Path_520" data-name="Path 520" d="M3541.363,818.448l-.046.009a4.858,4.858,0,0,1-3.387-.629s-2.131.261-2.57-1.51a1.987,1.987,0,0,1,.4-1.43.434.434,0,0,0,.186.552s-.137-1.428,1.1-1.551a6.258,6.258,0,0,0,1.96-.324.372.372,0,0,0,.094-.082c-.128.267-.43,1.027.057,1.452a.876.876,0,0,1,.223-.705s.222,2.5,1.564,3.68a1.712,1.712,0,0,1,.4.509Z" transform="translate(-2941.036 -324.329)" fill="#4c3116"/>
      <path id="Path_521" data-name="Path 521" d="M3541.348,819.373l-.031.039a4.858,4.858,0,0,1-3.387-.629s-2.131.261-2.57-1.51a1.986,1.986,0,0,1,.4-1.43.434.434,0,0,0,.186.552s-.137-1.428,1.1-1.552a6.253,6.253,0,0,0,1.96-.324,1.526,1.526,0,0,1-.867.435,1.592,1.592,0,0,0-1.086.495c-.813,1.067.705,2.327.705,2.327a1.23,1.23,0,0,1,.286-.912C3538.092,818.58,3541.348,819.373,3541.348,819.373Z" transform="translate(-2941.036 -325.284)" fill="#35200d"/>
      <path id="Path_522" data-name="Path 522" d="M3627.62,939.664s.134-.889,1.31-.535c1.457.438.212,4.107-2.107,3.615s.08-1.1.08-1.1Z" transform="translate(-3024.376 -440.008)" fill="#fbbd9d"/>
      <path id="Path_523" data-name="Path 523" d="M3638.2,857.029s2.485.967,2.388,2.457a11.463,11.463,0,0,1-.216,1.3,14.205,14.205,0,0,0-.2,2.1,13.561,13.561,0,0,1,.237-3.208C3640.647,858.2,3638.2,857.029,3638.2,857.029Z" transform="translate(-3035.791 -364.448)" fill="#35200d"/>
      <path id="Path_524" data-name="Path 524" d="M3641.208,857s2.583.321,2.715,1.576a8.394,8.394,0,0,1-.016,1.122,10.21,10.21,0,0,0,.12,1.784,9.7,9.7,0,0,1-.255-2.706C3643.782,857.5,3641.208,857,3641.208,857Z" transform="translate(-3038.56 -364.425)" fill="#35200d"/>
      <path id="Path_525" data-name="Path 525" d="M3648.384,959.618a.118.118,0,0,1-.055-.072l-.2-.69,1.014-.381a.118.118,0,0,1,.159.078.142.142,0,0,1-.086.17l-.77.29.127.442a.142.142,0,0,1-.087.17A.12.12,0,0,1,3648.384,959.618Z" transform="translate(-3044.936 -457.901)" fill="#ff806d"/>
      <path id="Path_526" data-name="Path 526" d="M3515.7,1145.4l1.3,12.525S3514.9,1153.215,3515.7,1145.4Z" transform="translate(-2922.765 -630.119)" fill="#191823"/>
      <g id="Group_589" data-name="Group 589" transform="translate(356.276 472.296)" opacity="0.6" style="mix-blend-mode: multiply;isolation: isolate">
        <path id="Path_527" data-name="Path 527" d="M592.772,718.641h-11.3a3.68,3.68,0,0,0-3.905-3.234H543.954a3.68,3.68,0,0,0-3.905,3.234h-6.641a1.732,1.732,0,0,0-1.733,1.73v16.192a1.732,1.732,0,0,0,1.733,1.73h59.364a1.732,1.732,0,0,0,1.733-1.73V720.371A1.732,1.732,0,0,0,592.772,718.641Zm17.71-93.847c0-3.048.078-6.1,0-9.152-.1-4.072-3.873-7.2-8.613-7.269-1.616-.024-3.234-.012-4.852,0v-3.985H524.5v3.984c-1.538-.007-3.076-.017-4.612.006-4.74.071-8.508,3.2-8.613,7.269-.078,3.047,0,6.1,0,9.152v14.231c0,1.031-.026,2.065,0,3.1.076,3.056,2.169,5.583,5.422,6.774l12.027,4.4a33.779,33.779,0,0,0,12.28,11.527l.948,1.954h.006l10.5,21.533.265.545a2.064,2.064,0,0,0-2.164,1.938v.766a2.04,2.04,0,0,0,1.963,1.929l-6.183,21.917h28.83l-.055-.194-6.16-21.721a2.04,2.04,0,0,0,1.995-1.93V690.8a2.063,2.063,0,0,0-2.154-1.938l11.612-23.829h0l.1-.2v0a33.812,33.812,0,0,0,12.209-11.413L605.06,648.9c3.253-1.191,5.346-3.719,5.422-6.774.026-1.031,0-2.065,0-3.1Zm-89.615,20.934c-.66-.242-1.323-.479-1.98-.725a3.618,3.618,0,0,1-2.332-1.9,8.867,8.867,0,0,1-.188-2.859V616.2a5.021,5.021,0,0,1,.086-1.217,3.38,3.38,0,0,1,3.334-2.263c1.571-.03,3.145-.017,4.717-.007V638.73a27,27,0,0,0,1.5,8.879Zm84.34-2.629a3.618,3.618,0,0,1-2.332,1.9c-.658.246-1.32.483-1.98.725l-5.416,1.983a27,27,0,0,0,1.539-8.981V612.714c1.652-.01,3.307-.026,4.957.006a3.38,3.38,0,0,1,3.334,2.263,5.024,5.024,0,0,1,.086,1.217v24.04A8.867,8.867,0,0,1,605.206,643.1Zm-83.781-38.715H600.1a2.63,2.63,0,0,0,0-5.064H521.425a2.29,2.29,0,0,0-1.92,2.532C519.506,603.25,520.365,604.384,521.425,604.384Z" transform="translate(-511.244 -599.319)" fill="#6f87aa"/>
      </g>
      <path id="Path_528" data-name="Path 528" d="M738.749,2115.212h58.1a1.855,1.855,0,0,1,1.855,1.855v15.942a1.855,1.855,0,0,1-1.855,1.855h-58.1a1.855,1.855,0,0,1-1.855-1.855v-15.942a1.855,1.855,0,0,1,1.855-1.854Z" transform="translate(-362.855 -1523.594)" fill="#8e4000"/>
      <path id="Path_529" data-name="Path 529" d="M575.336,714.179c2.145,0,4.293-.032,6.437,0,4.74.071,8.508,3.2,8.613,7.269.078,3.047,0,6.1,0,9.151v14.231c0,1.031.026,2.065,0,3.1-.076,3.056-2.169,5.583-5.422,6.774l-13.643,5a2.9,2.9,0,0,1-3.48-.779,2.022,2.022,0,0,1,.913-2.973l12.046-4.41c.66-.242,1.322-.479,1.98-.725a3.619,3.619,0,0,0,2.332-1.9,8.867,8.867,0,0,0,.188-2.858v-24.04a5.021,5.021,0,0,0-.086-1.217,3.38,3.38,0,0,0-3.334-2.263c-2.178-.042-4.363,0-6.543,0a2.189,2.189,0,1,1,0-4.346Zm-69.1,0c-2.145,0-4.293-.032-6.437,0-4.74.071-8.508,3.2-8.613,7.269-.078,3.047,0,6.1,0,9.151v14.231c0,1.031-.026,2.065,0,3.1.076,3.056,2.169,5.583,5.422,6.774l13.643,5a2.9,2.9,0,0,0,3.48-.779,2.022,2.022,0,0,0-.912-2.973l-12.046-4.41c-.66-.242-1.323-.479-1.98-.725a3.619,3.619,0,0,1-2.332-1.9,8.867,8.867,0,0,1-.188-2.858v-24.04a5.021,5.021,0,0,1,.086-1.217,3.38,3.38,0,0,1,3.334-2.263c2.179-.042,4.363,0,6.543,0A2.189,2.189,0,1,0,506.233,714.179Z" transform="translate(-136.454 -232.829)" fill="#ff8b00"/>
      <path id="Path_530" data-name="Path 530" d="M965.911,1811.458h-28.83l6.183-21.917.148-.525h16.135l.148.527,6.16,21.721Z" transform="translate(-547.285 -1223.075)" fill="#ffcf03"/>
      <path id="Path_531" data-name="Path 531" d="M596.1,601.851h0a2.291,2.291,0,0,0,1.92,2.532h78.672a2.291,2.291,0,0,0,1.92-2.532h0a2.291,2.291,0,0,0-1.92-2.532H598.018A2.291,2.291,0,0,0,596.1,601.851Z" transform="translate(-233.143 -127.023)" fill="#ffec03"/>
      <path id="Path_532" data-name="Path 532" d="M732.115,663.665v34.346c0,10.916-6.565,20.522-16.5,26.1v0h-39.5v0c-9.939-5.574-16.5-15.18-16.5-26.1V663.665Z" transform="translate(-291.648 -186.304)" fill="#ffb600"/>
      <path id="Path_533" data-name="Path 533" d="M699.8,724.106h-23.69v0c-9.939-5.574-16.5-15.18-16.5-26.1V663.665h62.726C726.725,684.693,718.019,711.071,699.8,724.106Z" transform="translate(-291.648 -186.304)" fill="#ffb600" opacity="0.49" style="mix-blend-mode: screen;isolation: isolate"/>
      <path id="Path_534" data-name="Path 534" d="M908.778,1431.514l-.954,1.956-10.758,22.078H880.995l-.265-.545-10.5-21.533-.954-1.954v0Z" transform="translate(-484.815 -893.713)" fill="#ffcf03"/>
      <path id="Path_535" data-name="Path 535" d="M1011.087,1738.778v.708H990.7v-.708a2.064,2.064,0,0,1,2.164-1.937h16.071A2.063,2.063,0,0,1,1011.087,1738.778Z" transform="translate(-596.681 -1175.006)" fill="#ffec03"/>
      <path id="Path_536" data-name="Path 536" d="M1090.12,1462.576l6.16,21.721h-5.974l-4.621-21.714-.042-.2c0-.116,0-.228-.009-.337a5.765,5.765,0,0,0-.25-1.462,4.55,4.55,0,0,0-2.126-2.646,3.269,3.269,0,0,0-.583-.265l-4.027-21.911,22.925-1.653-11.612,23.829a2.062,2.062,0,0,1,2.153,1.938v.766A2.04,2.04,0,0,1,1090.12,1462.576Z" transform="translate(-677.709 -896.107)" fill="#ffb600"/>
      <path id="Path_537" data-name="Path 537" d="M887.919,1770.451v.058a2.04,2.04,0,0,1-1.995,1.93c-.059.005-.119.007-.178.007H869.7c-.07,0-.14,0-.21-.009a2.039,2.039,0,0,1-1.963-1.928v-.058Zm6.612,23.9H860.918a3.66,3.66,0,0,0-3.912,3.342h41.436A3.66,3.66,0,0,0,894.53,1794.354Z" transform="translate(-473.513 -1205.971)" fill="#ff8b00"/>
      <path id="Path_538" data-name="Path 538" d="M908.778,1431.514l-.954,1.956h-37.6l-.948-1.954v0Z" transform="translate(-484.815 -893.713)" fill="#f08300"/>
      <path id="Path_539" data-name="Path 539" d="M689.831,747.875l-2.268-.281-10.5-21.533h-.006l-.947-1.954c-9.939-5.574-16.5-15.18-16.5-26.1V663.665l3.733.005v36.4s2.332,17.2,18.23,23.9l.047.134.676,1.956Z" transform="translate(-291.648 -186.304)" fill="#f9c569" opacity="0.8" style="mix-blend-mode: overlay;isolation: isolate"/>
      <rect id="Rectangle_370" data-name="Rectangle 370" width="49.519" height="15.744" rx="7.872" transform="translate(380.185 593.572)" fill="#bf590d"/>
      <rect id="Rectangle_371" data-name="Rectangle 371" width="207.829" height="4.012" transform="translate(388.582 620.822)" fill="#0e5b9b"/>
      <path id="Path_540" data-name="Path 540" d="M1356.53,1059.547v81.65a8.155,8.155,0,0,1-.7,3.334,7.187,7.187,0,0,1-6.5,4.394H1204.574a6.671,6.671,0,0,1-1.7-.218,6.762,6.762,0,0,1-1.533-.6,7.438,7.438,0,0,1-2.87-2.8,8.1,8.1,0,0,1-1.1-4.1v-81.65a7.481,7.481,0,0,1,7.207-7.728h144.749A7.481,7.481,0,0,1,1356.53,1059.547Z" transform="translate(-787.083 -543.905)" fill="#0e5b9b"/>
      <path id="Path_541" data-name="Path 541" d="M1372.334,1059.547v81.65a8.143,8.143,0,0,1-.865,3.674,7.152,7.152,0,0,1-6.342,4.054H1220.376a6.751,6.751,0,0,1-1.753-.231,6.945,6.945,0,0,1-2.235-1.059,7.613,7.613,0,0,1-2.5-3.07,8.15,8.15,0,0,1-.719-3.368v-81.65a7.481,7.481,0,0,1,7.207-7.728h144.751A7.481,7.481,0,0,1,1372.334,1059.547Z" transform="translate(-801.642 -543.905)" fill="#2d71d3"/>
      <rect id="Rectangle_372" data-name="Rectangle 372" width="148.109" height="84.142" transform="translate(417.03 513.21)" fill="#fff"/>
      <path id="Path_542" data-name="Path 542" d="M1439.328,2100.289H1298.32a2.507,2.507,0,0,1-2.507-2.507h0a2.507,2.507,0,0,1,2.507-2.507h141.008a2.507,2.507,0,0,1,2.507,2.507h0A2.507,2.507,0,0,1,1439.328,2100.289Z" transform="translate(-877.78 -1505.226)" fill="#4a82f4"/>
      <path id="Path_543" data-name="Path 543" d="M1102.912,2233.961a7.153,7.153,0,0,1-6.342,4.054h-96.045l-.038.132H989.732l-.017-.132h-.794l-.071.132H978.094l-.017-.132h-1l-.1.132H966.221l-.017-.132h-1.313l-.142.179-17.987.189-.084-.563.66-.627a7.44,7.44,0,0,1-2.871-2.8l-11.2,9.539-3.3,2.813-8.305,7.076H1129.3Zm-43.062,4.956h17.732l3.328,3.634-.079.563h-18.18l-2.857-3.571Zm-1.512.127,3.116,3.634h-.063l.077.563h-11.1l-.077-.563-2.606-3.634Zm-11.674,0,2.541,3.634h-.063l.077.563h-11.1l-.077-.563-2.032-3.634Zm-11.674,0,1.967,3.634h-.063l.076.563h-11.1l-.076-.563-1.267-3.634Zm-11.611,0,1.393,3.634h-.063l.077.563h-11.674l-.076-.563-.5-3.634Zm-11.482,0,.053.626.065,1.127.126,1.88h-.019l.033.563h-11.674l-.077-.563.838-3.634Zm-22.007,0h10.653l.054.626-1.135,3.571H987.789l-.077-.563Zm-12.057,0H988.87l.053.626-2.092,3.571H975.159l-.076-.563Zm-12.5,0h11.417l.055.626-2.857,3.571H962.273l-.078-.563Zm-19.648,0h18.5l.054.626-3.24,3.571H941.86l-.077-.563Zm-8.99,9.165-.077-.564,3.9-3.633h16.969l.054.627-3.049,3.571Zm19.524,0-.08-.564,3.257-3.633h18.99l.057.627-2,3.571Zm22.2,0-.076-.564,1.986-3.633h56.292l2.159,3.633h-.065l.079.564Zm80.286,0h-17.606l-2.666-3.571.054-.627h17.352l2.943,3.633Zm20.477,0h-18.18l-2.857-3.571.054-.627h17.734l3.326,3.633Zm20.285,0h-17.8l-3.431-3.571.054-.627h17.351l3.9,3.633Zm.637-4.968h-17.8l-3.432-3.571.054-.626h17.351l3.9,3.634Z" transform="translate(-533.084 -1632.996)" fill="#2d71d3"/>
      <path id="Path_544" data-name="Path 544" d="M1132.516,2362.276l-3.048,3.571h-17.8l-.077-.564,3.9-3.634h16.969Z" transform="translate(-708.061 -1750.633)" fill="#2d71d3"/>
      <path id="Path_545" data-name="Path 545" d="M1199.636,2298.546l.053.627-3.24,3.57h-19.137l-.077-.563,3.9-3.634Z" transform="translate(-768.537 -1692.497)" fill="#2d71d3"/>
      <path id="Path_546" data-name="Path 546" d="M1451.1,2298.546l.055.627-2.857,3.57h-11.673l-.078-.563,3.137-3.634Z" transform="translate(-1007.44 -1692.497)" fill="#2d71d3"/>
      <path id="Path_547" data-name="Path 547" d="M1381.882,2362.276l-2,3.571h-20.226l-.08-.564,3.257-3.634h18.99Z" transform="translate(-936.526 -1750.633)" fill="#2d71d3"/>
      <path id="Path_548" data-name="Path 548" d="M1614.057,2298.546l.054.627-2.091,3.57h-11.674l-.077-.563,2.752-3.634Z" transform="translate(-1158.271 -1692.497)" fill="#2d71d3"/>
      <path id="Path_549" data-name="Path 549" d="M1773.56,2298.546l.053.627-1.135,3.57h-11.673l-.077-.563,2.178-3.634Z" transform="translate(-1306.101 -1692.497)" fill="#2d71d3"/>
      <path id="Path_550" data-name="Path 550" d="M1933.729,2302.179h-.019l.032.563h-11.673l-.077-.563.838-3.634h10.654l.054.627.065,1.127Z" transform="translate(-1454.67 -1692.497)" fill="#2d71d3"/>
      <path id="Path_551" data-name="Path 551" d="M2086.928,2298.546l1.393,3.634h-.064l.076.563h-11.673l-.077-.563-.5-3.634Z" transform="translate(-1596.632 -1692.497)" fill="#2d71d3"/>
      <path id="Path_552" data-name="Path 552" d="M2238.91,2298.546l1.967,3.634h-.063l.077.563h-11.1l-.076-.563-1.267-3.634Z" transform="translate(-1737.003 -1692.497)" fill="#2d71d3"/>
      <path id="Path_553" data-name="Path 553" d="M1701.972,2365.283l.078.564h-60.374l-.077-.564,1.987-3.634h56.292l2.158,3.634Z" transform="translate(-1196.349 -1750.633)" fill="#2d71d3"/>
      <path id="Path_554" data-name="Path 554" d="M2384.974,2298.546l2.542,3.634h-.063l.077.563h-11.1l-.077-.563-2.032-3.634Z" transform="translate(-1871.394 -1692.497)" fill="#2d71d3"/>
      <path id="Path_555" data-name="Path 555" d="M2422.408,2361.649l2.944,3.634-.077.564h-17.606l-2.666-3.571.054-.627Z" transform="translate(-1899.661 -1750.633)" fill="#2d71d3"/>
      <path id="Path_556" data-name="Path 556" d="M2533.279,2298.546l3.115,3.634h-.063l.076.563h-11.1l-.077-.563-2.606-3.634Z" transform="translate(-2008.025 -1692.497)" fill="#2d71d3"/>
      <path id="Path_557" data-name="Path 557" d="M2673.207,2361.649l3.326,3.634-.077.564h-18.18l-2.857-3.571.053-.627Z" transform="translate(-2130.366 -1750.633)" fill="#2d71d3"/>
      <path id="Path_558" data-name="Path 558" d="M2679.329,2301.117l-2.857-3.571.055-.627h17.732l3.328,3.634-.079.564Z" transform="translate(-2149.762 -1690.999)" fill="#2d71d3"/>
      <path id="Path_559" data-name="Path 559" d="M2928.1,2361.649l3.9,3.634-.076.564h-17.8l-3.431-3.571.053-.627Z" transform="translate(-2365.55 -1750.633)" fill="#2d71d3"/>
      <path id="Path_560" data-name="Path 560" d="M2936.2,2298.546l3.9,3.634-.077.563h-17.8l-3.431-3.57.054-.627Z" transform="translate(-2373.009 -1692.497)" fill="#2d71d3"/>
      <path id="Path_561" data-name="Path 561" d="M1369.79,2229.98a7.152,7.152,0,0,1-6.342,4.054H1267.4l-.038.132H1256.61l-.018-.132h-.794l-.071.132h-10.755l-.017-.132h-1l-.1.132H1233.1l-.017-.132h-1.313l-.141.179-17.987.189-.084-.564.66-.626a7.439,7.439,0,0,1-2.87-2.8l.863-.736.04-.034h157.089Z" transform="translate(-799.962 -1629.015)" fill="#2d71d3"/>
      <path id="Path_562" data-name="Path 562" d="M1260.258,2234.058l-2.779,3.662h-.063l-14.6.153-1.194.014-2.193.022.66-.626.492-.468,2.712-2.579Z" transform="translate(-825.832 -1633.085)" fill="#3f8fef"/>
      <path id="Path_563" data-name="Path 563" d="M1257.5,2281.148l-17.987.189-.084-.564,2.193-.023,1.194-.013,14.6-.153.056.384Z" transform="translate(-825.832 -1675.949)" fill="#338ae2"/>
      <path id="Path_564" data-name="Path 564" d="M1470.865,2234.682l-2.679,3.422-.142.179-.026-.179-.056-.384,2.842-3.662Z" transform="translate(-1036.378 -1633.085)" fill="#338ae2"/>
      <path id="Path_565" data-name="Path 565" d="M1199.636,2298.546l-3.2,3.634h-19.2l3.9-3.634Z" transform="translate(-768.537 -1692.497)" fill="#3f8fef"/>
      <path id="Path_566" data-name="Path 566" d="M1196.449,2345.272h-19.137l-.077-.564h19.137Z" transform="translate(-768.537 -1735.026)" fill="#338ae2"/>
      <path id="Path_567" data-name="Path 567" d="M1423.675,2299.172l-3.24,3.57-.077-.563,3.263-3.634Z" transform="translate(-992.522 -1692.497)" fill="#338ae2"/>
      <path id="Path_568" data-name="Path 568" d="M1451.1,2298.546l-2.815,3.634h-11.739l3.137-3.634Z" transform="translate(-1007.44 -1692.497)" fill="#3f8fef"/>
      <path id="Path_569" data-name="Path 569" d="M1448.3,2345.272h-11.673l-.078-.564h11.674Z" transform="translate(-1007.44 -1735.026)" fill="#338ae2"/>
      <path id="Path_570" data-name="Path 570" d="M1587.79,2299.172l-2.857,3.57-.079-.563,2.88-3.634Z" transform="translate(-1144.07 -1692.497)" fill="#338ae2"/>
      <path id="Path_571" data-name="Path 571" d="M1614.057,2298.546l-2.051,3.634h-11.737l2.752-3.634Z" transform="translate(-1158.271 -1692.497)" fill="#3f8fef"/>
      <path id="Path_572" data-name="Path 572" d="M1612.019,2345.272h-11.674l-.077-.564h11.674Z" transform="translate(-1158.271 -1735.026)" fill="#338ae2"/>
      <path id="Path_573" data-name="Path 573" d="M1750.741,2299.172l-2.092,3.57-.077-.563,2.115-3.634Z" transform="translate(-1294.901 -1692.497)" fill="#338ae2"/>
      <path id="Path_574" data-name="Path 574" d="M1773.56,2298.546l-1.095,3.634h-11.737l2.178-3.634Z" transform="translate(-1306.101 -1692.497)" fill="#3f8fef"/>
      <path id="Path_575" data-name="Path 575" d="M1772.479,2345.272h-11.673l-.077-.564H1772.4Z" transform="translate(-1306.101 -1735.026)" fill="#338ae2"/>
      <path id="Path_576" data-name="Path 576" d="M1910.245,2299.172l-1.135,3.57-.077-.563,1.158-3.634Z" transform="translate(-1442.732 -1692.497)" fill="#338ae2"/>
      <path id="Path_577" data-name="Path 577" d="M1489.69,2233.815h10.52l-2.595,3.634H1486.8Z" transform="translate(-1053.735 -1632.861)" fill="#3f8fef"/>
      <path id="Path_578" data-name="Path 578" d="M1497.63,2280.541h-10.755l-.017-.132-.054-.432h10.755l.054.432Z" transform="translate(-1053.737 -1675.39)" fill="#338ae2"/>
      <path id="Path_579" data-name="Path 579" d="M1626.142,2234.441l-2.535,3.439-.1.132-.017-.132-.054-.431,2.654-3.634Z" transform="translate(-1179.616 -1632.861)" fill="#338ae2"/>
      <path id="Path_580" data-name="Path 580" d="M1640.163,2233.815h10.168l-1.89,3.634h-10.814Z" transform="translate(-1192.688 -1632.861)" fill="#3f8fef"/>
      <path id="Path_581" data-name="Path 581" d="M1648.463,2280.541h-10.755l-.017-.132-.053-.432h10.755l.054.432Z" transform="translate(-1192.698 -1675.39)" fill="#338ae2"/>
      <path id="Path_582" data-name="Path 582" d="M1776.269,2234.441l-1.856,3.439-.07.132-.017-.132-.054-.431,1.948-3.634Z" transform="translate(-1318.577 -1632.861)" fill="#338ae2"/>
      <path id="Path_583" data-name="Path 583" d="M1787.473,2233.815h9.815l-1.008,3.634h-10.814Z" transform="translate(-1328.89 -1632.861)" fill="#3f8fef"/>
      <path id="Path_584" data-name="Path 584" d="M1796.282,2280.541h-10.755l-.017-.132-.055-.432h10.757l.054.432Z" transform="translate(-1328.88 -1675.39)" fill="#338ae2"/>
      <path id="Path_585" data-name="Path 585" d="M1923.229,2234.441l-1.006,3.439-.038.132-.017-.132-.054-.431,1.066-3.634Z" transform="translate(-1454.782 -1632.861)" fill="#338ae2"/>
      <path id="Path_586" data-name="Path 586" d="M1933.729,2302.179h-11.737l.838-3.634h10.654l.119,1.754Z" transform="translate(-1454.67 -1692.497)" fill="#3f8fef"/>
      <path id="Path_587" data-name="Path 587" d="M1933.742,2345.272h-11.673l-.077-.564h11.674Z" transform="translate(-1454.67 -1735.026)" fill="#338ae2"/>
      <path id="Path_588" data-name="Path 588" d="M2068.245,2302.743l-.076-.563-.182-3.634.054.627.065,1.127.108,1.88Z" transform="translate(-1589.173 -1692.497)" fill="#338ae2"/>
      <path id="Path_589" data-name="Path 589" d="M2088.321,2302.179h-11.737l-.5-3.634h10.845Z" transform="translate(-1596.632 -1692.497)" fill="#3f8fef"/>
      <path id="Path_590" data-name="Path 590" d="M2094.2,2345.272h-11.673l-.076-.564h11.673Z" transform="translate(-1602.5 -1735.026)" fill="#338ae2"/>
      <path id="Path_591" data-name="Path 591" d="M2215.266,2302.743l-.215-.563-1.138-3.007-.054-.627,1.33,3.634Z" transform="translate(-1723.564 -1692.497)" fill="#338ae2"/>
      <path id="Path_592" data-name="Path 592" d="M2240.877,2302.179h-11.162l-1.267-3.634h10.462Z" transform="translate(-1737.003 -1692.497)" fill="#3f8fef"/>
      <path id="Path_593" data-name="Path 593" d="M2255.718,2345.272h-11.1l-.077-.564h11.1Z" transform="translate(-1751.831 -1735.026)" fill="#338ae2"/>
      <path id="Path_594" data-name="Path 594" d="M2363.343,2302.743l-.3-.563-1.623-3.007-.053-.627,1.9,3.634Z" transform="translate(-1859.455 -1692.497)" fill="#338ae2"/>
      <path id="Path_595" data-name="Path 595" d="M2387.516,2302.179h-11.163l-2.032-3.634h10.653Z" transform="translate(-1871.394 -1692.497)" fill="#3f8fef"/>
      <path id="Path_596" data-name="Path 596" d="M2411.316,2345.272h-11.1l-.077-.564h11.1Z" transform="translate(-1895.181 -1735.026)" fill="#338ae2"/>
      <path id="Path_597" data-name="Path 597" d="M2512.221,2302.743l-.394-.563-2.107-3.007-.054-.627,2.478,3.634Z" transform="translate(-1996.087 -1692.497)" fill="#338ae2"/>
      <path id="Path_598" data-name="Path 598" d="M2536.394,2302.179h-11.163l-2.606-3.634h10.654Z" transform="translate(-2008.025 -1692.497)" fill="#3f8fef"/>
      <path id="Path_599" data-name="Path 599" d="M2566.915,2345.272h-11.1l-.076-.564h11.1Z" transform="translate(-2038.532 -1735.026)" fill="#338ae2"/>
      <path id="Path_600" data-name="Path 600" d="M2661.1,2302.743l-.486-.563-2.59-3.007-.053-.627,3.052,3.634Z" transform="translate(-2132.717 -1692.497)" fill="#338ae2"/>
      <path id="Path_601" data-name="Path 601" d="M1132.462,2361.649l-3.008,3.634h-17.861l3.9-3.634Z" transform="translate(-708.061 -1750.633)" fill="#3f8fef"/>
      <path id="Path_602" data-name="Path 602" d="M1129.467,2408.376h-17.8l-.077-.564h17.8Z" transform="translate(-708.061 -1793.163)" fill="#338ae2"/>
      <path id="Path_603" data-name="Path 603" d="M1340.822,2362.276l-3.049,3.571-.077-.564,3.072-3.634Z" transform="translate(-916.367 -1750.633)" fill="#338ae2"/>
      <path id="Path_604" data-name="Path 604" d="M1381.825,2361.649l-1.956,3.634h-20.291l3.257-3.634Z" transform="translate(-936.526 -1750.633)" fill="#3f8fef"/>
      <path id="Path_605" data-name="Path 605" d="M1379.884,2408.376h-20.226l-.08-.564H1379.8Z" transform="translate(-936.526 -1793.163)" fill="#338ae2"/>
      <path id="Path_606" data-name="Path 606" d="M1618.612,2362.276l-2,3.571-.081-.564,2.021-3.634Z" transform="translate(-1173.255 -1750.633)" fill="#338ae2"/>
      <path id="Path_607" data-name="Path 607" d="M2932.629,2365.283h-17.861l-3.391-3.634h17.351Z" transform="translate(-2366.178 -1750.633)" fill="#3f8fef"/>
      <path id="Path_608" data-name="Path 608" d="M2972.163,2407.813l-.077.564h-17.8l.077-.564Z" transform="translate(-2405.711 -1793.163)" fill="#338ae2"/>
      <path id="Path_609" data-name="Path 609" d="M2914.2,2365.283l-.076.564-3.431-3.571.053-.627Z" transform="translate(-2365.55 -1750.633)" fill="#338ae2"/>
      <path id="Path_610" data-name="Path 610" d="M2940.724,2302.179h-17.861l-3.391-3.634h17.352Z" transform="translate(-2373.635 -1692.497)" fill="#3f8fef"/>
      <path id="Path_611" data-name="Path 611" d="M2980.258,2344.709l-.077.564h-17.8l.076-.564Z" transform="translate(-2413.169 -1735.026)" fill="#338ae2"/>
      <path id="Path_612" data-name="Path 612" d="M2922.3,2302.179l-.077.563-3.431-3.57.054-.627Z" transform="translate(-2373.009 -1692.497)" fill="#338ae2"/>
      <path id="Path_613" data-name="Path 613" d="M2677.159,2365.283h-18.243l-2.817-3.634h17.734Z" transform="translate(-2130.992 -1750.633)" fill="#3f8fef"/>
      <path id="Path_614" data-name="Path 614" d="M2709.973,2407.813l-.076.564h-18.18l.077-.564Z" transform="translate(-2163.807 -1793.163)" fill="#338ae2"/>
      <path id="Path_615" data-name="Path 615" d="M2658.353,2365.283l-.077.564-2.857-3.571.053-.627Z" transform="translate(-2130.366 -1750.633)" fill="#338ae2"/>
      <path id="Path_616" data-name="Path 616" d="M2698.238,2300.553h-18.246l-2.815-3.634h17.732Z" transform="translate(-2150.412 -1690.999)" fill="#3f8fef"/>
      <path id="Path_617" data-name="Path 617" d="M2731.029,2343.083l-.078.563h-18.18l.078-.563Z" transform="translate(-2183.204 -1733.528)" fill="#338ae2"/>
      <path id="Path_618" data-name="Path 618" d="M2679.408,2300.553l-.079.564-2.857-3.571.055-.627Z" transform="translate(-2149.762 -1690.999)" fill="#338ae2"/>
      <path id="Path_619" data-name="Path 619" d="M2425.978,2365.283H2408.31l-2.626-3.634h17.351Z" transform="translate(-1900.289 -1750.633)" fill="#3f8fef"/>
      <path id="Path_620" data-name="Path 620" d="M2456.552,2407.813l-.076.564H2438.87l.076-.564Z" transform="translate(-1930.862 -1793.163)" fill="#338ae2"/>
      <path id="Path_621" data-name="Path 621" d="M2407.745,2365.283l-.076.564-2.666-3.571.054-.627Z" transform="translate(-1899.661 -1750.633)" fill="#338ae2"/>
      <path id="Path_622" data-name="Path 622" d="M1702.037,2365.283H1641.6l1.987-3.634h56.292Z" transform="translate(-1196.349 -1750.633)" fill="#3f8fef"/>
      <path id="Path_623" data-name="Path 623" d="M1702.05,2408.376h-60.374l-.077-.564h60.372Z" transform="translate(-1196.349 -1793.163)" fill="#338ae2"/>
      <path id="Path_624" data-name="Path 624" d="M2384.151,2365.847l-.335-.564-1.784-3.007-.054-.627,2.094,3.634Z" transform="translate(-1878.449 -1750.633)" fill="#338ae2"/>
      <rect id="Rectangle_373" data-name="Rectangle 373" width="134.458" height="69.038" transform="translate(421.894 518.202)" fill="#d2e2ff"/>
      <path id="Path_625" data-name="Path 625" d="M1678.338,1175.6h45.939a2.993,2.993,0,0,1,2.993,2.993h0a2.993,2.993,0,0,1-2.993,2.993h-45.939a2.993,2.993,0,0,1-2.993-2.993h0A2.993,2.993,0,0,1,1678.338,1175.6Z" transform="translate(-1227.437 -657.943)" fill="#4a82f4"/>
      <rect id="Rectangle_374" data-name="Rectangle 374" width="48.804" height="56.746" rx="24.402" transform="translate(489.016 527.189)" fill="#39a1ff"/>
      <path id="Path_626" data-name="Path 626" d="M1476.762,1332.382l-7.995-9.4,35.029-12.129,19.3,27.881-14.516,5.566Z" transform="translate(-1037.12 -782.55)" fill="#1d1d3a"/>
      <path id="Path_627" data-name="Path 627" d="M1468.767,1306.39l1.052-1.575,34.082-11.972-.105,1.418Z" transform="translate(-1037.12 -765.957)" fill="#195193"/>
      <path id="Path_628" data-name="Path 628" d="M1913.889,1292.843l-.1,1.418,19.3,27.881.316-1.208Z" transform="translate(-1447.108 -765.957)" fill="#003472"/>
      <path id="Path_629" data-name="Path 629" d="M1548.214,1493.748a20.71,20.71,0,0,1-16.038,20.193h0a20.789,20.789,0,0,1-25.5-20.193c0-.028,0-.055,0-.083q0-.611.04-1.213a20.747,20.747,0,0,1,14.343-18.439l.252-.08a20.551,20.551,0,0,1,3.306-.729,20.744,20.744,0,0,1,23.6,20.543Z" transform="translate(-1072.044 -931.942)" fill="#3de2da"/>
      <path id="Path_630" data-name="Path 630" d="M1595.368,1498.956a8.151,8.151,0,0,1-1.63,4.633,13.608,13.608,0,0,1-3.1,3.154,14.384,14.384,0,0,1-1.808,1.14c-3.046,1.614-6.217,1.837-8.144.569a3.841,3.841,0,0,1-.991-.932c-1.931-2.606-.162-7.181,3.951-10.217q.235-.173.472-.334c3.233-2.2,6.854-2.769,9.108-1.593a4.091,4.091,0,0,1,.818.558,3.776,3.776,0,0,1,.544.592,3.929,3.929,0,0,1,.707,1.666A4.752,4.752,0,0,1,1595.368,1498.956Z" transform="translate(-1138.594 -951.996)" fill="#1ddbd6" opacity="0.79" style="mix-blend-mode: overlay;isolation: isolate"/>
      <path id="Path_631" data-name="Path 631" d="M1528.35,1493.242l-.936.648a.9.9,0,0,0-1.063.847c-.128,1.017.44,1.376-.312,1.77s-1.091-.229-1.474.38a7.3,7.3,0,0,0-.553,1.031,1.2,1.2,0,0,1-.255.974c-.383.515-.6.346-.723.982s-.553.765.127,1.4,1.234,1.274,1.234,1.274a9.422,9.422,0,0,1-.17.976c-.085.3,1.488.382.51,1.189a5,5,0,0,1-2.255,1.065c-.255.039.043-.862-.808.225s-1.063,1.426-1.276,1.406-.383-.516-.808-.545-2.382-.623-2.382-.623-.085-1.071-1.829-.239-1.616-.059-2.552.451a5.5,5.5,0,0,0-1.616,1.489,4.982,4.982,0,0,1-1.446-.534c-.3-.275-.893-.615-1.021-.87s-1.191-1.7-1.191-1.7l-.353-1.573a20.75,20.75,0,0,1,14.6-18.519l.134.177a1.223,1.223,0,0,0,.468,1.274c.681.467,1.574.085,1.616,1.146s-.17,1.317.255,1.529.581.085.95.467.113.29.326.7-.255-.612,1.617.789S1528.35,1493.242,1528.35,1493.242Z" transform="translate(-1072.526 -942.757)" fill="#057047"/>
      <path id="Path_632" data-name="Path 632" d="M1528.645,1494.177l-.936.648a.9.9,0,0,0-1.063.847c-.128,1.018.44,1.376-.312,1.77s-1.092-.229-1.474.38a7.247,7.247,0,0,0-.553,1.031,1.2,1.2,0,0,1-.255.973c-.383.516-.6.346-.723.983s-.553.764.128,1.4,1.233,1.274,1.233,1.274a9.413,9.413,0,0,1-.17.977c-.085.3,1.489.382.511,1.189a5,5,0,0,1-2.254,1.065c-.255.039.042-.862-.808.225s-1.063,1.426-1.276,1.405-.383-.516-.808-.544-2.382-.623-2.382-.623-.085-1.071-1.829-.239-1.616-.058-2.552.451a5.5,5.5,0,0,0-1.616,1.489,4.968,4.968,0,0,1-1.446-.535c-.3-.275-.893-.615-1.021-.87s-1.191-1.7-1.191-1.7l-.081-.361c0-.408.015-.811.04-1.213a20.748,20.748,0,0,1,14.344-18.439l.074.1a1.223,1.223,0,0,0,.468,1.274c.681.467,1.574.085,1.616,1.146s-.17,1.316.255,1.529.581.085.95.467.113.29.326.7-.255-.612,1.616.789S1528.645,1494.177,1528.645,1494.177Z" transform="translate(-1073.049 -943.692)" fill="#0d9161"/>
      <path id="Path_633" data-name="Path 633" d="M1741.171,1475.6c-.426,1.189.936,1.316,0,2.505a1.9,1.9,0,0,1-2.935,0c-.425-.637-.638-.807-1.878-1.4s-.886-1.019-.886-1.019-.085-.764-1.446-1.231a1.688,1.688,0,0,1-1.039-.864,20.941,20.941,0,0,1,9.053.757A2.122,2.122,0,0,0,1741.171,1475.6Z" transform="translate(-1280.541 -932.303)" fill="#057047"/>
      <path id="Path_634" data-name="Path 634" d="M1730.894,1475.266c-.425,1.189.936,1.316,0,2.505a1.9,1.9,0,0,1-2.935,0c-.425-.637-.638-.807-1.878-1.4s-.886-1.019-.886-1.019-.085-.764-1.446-1.231a1.691,1.691,0,0,1-1.039-.864,20.942,20.942,0,0,1,9.054.758A2.12,2.12,0,0,0,1730.894,1475.266Zm14.859,23.307a20.78,20.78,0,0,1-15.484,15.419h0l-1.517-.213s-3.233.552-3.828-.679-.425-1.571-.808-2.038-2.765-.594-2.382-2.208.936-.976,1.276-2.887-.071-2.444.624-2.984.951.126,1.588-.7.948-1.23,1.2-1.62.377-.6,1.61-.9,2.3-.369,2.68-1.416.285-1.651.907-1.645.823-.039,1.085-.294.019-1.826,1.182-2.123,1.717.127,2.482-.807a6.15,6.15,0,0,0,1.021-1.4,4.346,4.346,0,0,1,.638-1.571c.766-1.316.978-1.7,1.446-1.826s.6,0,1.191,0a3.052,3.052,0,0,0,1.446-.281c.51-.228.6-.792.936-.277a10.419,10.419,0,0,1,.978,1.7,1.886,1.886,0,0,1,0,1.032l-.425.879s.553.51.808.722,1.106-.382.468.934-1.43,1.613-1.48,2.208a1.761,1.761,0,0,0,.247,1.04l.808.536,1.063.8Zm-1.9-14.564c-.175.067-.362.113-.534.171a1.149,1.149,0,0,1-.3.07,2.174,2.174,0,0,0-.447.094,1.7,1.7,0,0,1-.475.131.327.327,0,0,0-.239.062,3,3,0,0,1-.3.322,1.315,1.315,0,0,1-.6.388,2.366,2.366,0,0,1-.876.1c-.207-.013-.366-.122-.574-.131a4.409,4.409,0,0,1-2-.308c-.257-.138-.395-.391-.634-.549a2.541,2.541,0,0,1-.7-.515c-.081-.115-.049-.158-.057-.288a1.408,1.408,0,0,0-.187-.491c-.158-.317-.432-.555-.573-.879-.088-.2-.077-.422-.161-.62a3.74,3.74,0,0,0-.4-.594,6.548,6.548,0,0,0-.36-.6c-.1-.12-.234-.211-.336-.329a1.673,1.673,0,0,1-.384-.72c-.024-.115.015-.242-.005-.348s.013-.069-.149-.135c-.239-.1-.471-.182-.7-.3a1.723,1.723,0,0,1-.636-.471.771.771,0,0,1,0-.533c.062-.279.216-.536.265-.815a1.366,1.366,0,0,1,.72-.863,2.044,2.044,0,0,0,.378-.208,5.144,5.144,0,0,0,.356-.407.522.522,0,0,0,.12-.148.5.5,0,0,0,.029-.2A20.839,20.839,0,0,1,1743.849,1484.009Z" transform="translate(-1270.136 -931.993)" fill="#0d9161"/>
      <path id="Path_635" data-name="Path 635" d="M1548.214,1560.534a20.71,20.71,0,0,1-16.038,20.193h0a20.79,20.79,0,0,1-25.5-20.185,20.831,20.831,0,0,0,19.035,5.161h0a20.711,20.711,0,0,0,16.038-20.193v-.008A20.679,20.679,0,0,1,1548.214,1560.534Z" transform="translate(-1072.044 -998.728)" fill="#1ddbd6" opacity="0.54" style="mix-blend-mode: multiply;isolation: isolate"/>
      <path id="Path_636" data-name="Path 636" d="M1617.639,1452.052s16.968,3.362,32.18,11.638l.4-5a4.07,4.07,0,0,0-1.626-3.592l-2.525-1.882c-4.333-3.1-11.433-5.461-17.2-6.31l-3.363-.258a6.743,6.743,0,0,0-5.989,2.782Z" transform="translate(-1174.274 -907.641)" fill="#003472"/>
      <path id="Path_637" data-name="Path 637" d="M1432.925,1486.208l-2.37.024s-.014.062-.036.16c-.884,1.733-3.355,9.9-2.7,16.37a.21.21,0,0,0,.186.2.233.233,0,0,0,.161-.259c-.482-4.766.841-10.789,1.891-14.061-.869,4.425-2.432,13.577-.938,15.57.094.126.369.169.719.168a20.248,20.248,0,0,1,.319-4.563,36.214,36.214,0,0,0,.175,4.532c1.279-.134,3.113-.683,3.4-1.076.939-1.311.771-5.391.355-9.233a34.821,34.821,0,0,1,1.088,8.732c0,.126.085.227.18.225s.17-.111.171-.237C1435.584,1496.021,1432.925,1486.208,1432.925,1486.208Z" transform="translate(-999.294 -944.102)" fill="#ffb600"/>
      <path id="Path_638" data-name="Path 638" d="M1463.24,1456.349l-2.907-.135.088-1.893a1.456,1.456,0,0,1,2.907.147Z" transform="translate(-1029.35 -913.451)"/>
      <path id="Path_639" data-name="Path 639" d="M2256.633,1046.011s3.172,16.187.861,51.293a124.9,124.9,0,0,0,1.393,29.843,41.472,41.472,0,0,0,13.368,23.977c2.654,2.331,5.539,4.247,8.282,4.83,8.532,1.814.9-94.087.9-94.087l-16.483-15.282Z" transform="translate(-1762.97 -538.554)" fill="#c2d6ff" style="mix-blend-mode: multiply;isolation: isolate"/>
      <path id="Path_640" data-name="Path 640" d="M2168.45,995.277a9.323,9.323,0,0,0-5.646,4.3h10.621S2174.382,994.512,2168.45,995.277Z" transform="translate(-1676.527 -491.741)" fill="#eddabc"/>
      <path id="Path_641" data-name="Path 641" d="M2234.525,991.724s5.359-1.146,6.124,13.755-6.507,89.41,19.52,100.108h103.723s-25.644-7.642-31.767-36.3,3.993-54.484-10.334-77.947Z" transform="translate(-1742.603 -488.188)" fill="#f4e9d5"/>
      <path id="Path_642" data-name="Path 642" d="M2329.915,1128.838c-8.314-3.7-13.841-15.632-16.432-35.472-2.271-17.387-1.789-37.069-1.471-50.092.135-5.5.241-9.847.105-12.488-.256-4.99-1.053-8.854-2.37-11.5l80.111-.351c7.641,13.252,7.446,27.557,7.241,42.68-.146,10.739-.3,21.844,2.2,33.547a50.828,50.828,0,0,0,18.982,30.163,54.457,54.457,0,0,0,5.192,3.517Z" transform="translate(-1811.903 -513.605)" fill="none" stroke="#fffefd" stroke-miterlimit="10" stroke-width="8.106"/>
      <path id="Path_643" data-name="Path 643" d="M2404.659,1159.464a3.686,3.686,0,0,1-1.42-1.617,6.347,6.347,0,0,1,0-4.922,3.693,3.693,0,0,1,1.42-1.611,4.353,4.353,0,0,1,4.826.359.945.945,0,0,1,.248.308.917.917,0,0,1,.071.385.946.946,0,0,1-.172.571.5.5,0,0,1-.419.238.861.861,0,0,1-.29-.045,1.1,1.1,0,0,1-.278-.16,3.878,3.878,0,0,0-.876-.481,2.493,2.493,0,0,0-.863-.147,2,2,0,0,0-1.709.763,3.764,3.764,0,0,0-.574,2.279q0,3.055,2.283,3.054a2.313,2.313,0,0,0,.828-.148,5.081,5.081,0,0,0,.911-.481,1.653,1.653,0,0,1,.3-.161.769.769,0,0,1,.273-.045.5.5,0,0,1,.419.237.946.946,0,0,1,.172.571.906.906,0,0,1-.077.391.936.936,0,0,1-.242.3,4.354,4.354,0,0,1-4.826.359Zm6.564.205a.987.987,0,0,1-.225-.693V1151.8a.988.988,0,0,1,.225-.693.824.824,0,0,1,.638-.244h4.187q.875,0,.875.77t-.875.783H2412.8v2.118h3.016q.875,0,.875.783t-.875.77H2412.8v2.272h3.253q.875,0,.875.783t-.875.77h-4.187A.824.824,0,0,1,2411.223,1159.67Zm13.8-.475a.747.747,0,0,1-.267.59.915.915,0,0,1-1.413-.244l-1.562-2.516a1.47,1.47,0,0,0-.426-.481,1.013,1.013,0,0,0-.568-.148h-.958v2.593a1.053,1.053,0,0,1-.243.732.839.839,0,0,1-.656.27.872.872,0,0,1-.675-.27,1.039,1.039,0,0,1-.248-.732V1151.8a.989.989,0,0,1,.224-.693.826.826,0,0,1,.639-.244h2.969a3.144,3.144,0,0,1,2.218.7,2.631,2.631,0,0,1,.751,2.021,2.763,2.763,0,0,1-.532,1.733,2.518,2.518,0,0,1-1.5.911,1.5,1.5,0,0,1,.633.3,2.531,2.531,0,0,1,.538.648l.9,1.463A1.04,1.04,0,0,1,2425.026,1159.195Zm-2.307-4.614a1.44,1.44,0,0,0,0-1.893,1.79,1.79,0,0,0-1.147-.3h-1.762v2.49h1.762A1.761,1.761,0,0,0,2422.719,1154.581Zm5.53,5.127a1,1,0,0,1-.255-.719v-6.495h-1.916q-.876,0-.875-.821t.875-.808h5.677q.875,0,.875.808t-.875.821h-1.916v6.495a1.019,1.019,0,0,1-.248.719A.971.971,0,0,1,2428.249,1159.708Zm5.423.013a1.037,1.037,0,0,1-.249-.732v-7.2a1.021,1.021,0,0,1,.249-.719.977.977,0,0,1,1.348,0,1.019,1.019,0,0,1,.249.719v7.2a1.036,1.036,0,0,1-.249.732A.977.977,0,0,1,2433.672,1159.721Zm3.507-.007a1.024,1.024,0,0,1-.254-.725V1151.8a.986.986,0,0,1,.225-.693.825.825,0,0,1,.639-.244h4.069a.965.965,0,0,1,.662.193.774.774,0,0,1,.213.6.756.756,0,0,1-.213.59.965.965,0,0,1-.662.193h-3.111v2.079h2.874a.967.967,0,0,1,.663.193.778.778,0,0,1,.213.6.759.759,0,0,1-.213.59.966.966,0,0,1-.663.192h-2.874v2.888a1.055,1.055,0,0,1-.242.732.84.84,0,0,1-.657.27A.866.866,0,0,1,2437.179,1159.714Zm6.759.007a1.038,1.038,0,0,1-.248-.732v-7.2a1.021,1.021,0,0,1,.248-.719.977.977,0,0,1,1.348,0,1.019,1.019,0,0,1,.249.719v7.2a1.036,1.036,0,0,1-.249.732A.977.977,0,0,1,2443.938,1159.721Zm4.932-.257a3.686,3.686,0,0,1-1.419-1.617,6.347,6.347,0,0,1,0-4.922,3.694,3.694,0,0,1,1.419-1.611,4.354,4.354,0,0,1,4.826.359.949.949,0,0,1,.248.308.917.917,0,0,1,.071.385.95.95,0,0,1-.172.571.506.506,0,0,1-.419.238.859.859,0,0,1-.29-.045,1.1,1.1,0,0,1-.278-.16,3.874,3.874,0,0,0-.875-.481,2.494,2.494,0,0,0-.864-.147,2,2,0,0,0-1.709.763,3.765,3.765,0,0,0-.574,2.279q0,3.055,2.283,3.054a2.316,2.316,0,0,0,.828-.148,5.071,5.071,0,0,0,.911-.481,1.655,1.655,0,0,1,.3-.161.767.767,0,0,1,.272-.045.506.506,0,0,1,.419.237.951.951,0,0,1,.172.571.9.9,0,0,1-.077.391.942.942,0,0,1-.242.3,4.355,4.355,0,0,1-4.826.359Zm14.087-.36a.805.805,0,0,1-.266.61.863.863,0,0,1-.609.25.751.751,0,0,1-.426-.135.84.84,0,0,1-.308-.4l-.627-1.515h-4.01l-.627,1.515a.858.858,0,0,1-.3.4.747.747,0,0,1-.432.135.883.883,0,0,1-.615-.25.8.8,0,0,1-.272-.61,1.114,1.114,0,0,1,.094-.411l3.194-7.277a.978.978,0,0,1,.39-.469,1.047,1.047,0,0,1,1.124.006,1.1,1.1,0,0,1,.4.462l3.193,7.277a1.09,1.09,0,0,1,.094.411Zm-5.618-2.708h2.756l-1.372-3.337Zm7.753,3.311a1,1,0,0,1-.254-.719v-6.495h-1.917q-.875,0-.875-.821t.875-.808h5.677q.875,0,.875.808t-.875.821h-1.916v6.495a1.02,1.02,0,0,1-.249.719A.97.97,0,0,1,2465.092,1159.708Zm5.4-.038a.985.985,0,0,1-.225-.693V1151.8a.985.985,0,0,1,.225-.693.824.824,0,0,1,.638-.244h4.187q.874,0,.875.77t-.875.783h-3.253v2.118h3.016q.875,0,.875.783t-.875.77h-3.016v2.272h3.253q.874,0,.875.783t-.875.77h-4.187A.823.823,0,0,1,2470.492,1159.67Z" transform="translate(-1897.579 -635.048)" fill="#e5373a"/>
      <path id="Path_644" data-name="Path 644" d="M2518.842,1337.7h-66.983a.955.955,0,0,1-.955-.955h0a.955.955,0,0,1,.955-.955h66.983a.955.955,0,0,1,.955.955h0A.955.955,0,0,1,2518.842,1337.7Zm0,3.821h-66.983a.955.955,0,0,1-.955-.955h0a.955.955,0,0,1,.955-.955h66.983a.955.955,0,0,1,.955.955h0A.955.955,0,0,1,2518.842,1341.521Z" transform="translate(-1941.949 -805.523)" fill="#fff"/>
      <rect id="Rectangle_375" data-name="Rectangle 375" width="68.894" height="1.91" rx="0.955" transform="translate(508.955 537.908)" fill="#fff"/>
      <path id="Path_645" data-name="Path 645" d="M2518.842,1483.325h-66.983a.955.955,0,0,1-.955-.955h0a.955.955,0,0,1,.955-.955h66.983a.955.955,0,0,1,.955.955h0A.955.955,0,0,1,2518.842,1483.325Zm0,3.821h-66.983a.955.955,0,0,1-.955-.955h0a.955.955,0,0,1,.955-.955h66.983a.955.955,0,0,1,.955.955h0A.955.955,0,0,1,2518.842,1487.146Zm-66.983,1.911h66.983a.955.955,0,0,1,.955.955h0a.955.955,0,0,1-.955.955h-66.983a.955.955,0,0,1-.955-.955h0A.955.955,0,0,1,2451.859,1489.057Zm66.983,5.731h-66.983a.955.955,0,0,1-.955-.955h0a.955.955,0,0,1,.955-.955h66.983a.955.955,0,0,1,.955.955h0A.955.955,0,0,1,2518.842,1494.788Z" transform="translate(-1941.949 -939.686)" fill="#fff"/>
      <path id="Path_646" data-name="Path 646" d="M2482.51,1959.553h67.937s2.488,16.812,15.118,29.039h-72.146S2484.041,1979.422,2482.51,1959.553Z" transform="translate(-1971.067 -1380.188)" fill="#fff" opacity="0.7"/>
      <path id="Path_647" data-name="Path 647" d="M707.938,816.228c-.1-.374-.894-.31-.894-.31l.732-.483a.164.164,0,0,0-.052-.255c-.616-.266-2.464.42-2.585.466l1.031-.78a.058.058,0,0,0-.009-.1c-1.1-.6-6.231,1.65-6.762,1.885.185-.653.817-3.037.17-3.289-.751-.291-4.16,5.807-4.16,5.807l-1.576.787c-.175-.333-.285-.5-.285-.5a28.137,28.137,0,0,1-10.334,1.146c-.918-1.069-2.121-2.361-3.392-3.682a1.462,1.462,0,0,0,.653-1.228c.186-2.849-1.611-4.272-5.209-6.748a9.6,9.6,0,0,1-1.32-1.06c.214-1.641,1.242-3.425,1.768-5.353a7.132,7.132,0,0,0,.245-1.616c.013.008.026.017.039.024s1.062-5.522-1.574-9l1.734-.518-5.668-7.366-.541-.224c-5.052,1.942-13.5,9.975-13.5,9.975l-.033.675a.124.124,0,0,0-.087.069,11.047,11.047,0,0,0-1.214,4.254.147.147,0,0,0,0,.017.4.4,0,0,0-.287.359l-.024.515h.008a10.77,10.77,0,0,0-.677,4.324.057.057,0,0,0,.051.055.064.064,0,0,0,.044-.07,10.659,10.659,0,0,1,.514-3.824c-.237,1.2-.661,3.693-.255,4.235.025.034.1.046.2.046a5.506,5.506,0,0,1,.087-1.241,9.841,9.841,0,0,0,.048,1.233,2.057,2.057,0,0,0,.923-.293,5.2,5.2,0,0,0,.1-2.511,9.466,9.466,0,0,1,.3,2.375c0,.034.023.062.049.061s.046-.03.047-.065a19.924,19.924,0,0,0-.65-4.288h.015l.024-.512a.4.4,0,0,0-.229-.379.14.14,0,0,0,.01-.037,10.635,10.635,0,0,1,1.121-4l4.595,2.549-.052.877.063-.055c-.417,3.429-1.479,7.434-5.984,7.506-4.17.067-6.5,1.549-7.776,3.752a10.15,10.15,0,0,0-1.123,3.125,4.49,4.49,0,0,0,.82,3.774,5.53,5.53,0,0,0,2.016,1.658c.059.083.118.166.177.242a4.718,4.718,0,0,0,2.118,1.634c-1.488,2.561-3.164,5.743-3.372,7.4-.253,2.018,2.54,6.116,7.493,9.576l-.03.454a39.545,39.545,0,0,0-1.72,3.831c-3.877,9.78-8.135,27.215-8.135,27.215,1.675,3.376,4.749,5.824,8.116,7.59a33.181,33.181,0,0,0-1.583,5.833,13.65,13.65,0,0,0-.186,2.434c.126,5.221-1.34,14.9-1.34,14.9l-2.233,4.776.957,7.451h.957l.574-2.484,1.914,2.484h8.229c-.383-3.057-3.636-3.248-3.636-3.248l-1.722-8.024,3.827-17-.025,0,1.084-4.425a47.924,47.924,0,0,0,8.031,1.651c-.529-2.434-.125-6.865.631-12.022l1.355,3.106a20.525,20.525,0,0,0-1.294,10.815h0a1.317,1.317,0,0,1-.212-.084l2.87,14.9a11.735,11.735,0,0,1-.957,5.731c-1.34,3.248.574,8.215.574,8.215h4.551l3.3-2.812-2.494-9.224-.191-17.194c-.042.01-.084.019-.126.027h0l-.025-6.065a9.934,9.934,0,0,0,1.779-2.081c1.627-5.636-.383-18.34-1.34-28.179a76.8,76.8,0,0,1-.308-9.087c7.183,8.678,17.742,4.9,17.742,4.9.228-.724.427-1.433.6-2.126a30.328,30.328,0,0,0,.288-15.149l2.186-1.731.8-.329a19.965,19.965,0,0,0,2.459,0,3.509,3.509,0,0,0,.984-.316,28.3,28.3,0,0,0,5.3-3.681c-.195-.726-2.674.43-2.674.43C704.464,818.272,708.036,816.593,707.938,816.228ZM670.1,813.9a5.1,5.1,0,0,1-.285.76l.05.24c-.341-.508-.689-.98-1.037-1.417A8.765,8.765,0,0,0,670.1,813.9Zm6.557,52.459c-.019.856-.055,1.673-.1,2.447l.035-2.434Z" transform="translate(-278.756 -297.012)" fill="#6f87aa" opacity="0.6" style="mix-blend-mode: multiply;isolation: isolate"/>
      <path id="Path_648" data-name="Path 648" d="M777.014,792.313l.046-.933s8.453-8.033,13.5-9.975l.541.225-1.152,2.5Z" transform="translate(-399.818 -294.776)" fill="#0c174c"/>
      <path id="Path_649" data-name="Path 649" d="M795.018,792.146l1.755-.524-5.668-7.365s-6.5,2.947-14.092,10.683l4.837,2.684,6.357-4.461Z" transform="translate(-399.818 -297.404)" fill="#172266"/>
      <path id="Path_650" data-name="Path 650" d="M912.523,964.835a2.625,2.625,0,0,1-1.772.826c-3.636.477-4.622-3.475-4.622-3.475l-4.086-5.7.765-5.922,5.68-4.031,2.262-1.6a8.076,8.076,0,0,1,.766,5.827c-.526,1.928-1.554,3.712-1.768,5.353a3.424,3.424,0,0,0,.907,2.958,8.429,8.429,0,0,1,2.251,4.113A2.1,2.1,0,0,1,912.523,964.835Z" transform="translate(-515.006 -445.431)" fill="#352d29"/>
      <path id="Path_651" data-name="Path 651" d="M1201.535,1164.708a3.507,3.507,0,0,1-.984.316,19.962,19.962,0,0,1-2.459,0l-.8.329-8.709,6.9V1165.6l6.613-3.3s3.409-6.1,4.16-5.807c.647.252.015,2.636-.17,3.289-.032.1-.05.164-.05.164a3.554,3.554,0,0,1,.728,3.906S1201.134,1164.066,1201.535,1164.708Z" transform="translate(-778.991 -640.324)" fill="#ffba94"/>
      <path id="Path_652" data-name="Path 652" d="M1308.769,1176.374a28.3,28.3,0,0,1-5.3,3.681,3.512,3.512,0,0,1-.984.316,19.942,19.942,0,0,1-2.459,0l-.8.329.92-6.906.932,1.352.043-.02c.531-.235,5.66-2.49,6.762-1.885a.058.058,0,0,1,.009.1l-1.031.78c.121-.045,1.969-.732,2.585-.466a.164.164,0,0,1,.052.255l-.732.483s.794-.063.894.31-3.474,2.044-3.562,2.106C1306.1,1176.8,1308.574,1175.648,1308.769,1176.374Z" transform="translate(-880.921 -655.673)" fill="#ffba94"/>
      <path id="Path_653" data-name="Path 653" d="M922.077,1794.3l.128-8.788-9.569.509,4.083,9.362Z" transform="translate(-524.764 -1219.85)" fill="#ffba94"/>
      <path id="Path_654" data-name="Path 654" d="M729.478,1885.775l.112,26.79-3.948.242a30.294,30.294,0,0,0-1.186-6.818c-1.157-4.268-4.362-12.749-.875-20.491Zm-15.268,4.211-1.81,7.391-3.931,16.044h-4.911s1.466-9.68,1.34-14.9a13.672,13.672,0,0,1,.186-2.434,46.912,46.912,0,0,1,3.768-11.067Z" transform="translate(-332.145 -1311.521)" fill="#ffba94"/>
      <path id="Path_655" data-name="Path 655" d="M992.144,1136.257c-.176.694-.375,1.4-.6,2.126,0,0-11.214,4.012-18.391-5.731-.331-.449-.637-.911-.924-1.385-5.942-9.828-2.807-24.691-2.807-24.691s7.463,7.162,10.908,11.174a28.136,28.136,0,0,0,10.334-1.146S995.313,1123.8,992.144,1136.257Z" transform="translate(-576.316 -594.352)" fill="#2a2838"/>
      <rect id="Rectangle_376" data-name="Rectangle 376" width="2.995" height="23.881" transform="translate(393.868 524.336)" fill="#1c1b28"/>
      <path id="Path_656" data-name="Path 656" d="M864.823,1063.869l-.291-1.378s.505-.812,3.665-.886-.844,2.264-.844,2.264l-1.373.665Z" transform="translate(-480.447 -552.919)" fill="#2d71d3"/>
      <path id="Path_657" data-name="Path 657" d="M949.538,1069.506c-.119,1.807-2.055,1.771-3.755.915a5.28,5.28,0,0,1-2.31-2.088c-1.179-2.29-2.245-1.922-4.29-3.593s-.434-4.952-.434-4.952l3.54-.214.553-.034s-1.487.523.167,2.159a9.574,9.574,0,0,0,1.32,1.06C947.927,1065.234,949.724,1066.658,949.538,1069.506Z" transform="translate(-548.266 -551.018)" fill="#352d29"/>
      <path id="Path_658" data-name="Path 658" d="M949.538,1046.654c-.119,1.807-2.055,1.771-3.755.915a5.28,5.28,0,0,1-2.31-2.088c-1.179-2.291-2.245-1.922-4.29-3.594s-.434-4.952-.434-4.952l3.912-2.2c-.371,1.987-2.346,5.508-.1,7.26a31.205,31.205,0,0,1,3.6,3.922C947.519,1047.458,948.69,1048.375,949.538,1046.654Z" transform="translate(-548.266 -528.165)" fill="url(#linear-gradient-9)"/>
      <path id="Path_659" data-name="Path 659" d="M885.156,1009.191a25.6,25.6,0,0,1-.217,2.957,8.264,8.264,0,0,1-5.9-4.823l.369-7.285c4.363-2.929,5.029,2.424,5.029,2.424a10.963,10.963,0,0,0,.18,5.932C884.82,1009.04,885,1009.256,885.156,1009.191Z" transform="translate(-493.817 -495.395)" fill="#ffba94"/>
      <path id="Path_660" data-name="Path 660" d="M891.11,890.062s.386,7.669-2.407,9.449a2.758,2.758,0,0,1-1,.43,5.307,5.307,0,0,1-5.524-2.9c-1.6-3.229-.873-8.053-.873-8.053l4.794-2.93.175.077,3.017,1.316Z" transform="translate(-495.753 -391.188)" fill="#f9a880"/>
      <path id="Path_661" data-name="Path 661" d="M981.107,974.664a5.308,5.308,0,0,1-1.388,4.729c-2.057,2.149-1.148-1.958-1.148-1.958l.007-2.406Z" transform="translate(-585.325 -472.823)" fill="url(#linear-gradient-9)"/>
      <path id="Path_662" data-name="Path 662" d="M877.541,890.964a28.942,28.942,0,0,1-.036,3.1,21.9,21.9,0,0,1-.278,2.4,5.643,5.643,0,0,1-2.094,3.948,3.468,3.468,0,0,1-1,.43,5.313,5.313,0,0,1-5.258-3.241,36.061,36.061,0,0,1-2.462-7.556l6.293-3.012,3.017,1.316Z" transform="translate(-482.184 -392.091)" fill="#ffba94"/>
      <path id="Path_663" data-name="Path 663" d="M848.5,857.08a3.5,3.5,0,0,1-.616-.046s-1.267-.615-1.606.118c-.253.55-.612,3.064-2.654,4.642a6.138,6.138,0,0,1-2.641,1.156l.155.124-.427,2.573a5.96,5.96,0,0,1-2.406-4.289,6.719,6.719,0,0,1-.052-.755,9.413,9.413,0,0,1,.2-2.069c.059-.289.125-.56.2-.816a17.273,17.273,0,0,1,4.294-3.752,14.364,14.364,0,0,1,2.507-1.217,5.591,5.591,0,0,1,3.192,1.131,3.9,3.9,0,0,1,1.257,1.32C850.5,856.407,849.154,857.07,848.5,857.08Z" transform="translate(-456.241 -360.506)" fill="#352d29"/>
      <path id="Path_664" data-name="Path 664" d="M938.482,946.55a2.8,2.8,0,0,0,.539.045c.193,0,.386.011.555.02s.362.021.555.036a2.79,2.79,0,0,0,.539.009c.146-.021.207-.1.038-.206a2.64,2.64,0,0,0-1.134-.259,2.484,2.484,0,0,0-1.132.145C938.274,946.431,938.336,946.515,938.482,946.55Zm3.866.233a1.251,1.251,0,0,0,.317,0c.112-.01.225-.019.324-.024s.212-.009.325-.011a1.242,1.242,0,0,0,.314-.031c.083-.026.114-.09.008-.161a1.226,1.226,0,0,0-.677-.119,1.165,1.165,0,0,0-.649.191C942.219,946.706,942.261,946.766,942.348,946.783Z" transform="translate(-548.446 -446.59)" fill="#352d29"/>
      <path id="Path_665" data-name="Path 665" d="M1001.576,980.446a20.246,20.246,0,0,1-.3,2.31,2.9,2.9,0,0,1-.1-1.083A2.79,2.79,0,0,1,1001.576,980.446Z" transform="translate(-606.325 -478.151)" fill="#fca286"/>
      <path id="Path_666" data-name="Path 666" d="M987.095,989.495l.419.745s.26-.355.01-.621A.507.507,0,0,0,987.095,989.495Z" transform="translate(-593.362 -486.48)" fill="#ffba94"/>
      <path id="Path_667" data-name="Path 667" d="M980.046,980.58l-.023,0-.3.045a.067.067,0,0,1-.07-.061c-.007-.039.014-.077.045-.079l.3-.045a.278.278,0,0,0,.205-.18.671.671,0,0,0,.036-.385l-.007-.041c-.019-.109-.089-.19-.156-.18a.333.333,0,0,1-.29-.122.7.7,0,0,1-.168-.355l-.1-.591a.066.066,0,0,1,.046-.078.068.068,0,0,1,.069.062l.1.59a.532.532,0,0,0,.127.27.223.223,0,0,0,.192.083c.13-.02.263.116.3.3l.007.041a.834.834,0,0,1-.046.477A.391.391,0,0,1,980.046,980.58Z" transform="translate(-586.38 -476.369)" fill="#ff806d"/>
      <ellipse id="Ellipse_32" data-name="Ellipse 32" cx="1.927" cy="2.113" rx="1.927" ry="2.113" transform="translate(385.997 502.558) rotate(-22.784)" fill="#fca286"/>
      <path id="Path_668" data-name="Path 668" d="M947.06,970.454a.406.406,0,1,1-.426-.472A.456.456,0,0,1,947.06,970.454Z" transform="translate(-555.75 -468.509)" fill="#352d29"/>
      <path id="Path_669" data-name="Path 669" d="M944.312,971.119a.7.7,0,0,1-.33-.223,1.44,1.44,0,0,0,.185.33C944.255,971.322,944.312,971.119,944.312,971.119Zm3.485.2c0,.249.134.463.308.477s.319-.177.323-.426-.134-.463-.308-.477S947.8,971.067,947.8,971.316Z" transform="translate(-553.643 -469.346)" fill="#352d29"/>
      <path id="Path_670" data-name="Path 670" d="M998.874,972.045a.52.52,0,0,0,.255-.2,1.288,1.288,0,0,1-.135.3C998.926,972.229,998.874,972.045,998.874,972.045Z" transform="translate(-604.214 -470.225)" fill="#352d29"/>
      <g id="Group_590" data-name="Group 590" transform="translate(384.534 495.155)">
        <path id="Path_671" data-name="Path 671" d="M877.969,891.141a3.548,3.548,0,0,1-.615-.046s-1.268-.617-1.605.118-.864,4.946-5.3,5.8l-.016.093c-.356-.076-.277-.2.626-.4,3.214-.714,3.6-5.185,4.507-6.412a1.322,1.322,0,0,1,2.062-.09Z" transform="translate(-870.24 -889.721)" opacity="0.6" fill="url(#linear-gradient-11)" style="mix-blend-mode: multiply;isolation: isolate"/>
      </g>
      <path id="Path_672" data-name="Path 672" d="M853.059,971.733a1.522,1.522,0,0,0-2.133-.442c-1.2.873-.49,3.1.852,3.852a1.5,1.5,0,0,0,2.083-.7Z" transform="translate(-467.347 -469.44)" fill="#ffba94"/>
      <path id="Path_673" data-name="Path 673" d="M863.822,988.88a.174.174,0,0,0,.1-.082l.522-.907-1.3-.892a.173.173,0,0,0-.252.056.208.208,0,0,0,.062.271l.988.677-.334.58a.207.207,0,0,0,.063.271A.175.175,0,0,0,863.822,988.88Z" transform="translate(-478.914 -484.158)" fill="#ff806d"/>
      <path id="Path_674" data-name="Path 674" d="M873.589,875.266a3.659,3.659,0,0,1-1.5-1.845l-.023-.053a12.825,12.825,0,0,1-.654-2.1c-.025-.107-.049-.213-.073-.318-.112-.5-.207-.968-.3-1.369-.044-.187-.088-.359-.134-.512,0,0,0,0,0,0a2.014,2.014,0,0,0-.25-.585c-.71-.971-1.375.083-1.375.083-1.145-.775-1.933-.523-2.243,1.538q-.052.338-.085.743c-.009.112-.018.228-.025.348-.009.138-.015.281-.021.43a3.209,3.209,0,0,1-.64,1.873c-.045.059-.091.116-.14.171a3.434,3.434,0,0,1-.516.475h0a5.2,5.2,0,0,1-1.9.847c-.095.023-.186.042-.274.06-.206.041-.389.068-.538.085h-.007a1.41,1.41,0,0,1-.8-.134l-.019-.009c-.055-.027-.108-.057-.16-.087a2.653,2.653,0,0,1-1.221-1.709,5.685,5.685,0,0,1,.046-2.564,9.6,9.6,0,0,1,.4-1.342q.071-.186.15-.37a7.747,7.747,0,0,1,2.71-3.532,5.124,5.124,0,0,1,.933-.437,3.754,3.754,0,0,1,3.6.535,2.244,2.244,0,0,1,1.688-.439,2.421,2.421,0,0,1,1.444.794C874.745,869.271,873.589,875.266,873.589,875.266Z" transform="translate(-476.794 -371.531)" fill="#352d29"/>
      <path id="Path_675" data-name="Path 675" d="M965.017,1019.132s-.649-.035-1.678-.192c0,0-.384,1.534.436,1.6S965.017,1019.132,965.017,1019.132Z" transform="translate(-571.393 -513.614)" fill="#ff806d"/>
      <path id="Path_676" data-name="Path 676" d="M972.762,903.362a2.007,2.007,0,0,0-.25-.585c-.71-.971-1.375.083-1.375.083s-.13-.773.554-.9S972.628,902.849,972.762,903.362Z" transform="translate(-578.651 -405.829)" fill="url(#linear-gradient-12)"/>
      <path id="Path_677" data-name="Path 677" d="M928.3,903.529c-1.145-.775-1.933-.523-2.243,1.538q-.052.338-.085.743c-.009.112-.018.228-.025.348-.008.138-.015.281-.021.43a3.21,3.21,0,0,1-.64,1.873c-.045.059-.091.116-.14.171a3.411,3.411,0,0,1-.516.475,3.72,3.72,0,0,0,.725-2.331c.027-1.562-.072-3.759,1.5-4.1A1.53,1.53,0,0,1,928.3,903.529Z" transform="translate(-535.814 -406.498)" fill="url(#linear-gradient-13)"/>
      <path id="Path_678" data-name="Path 678" d="M871.288,1411.316s1.722,1.337,2.3,11.654.957,20.824.957,20.824-7.272,1.719-12.63-.191,4.21-32.669,4.21-32.669Z" transform="translate(-476.531 -874.753)" fill="#1e2887"/>
      <path id="Path_679" data-name="Path 679" d="M667.108,1138.924c-.159,1.169-.343,2.4-.545,3.666-1.743,10.974-4.78,25.012-3.665,30.149,0,0-17.893-1.719-22.965-11.94,0,0,4.258-17.435,8.135-27.215a39.576,39.576,0,0,1,1.72-3.83l.241-3.685,1.29-19.622,6.5-4.818.2-.149s8.612,4.585,9.951,16.43A115.805,115.805,0,0,1,667.108,1138.924Z" transform="translate(-273.528 -589.656)" fill="#2a2838"/>
      <path id="Path_680" data-name="Path 680" d="M1019.292,1230.528c-.176.693-.375,1.4-.6,2.126,0,0-11.215,4.012-18.391-5.732-.331-.449-.637-.911-.925-1.385-1.083-8.354-2.591-22.322.637-14.17a43.3,43.3,0,0,0,4.529,9.106c2.488,3.5,14.671,9.87,14.671,9.87Z" transform="translate(-603.465 -688.623)" fill="#191823"/>
      <path id="Path_681" data-name="Path 681" d="M947.674,1116.447a6.4,6.4,0,0,1-.191,4.458l1.977,9.552,1.084,11.972,1.066-.188a1.412,1.412,0,0,0,1.166-1.313c.16-2.954.541-10.848.128-12.445-.51-1.974-2.105-9.425-3.253-10.507A10.535,10.535,0,0,0,947.674,1116.447Z" transform="translate(-556.869 -603.446)" fill="#fff"/>
      <path id="Path_682" data-name="Path 682" d="M873.869,1138.924c-.159,1.169-.343,2.4-.545,3.666l-.22.346a181.006,181.006,0,0,0-.287-21.3,29,29,0,0,0-8.457-17.672l.41-2.335.2-.149s8.42,4.585,9.76,16.43A115.815,115.815,0,0,1,873.869,1138.924Z" transform="translate(-480.288 -589.656)" fill="#e5373a"/>
      <path id="Path_683" data-name="Path 683" d="M754.287,1421.568s-7.3,1.305-11-.182a39.556,39.556,0,0,1,1.721-3.83l.241-3.685,3.586.915Z" transform="translate(-368.744 -877.458)" fill="#191823"/>
      <path id="Path_684" data-name="Path 684" d="M664.319,889.056c-2.966-.669-2.966,2.961-5.071,3.916,0,0-1.531,5.827-6.985,4.49a4.39,4.39,0,0,1-2.775-2.006,4.846,4.846,0,0,1-2.775-5.349,10.156,10.156,0,0,1,1.123-3.125c1.28-2.2,3.605-3.685,7.775-3.752,4.5-.073,5.567-4.077,5.984-7.506.036-.3.069-.59.1-.875.077-.76.13-1.467.2-2.069.027-.235.052-.46.08-.676.036-.046.075-.094.115-.14a17.273,17.273,0,0,1,4.294-3.752l.36,3.9.356,3.857s-.011.023-.033.069a9.989,9.989,0,0,0-.7,2.222,5.964,5.964,0,0,0,1.5,5.647C671.07,886.979,667.285,889.725,664.319,889.056Z" transform="translate(-279.673 -374.75)" fill="#352d29"/>
      <path id="Path_685" data-name="Path 685" d="M961.128,1181.482a10.138,10.138,0,0,1-2.775,2.866,57.057,57.057,0,0,0,1.053-14.233c-.147-3.133-.446-8.236-.763-13.671-.509-8.653-1.066-18.146-1.15-21.863-.188-8.368-4.315-16.084-4.442-16.353a24.648,24.648,0,0,0,2.241,1.6,5.643,5.643,0,0,1,1.722,1.385c.574.86,3.062,10.412,3.158,11.94s-1.34,10.317-.383,20.156S962.755,1175.846,961.128,1181.482Z" transform="translate(-561.998 -605.085)" fill="#2a2838"/>
      <path id="Path_686" data-name="Path 686" d="M955.751,1154.727c0,.029,0,.057,0,.084-.509-8.652-1.066-18.146-1.15-21.863-.188-8.368-4.562-16.224-4.689-16.493a14.483,14.483,0,0,1,2.488,1.735,28.011,28.011,0,0,1,3.253,11.606C955.942,1136.387,955.655,1150.524,955.751,1154.727Z" transform="translate(-559.108 -603.453)" fill="#e5373a"/>
      <path id="Path_687" data-name="Path 687" d="M687.817,2054.6h-8.229l-1.914-2.483-.574,2.483h-.957l-.957-7.45,2.233-4.777s1.466-9.68,1.34-14.9a13.643,13.643,0,0,1,.186-2.434,11.671,11.671,0,0,0,7.316,1.291l.025,0-3.828,17,1.722,8.024S687.434,2051.543,687.817,2054.6Zm18.378-3.194-3.3,2.812h-4.551s-1.914-4.967-.574-8.215a11.731,11.731,0,0,0,.957-5.731l-2.871-14.9a1.306,1.306,0,0,0,.212.084c.609.2,2.624.6,7.316-.439.042-.008.084-.017.126-.027l.191,17.194Z" transform="translate(-306.006 -1440.471)" fill="#602f0f"/>
      <path id="Path_688" data-name="Path 688" d="M928.15,1336.7l1.531,1.019s-1.021,4.84-.7,6.942a4.478,4.478,0,0,0,3.062.318c1.4-.509.255-9.3.255-9.3l-3.7-.7Z" transform="translate(-539.057 -804.777)" fill="#191823"/>
      <path id="Path_689" data-name="Path 689" d="M831.72,1301.715s1.722,10.508-3.54,16.526l-4.688-9.457Z" transform="translate(-442.636 -774.13)" fill="#191823"/>
      <path id="Path_690" data-name="Path 690" d="M956.737,1344.226c-2.3,2.961-4.21,1.242-4.21,1.242a16.769,16.769,0,0,1,.071-3.962,37,37,0,0,1,.723-4.012c.2-.85.354-1.387.354-1.387l2.52.382A39.688,39.688,0,0,0,956.737,1344.226Z" transform="translate(-561.434 -805.815)" fill="#2d71d3"/>
      <path id="Path_691" data-name="Path 691" d="M938.974,1156.837a8.495,8.495,0,0,1,4.976-2.77l-.893,2.229-1.754,1.433Z" transform="translate(-549.029 -638.104)" fill="#256bbf"/>
      <path id="Path_692" data-name="Path 692" d="M936.716,1285.84l2.593-1.847,2.146.789.1.76-3.145.981Z" transform="translate(-546.949 -757.803)" fill="#f9af8a"/>
      <path id="Path_693" data-name="Path 693" d="M944.053,1163.271c-.065.871-.157,1.756-.283,2.629-.042.283-.086.562-.134.84l-2.237.069a62.525,62.525,0,0,0-2.425-9.965,4.479,4.479,0,0,0,4.976-2.77A58.437,58.437,0,0,1,944.053,1163.271Z" transform="translate(-549.029 -638.112)" fill="#2d71d3"/>
      <path id="Path_694" data-name="Path 694" d="M958.321,1241.153c-.065.871-.157,1.756-.283,2.629l-1.192.432-1.34-.955s1.5-1.242,1.722-4.648a14.775,14.775,0,0,1-.287,4.713l1.34-2.516Zm-2.591,7.3a23.875,23.875,0,0,0-1.269,3.234,36.887,36.887,0,0,1,.724-4.012Z" transform="translate(-563.297 -715.994)" fill="#256bbf"/>
      <path id="Path_695" data-name="Path 695" d="M935.561,1298.412l2.719,1.506a1.029,1.029,0,0,0,1.089-.057l1.509-1.058,1.113-1.337-.093-1.92.382-.807a.541.541,0,0,0-.527-.77l-3.988.28-2,.739Z" transform="translate(-545.885 -766.992)" fill="#ffba94"/>
      <path id="Path_696" data-name="Path 696" d="M893.077,1299.617l-3.467-.625-.385,3.908,3.647.142Z" transform="translate(-503.197 -771.623)" fill="#ffba94"/>
      <path id="Path_697" data-name="Path 697" d="M675.88,1189.972s-5.358,8.215-5.741,11.272,6.22,10.89,16.745,14.042c0,0-.191-10.412,3.54-16.525l-7.655-1.815S681.334,1189.685,675.88,1189.972Z" transform="translate(-301.341 -671.176)" fill="#2a2838"/>
      <path id="Path_698" data-name="Path 698" d="M749.592,1202.583l-7.974-.446s-5.1.637-7.272,2.356c0,0,3.763-2.547,5.869-2.866a22.216,22.216,0,0,0,1.786-7.515,15.176,15.176,0,0,1-.574,7.387Z" transform="translate(-360.509 -674.999)" fill="#191823"/>
      <path id="Path_699" data-name="Path 699" d="M849.383,846.94a.144.144,0,0,1-.087.252,9.644,9.644,0,0,0-1.239.139,20.679,20.679,0,0,0-6.6,2.667,40.517,40.517,0,0,0-4.995,3.49c-.063.052-.113.094-.147.12l-.063.055.2-3.381c.078-.1.157-.2.237-.294.036-.046.075-.094.115-.14A17.274,17.274,0,0,1,841.1,846.1a14.365,14.365,0,0,1,2.507-1.217,13.7,13.7,0,0,1,2.647-.672Z" transform="translate(-454.396 -352.635)" fill="#1e2887"/>
      <path id="Path_700" data-name="Path 700" d="M749.265,980.678l-.645.007-.01.044a10.594,10.594,0,0,0-.735,4.453.058.058,0,0,0,.051.055.064.064,0,0,0,.044-.071,10.664,10.664,0,0,1,.514-3.824c-.237,1.2-.661,3.693-.255,4.235.026.034.1.046.2.046a5.5,5.5,0,0,1,.087-1.241,9.874,9.874,0,0,0,.047,1.233,2.056,2.056,0,0,0,.924-.293,5.2,5.2,0,0,0,.1-2.512,9.482,9.482,0,0,1,.3,2.375c0,.034.023.062.049.061s.046-.03.046-.064A21,21,0,0,0,749.265,980.678Z" transform="translate(-372.946 -478.364)" fill="#ffb600"/>
      <path id="Path_701" data-name="Path 701" d="M757.51,972.556l-.791-.037.024-.515a.4.4,0,0,1,.791.04Z" transform="translate(-381.121 -470.027)"/>
      <path id="Path_702" data-name="Path 702" d="M760.929,921a10.641,10.641,0,0,1,1.175-4.109c.085-.164-.163-.309-.248-.145A11.049,11.049,0,0,0,760.642,921C760.628,921.184,760.915,921.183,760.929,921Z" transform="translate(-384.734 -419.398)"/>
      <path id="Path_703" data-name="Path 703" d="M665.092,1007.721c-2.966-.669-2.966,2.961-5.071,3.916,0,0-1.531,5.827-6.985,4.49a4.39,4.39,0,0,1-2.775-2.006,4.846,4.846,0,0,1-2.775-5.349,10.153,10.153,0,0,1,1.123-3.126c.656,2.27,2.689,4.692,6.759,4.75a7.183,7.183,0,0,0,7.559-6.066c3.875-.191,1.818-7.212,1.818-7.212a20.763,20.763,0,0,0,2.339-.185l.046-.008a5.965,5.965,0,0,0,1.5,5.647C671.843,1005.644,668.058,1008.39,665.092,1007.721Z" transform="translate(-280.385 -493.332)" fill="url(#linear-gradient-9)"/>
      <path id="Path_704" data-name="Path 704" d="M853.19,909.739a9.151,9.151,0,0,0-2.057,3.152c-.909,2.149-4.019,2.293-4.545,2.149,0,0,3.158-.478,3.923-1.91S851.422,910.292,853.19,909.739Z" transform="translate(-463.915 -413.009)" fill="url(#linear-gradient-9)"/>
    </g>
  </g>
</svg>
