<svg xmlns="http://www.w3.org/2000/svg" width="386" height="291" viewBox="0 0 386 291">
  <g id="Group_808" data-name="Group 808" transform="translate(-2522 402)">
    <rect id="Rectangle_513" data-name="Rectangle 513" width="386" height="291" transform="translate(2522 -402)" fill="none"/>
    <g id="Group_807" data-name="Group 807" transform="translate(-304.44 2498.023)">
      <g id="Group_556" data-name="Group 556" transform="translate(2865.44 -2884.023)">
        <g id="SvgjsG1008" transform="translate(0 0)">
          <g id="Layer_1" data-name="Layer 1" transform="translate(0 0)">
            <g id="Online_Consultation" data-name="Online Consultation">
              <path id="Path_232" data-name="Path 232" d="M223.688,267.684h0c-.493-19.837-8.625-35.423-21.439-44.725s-30.186-12.2-49.161-6.592h0C154.075,255.979,185.739,278.958,223.688,267.684Z" transform="translate(-136.332 -180.234)" fill="#25a54c"/>
              <path id="Path_233" data-name="Path 233" d="M231.071,279.6l-61.3-44.725c-.062-.062-.062-.123,0-.123.062-.062.123-.062.123,0l61.482,44.479c.123.062.123.246.062.37A.392.392,0,0,1,231.071,279.6Z" transform="translate(-147.72 -194.734)" fill="#fff"/>
              <path id="Path_234" data-name="Path 234" d="M226.018,253.611a18.056,18.056,0,0,0-6.037-.062,17.065,17.065,0,0,0-2.957.678,15.859,15.859,0,0,0-2.772,1.232h0a.235.235,0,1,1-.185-.431h0a20.291,20.291,0,0,1,2.9-1.171,16.4,16.4,0,0,1,3.019-.616,18.409,18.409,0,0,1,6.1.308.06.06,0,0,1-.062.062Zm18.666,13.553a18.956,18.956,0,0,1-2.156-5.729,17.275,17.275,0,0,1-.185-6.161.254.254,0,0,1,.493.123h0a16.177,16.177,0,0,0-.308,3.019,16.645,16.645,0,0,0,.246,3.019A23.213,23.213,0,0,0,244.685,267.164Zm6.53,4.744a18.061,18.061,0,0,0-6.037-.062,17.056,17.056,0,0,0-2.957.678,15.847,15.847,0,0,0-2.772,1.232h0a.235.235,0,0,1-.185-.431h0a20.311,20.311,0,0,1,2.9-1.171,16.4,16.4,0,0,1,3.019-.616,18.406,18.406,0,0,1,6.1.308C251.215,271.846,251.276,271.846,251.215,271.908Zm-34.684-25.2a18.956,18.956,0,0,1-2.156-5.729,17.275,17.275,0,0,1-.185-6.16.254.254,0,0,1,.493.123h0a16.182,16.182,0,0,0-.308,3.019,16.638,16.638,0,0,0,.247,3.019,23.208,23.208,0,0,0,1.91,5.729h0C216.593,246.773,216.531,246.773,216.531,246.711Z" transform="translate(-177.966 -194.684)" fill="#fff"/>
              <path id="Path_235" data-name="Path 235" d="M289.04,208.017h0c10.534-16.818,12.321-34.314,6.777-49.1s-18.42-26.86-37.394-32.589h0C237.416,159.9,251.153,196.5,289.04,208.017Z" transform="translate(-201.685 -120.567)" fill="#1fcb54"/>
              <path id="Path_236" data-name="Path 236" d="M313.277,216.867l-26.49-71.092c0-.062,0-.123.062-.123s.123,0,.123.062l26.737,70.969a.235.235,0,0,1-.431.185Z" transform="translate(-227.831 -133.791)" fill="#fff"/>
              <path id="Path_237" data-name="Path 237" d="M298.79,192.869a19.309,19.309,0,0,0-4.99-3.388,15.659,15.659,0,0,0-2.834-1.047,12.365,12.365,0,0,0-2.957-.493h0a.246.246,0,1,1,0-.493h0a16.388,16.388,0,0,1,3.019.616,14.419,14.419,0,0,1,2.834,1.17A16.768,16.768,0,0,1,298.79,192.869Zm8.07,21.562a20.045,20.045,0,0,1,1.355-5.976,23.075,23.075,0,0,1,1.355-2.772,17.65,17.65,0,0,1,1.91-2.464c.062-.123.246-.123.37,0,.123.062.123.246,0,.37h0a17.587,17.587,0,0,0-1.91,2.341,22.339,22.339,0,0,0-1.479,2.649,19.115,19.115,0,0,0-1.54,5.853s0,.062-.061,0Zm2.834,7.577a19.314,19.314,0,0,0-4.99-3.388,15.658,15.658,0,0,0-2.834-1.047,12.368,12.368,0,0,0-2.957-.493h0a.246.246,0,0,1,0-.493h0a16.4,16.4,0,0,1,3.019.616,14.423,14.423,0,0,1,2.834,1.17A16.006,16.006,0,0,1,309.694,222.008Zm-15.032-40.166a20.042,20.042,0,0,1,1.355-5.976,23.081,23.081,0,0,1,1.355-2.772,17.651,17.651,0,0,1,1.91-2.464c.062-.123.246-.123.37,0,.123.062.123.246,0,.37h0a17.58,17.58,0,0,0-1.91,2.341,22.3,22.3,0,0,0-1.479,2.649,19.114,19.114,0,0,0-1.54,5.852S294.724,181.9,294.663,181.841Z" transform="translate(-228.499 -150.822)" fill="#fff"/>
              <path id="Path_238" data-name="Path 238" d="M187.233,336.538h0c-12.506-15.4-28.462-22.794-44.294-22.3-15.771.431-31.357,8.748-42.939,24.765h0C125.012,369.743,164.069,368.634,187.233,336.538Z" transform="translate(-100 -249.149)" fill="#56c679"/>
              <path id="Path_239" data-name="Path 239" d="M196.843,385.044l-75.836,2.033a.123.123,0,0,1,0-.246l75.836-2.279a.265.265,0,0,1,.246.247C197.028,384.921,196.966,385.044,196.843,385.044Z" transform="translate(-114.292 -297.286)" fill="#fff"/>
              <path id="Path_240" data-name="Path 240" d="M177.712,369.888a20.076,20.076,0,0,0-4.867,3.635,13.809,13.809,0,0,0-1.91,2.341,13.649,13.649,0,0,0-1.417,2.649h0a.235.235,0,1,1-.431-.185h0a14.159,14.159,0,0,1,1.54-2.649,18.466,18.466,0,0,1,2.033-2.341,18.758,18.758,0,0,1,4.99-3.512C177.712,369.826,177.712,369.826,177.712,369.888Zm23.04-.678a20.236,20.236,0,0,1-5.175-3.2,18.342,18.342,0,0,1-2.156-2.218A14.55,14.55,0,0,1,191.7,361.2a.235.235,0,1,1,.431-.185h0a12.8,12.8,0,0,0,1.6,2.587,17.354,17.354,0,0,0,2.033,2.218,20.161,20.161,0,0,0,5.052,3.388c0-.062,0,0-.062,0Zm8.07-.246a20.079,20.079,0,0,0-4.867,3.635,13.793,13.793,0,0,0-1.91,2.341,13.648,13.648,0,0,0-1.417,2.649h0a.235.235,0,1,1-.431-.185h0a14.163,14.163,0,0,1,1.54-2.649,18.461,18.461,0,0,1,2.033-2.341,18.751,18.751,0,0,1,4.99-3.511C208.823,368.9,208.823,368.9,208.823,368.964ZM166.007,370.2a20.234,20.234,0,0,1-5.175-3.2,18.326,18.326,0,0,1-2.156-2.218,14.556,14.556,0,0,1-1.725-2.587.235.235,0,1,1,.431-.185h0a12.79,12.79,0,0,0,1.6,2.587,17.364,17.364,0,0,0,2.033,2.218,20.159,20.159,0,0,0,5.052,3.388C166.007,370.134,166.007,370.2,166.007,370.2Z" transform="translate(-138.963 -281.083)" fill="#fff"/>
              <path id="Path_241" data-name="Path 241" d="M447.8,505.372H230.77V355.426A5.429,5.429,0,0,1,236.192,350h206.13a5.429,5.429,0,0,1,5.421,5.421V505.372Z" transform="translate(-189.495 -273.644)" fill="#5b6f8b"/>
              <rect id="Rectangle_327" data-name="Rectangle 327" width="199.662" height="137.995" transform="translate(49.957 85.049)" fill="#fff"/>
              <path id="Path_242" data-name="Path 242" d="M418.177,852.027H187.466a9.978,9.978,0,0,1-9.98-9.982l250.609,0a9.925,9.925,0,0,1-9.918,9.98Z" transform="translate(-153.029 -610.38)" fill="#4a5b6b"/>
              <path id="Path_243" data-name="Path 243" d="M518.587,846.375h36.347c1.356,0,2.464-1.848,2.464-4.127H516.123C516.123,844.527,517.232,846.375,518.587,846.375Z" transform="translate(-384.781 -610.519)" fill="#5b6f8b"/>
              <path id="Path_244" data-name="Path 244" d="M483.2,420.842v82.12a3.707,3.707,0,0,1-3.7,3.7H318.589a3.707,3.707,0,0,1-3.7-3.7v-82.12a3.707,3.707,0,0,1,3.7-3.7H479.44a3.721,3.721,0,0,1,3.758,3.7Z" transform="translate(-247.066 -319.593)" fill="#c8e1ff"/>
              <path id="Path_245" data-name="Path 245" d="M737.457,384.759s10.535-18.543,15.032-8.009-10.411,15.217-10.411,15.217l-4.62-7.516" transform="translate(-536.255 -289.732)" fill="#ffd1c4"/>
              <path id="Path_246" data-name="Path 246" d="M624.736,410.238s-11.643,15.956-22.424,24.272c-4.066,3.142-8.07,5.236-11.15,4.928-12.506-1.232-19.406-8.686-23.164-15.648a39.178,39.178,0,0,1-4.251-12.506l6.961-11.705s17.126,8.07,24.642,18.851l23.1-17.681Z" transform="translate(-417.373 -307.572)" fill="#fece51"/>
              <path id="Path_247" data-name="Path 247" d="M611.528,445.905c-4.066,3.142-8.07,5.237-11.15,4.928-12.506-1.232-19.406-8.686-23.164-15.648a41.855,41.855,0,0,1,1.848-11.7,18.924,18.924,0,0,1,1.91-4.436,8.171,8.171,0,0,1,2.834-2.587c1.232-.616,1.971.123,2.957.986a17.428,17.428,0,0,1,4.251,6.407c1.294,3.265,1.848,6.776,2.711,10.165s2.095,6.838,4.436,9.487a6.071,6.071,0,0,0,4.374,2.4c1.479,0,2.834-.8,4.251-1.355h.062A3.9,3.9,0,0,1,611.528,445.905Z" transform="translate(-426.59 -318.967)" fill="#fec22d"/>
              <path id="Path_248" data-name="Path 248" d="M483.2,619.4l3.327,26.12H428.683l6.468-26.367Z" transform="translate(-324.94 -457.843)" fill="#292561"/>
              <path id="Path_249" data-name="Path 249" d="M490.232,463.1c0,3.573-20.822,4.559-36.532,3.08-6.961-.678-12.013-1.787-12.013-3.327l1.17-15.648s-6.222-22.979-2.957-39.8a31.663,31.663,0,0,1,2.156-7.085c4.867-10.781,40.228-13.553,49.161-2.526,7.824,9.734-.123,34.437-.123,34.437Z" transform="translate(-331.969 -301.536)" fill="#fece51"/>
              <path id="Path_250" data-name="Path 250" d="M488.075,442.186a29.631,29.631,0,0,1-11.582,6.961c-4.251,1.54-8.686,2.587-13.06,3.943a15.93,15.93,0,0,0-6.161,3.2,11.981,11.981,0,0,0-3.265,6.592c-.431,2.4-.062,4.867-.308,7.269a49.369,49.369,0,0,0,.123,7.393,13.376,13.376,0,0,1-.123,2.218c-6.961-.677-12.013-1.786-12.013-3.327l1.171-15.648s-6.222-22.979-2.957-39.8a46.637,46.637,0,0,1,5.606-5.421c1.971-1.663,4.436-3.388,6.53-4.867,2.957.246,5.236,2.834,6.222,5.668.986,2.772.986,5.791,1.294,8.748s1.047,6.037,3.142,8.132c2.711,2.711,7.023,3.019,10.781,2.4,3.758-.554,7.516-1.848,11.335-1.725,2.095.062,4.436.8,5.175,2.711C490.786,438.551,489.492,440.707,488.075,442.186Z" transform="translate(-331.968 -315.185)" fill="#fec22d"/>
              <path id="Path_251" data-name="Path 251" d="M583.1,327.4h-.062a.381.381,0,0,1-.308-.493c.986-4.5-4.682-8.5-4.744-8.563a.4.4,0,1,1,.431-.678c.246.185,6.16,4.374,5.052,9.425A.345.345,0,0,1,583.1,327.4Z" transform="translate(-426.988 -251.468)" fill="#5b6f8b"/>
              <path id="Path_252" data-name="Path 252" d="M521.785,304.634c-.555,1.232-9.857,1.294-9.857,1.294V311.1c0,1.663-12.444,1.971-12.444.308L499.36,300.2s-3.327-6.222-4.066-11.458,4.867-14.477,17.927-14.662S523.817,300.075,521.785,304.634Z" transform="translate(-370.483 -221.681)" fill="#ffd1c4"/>
              <path id="Path_253" data-name="Path 253" d="M510.1,254.575c-7.269-3.82-19.9,1.109-19.652,3.327.185,2.218.554,6.161-.986,6.037-.986-.062-.8-4.559-3.08-2.341-2.341,2.218,1.725,5.606,2.649,8.625s-1.294,9.672-1.294,9.672c-.185-1.047-9.672-15.4-9.672-23.964-.062-4.62,3.019-7.393,6.468-9.487q1.848-1.109,3.7-2.033a28.371,28.371,0,0,0,4.436-2.526c3.265-2.587,5.914-8.748,15.648-6.1S510.1,254.575,510.1,254.575Z" transform="translate(-358.732 -195.032)" fill="#272828"/>
              <path id="Path_254" data-name="Path 254" d="M512.226,311.207a6.074,6.074,0,0,1-6.1,6.1,3,3,0,0,1-.739-.062,6.08,6.08,0,0,0,0-12.075,3,3,0,0,1,.739-.062,6.074,6.074,0,0,1,6.1,6.1Z" transform="translate(-377.435 -242.916)" fill="#e44000"/>
              <path id="Path_255" data-name="Path 255" d="M495.726,311.207a6.07,6.07,0,0,1-5.36,6.037,3,3,0,0,1-.739.062,6.074,6.074,0,0,1-6.1-6.1,6.153,6.153,0,0,1,4.5-5.914,6.712,6.712,0,0,1,1.6-.185,3,3,0,0,1,.739.062,6.431,6.431,0,0,1,1.047.246A6.025,6.025,0,0,1,495.726,311.207Z" transform="translate(-362.474 -242.916)" fill="#fa5814"/>
              <path id="Path_256" data-name="Path 256" d="M500.943,277.771a5.213,5.213,0,0,0-1.047-.246,3,3,0,0,0-.739-.062,6.72,6.72,0,0,0-1.6.185,81.037,81.037,0,0,1,.246-10.9q1.848-1.109,3.7-2.033C500.573,269.023,500.881,275.985,500.943,277.771Z" transform="translate(-372.004 -215.272)" fill="#fdd333"/>
              <path id="Path_257" data-name="Path 257" d="M573.594,349.281a18.457,18.457,0,0,1-2.341-.185.411.411,0,1,1,.185-.8c.062,0,5.914.986,6.53-1.91a.411.411,0,0,1,.8.185C578.276,348.85,575.627,349.281,573.594,349.281Z" transform="translate(-422.293 -270.949)" fill="#5b6f8b"/>
              <ellipse id="Ellipse_6" data-name="Ellipse 6" cx="2.403" cy="1.54" rx="2.403" ry="1.54" transform="translate(146.312 76.361)" fill="#5b6f8b"/>
              <path id="Path_258" data-name="Path 258" d="M605.964,419.471l-5.421,39.612a1.191,1.191,0,0,1-1.171,1.047H575.223a1.154,1.154,0,0,1-1.171-1.355l4.682-39.612a1.191,1.191,0,0,1,1.171-1.047h24.827a1.168,1.168,0,0,1,1.232,1.355Z" transform="translate(-424.414 -320.255)" fill="#f0f4f9"/>
              <path id="Path_259" data-name="Path 259" d="M591.853,484.417s13.553-8.44,13.861.739-13.861,7.146-13.861,7.146Z" transform="translate(-436.608 -363.208)" fill="#ffd1c4"/>
              <path id="Path_260" data-name="Path 260" d="M447.59,404.519c-4.251.862-8.563,6.161-8.563,17.742,0,13.368.493,25.073,7.085,28.092,10.042,4.62,43.062-9.857,43.062-9.857l-1.047-9.487-32.219,5.113S460.9,401.809,447.59,404.519Z" transform="translate(-332.019 -310.847)" fill="#fece51"/>
              <path id="Path_261" data-name="Path 261" d="M335,739.585l-8.07,5.668a1.447,1.447,0,0,1-2.279-1.171V732.746a1.438,1.438,0,0,1,2.279-1.17l8.07,5.668a1.441,1.441,0,0,1,0,2.341Zm147.421-1.171h0a1.17,1.17,0,0,1-1.171,1.171H340.484a1.17,1.17,0,0,1-1.17-1.171h0a1.17,1.17,0,0,1,1.17-1.17H481.252a1.212,1.212,0,0,1,1.171,1.17Z" transform="translate(-253.744 -534.593)" fill="#c8e1ff"/>
              <circle id="Ellipse_7" data-name="Ellipse 7" cx="9.241" cy="9.241" r="9.241" transform="translate(145.449 194.581)" fill="#fff"/>
              <circle id="Ellipse_8" data-name="Ellipse 8" cx="5.729" cy="5.729" r="5.729" transform="translate(148.961 198.092)" fill="#c8e1ff"/>
              <path id="Path_275" data-name="Path 275" d="M100.2,820.047a1.683,1.683,0,0,0,.493,1.171,1.579,1.579,0,0,0,1.171.493H191.8a4.259,4.259,0,0,0,4.251-4.251V802a4.259,4.259,0,0,0-4.251-4.251H101.858a1.656,1.656,0,0,0-1.663,1.663,1.683,1.683,0,0,0,.493,1.17,1.577,1.577,0,0,0,1.17.493H191.8a.973.973,0,0,1,.986.986v15.463a.973.973,0,0,1-.986.986H101.858a1.557,1.557,0,0,0-1.663,1.54Z" transform="translate(-100.134 -580.064)" fill="#fdd333"/>
              <path id="Path_276" data-name="Path 276" d="M108.588,808.286h88.9a.973.973,0,0,1,.986.986v15.463a.973.973,0,0,1-.986.986h-88.9A21,21,0,0,0,108.588,808.286Z" transform="translate(-105.877 -587.277)" fill="#f0f4f9"/>
              <path id="Path_277" data-name="Path 277" d="M123.267,822.225H203.23a.431.431,0,0,0,0-.863H123.267a.421.421,0,0,0-.431.431A.519.519,0,0,0,123.267,822.225Zm0,4.128H203.23a.431.431,0,0,0,0-.862H123.267a.421.421,0,0,0-.431.431A.463.463,0,0,0,123.267,826.353Zm0,4.066H203.23a.431.431,0,1,0,0-.862H123.267a.421.421,0,0,0-.431.431A.519.519,0,0,0,123.267,830.419Z" transform="translate(-115.628 -596.226)" fill="#dde3ea"/>
              <path id="Path_278" data-name="Path 278" d="M243.124,642.407a9.286,9.286,0,0,1-8.255-.185c1.355-6.345,7.208-9.241,13.06-6.53A9.407,9.407,0,0,1,243.124,642.407Z" transform="translate(-192.3 -468.464)" fill="#48dbc5"/>
              <path id="Path_279" data-name="Path 279" d="M230.251,641.657a.864.864,0,0,1-.862-.739c-.062-.493-1.725-11.459,3.881-21.315a.856.856,0,1,1,1.479.862c-5.36,9.364-3.7,20.083-3.7,20.145a.852.852,0,0,1-.739.986C230.374,641.657,230.312,641.657,230.251,641.657Z" transform="translate(-188.359 -457.857)" fill="#e58c5c"/>
              <path id="Path_280" data-name="Path 280" d="M204.893,691.007c-1.294,11.151-9.3,19.406-17.865,18.42a12.209,12.209,0,0,1-5.791-2.279,12.463,12.463,0,0,1-5.791,2.279c-8.563.986-16.51-7.269-17.865-18.42-1.294-11.15,4.559-21.007,13.122-22.054a12.386,12.386,0,0,1,5.976.8,12.436,12.436,0,0,0,9.179,0,12.384,12.384,0,0,1,5.976-.8C200.272,670,206.186,679.857,204.893,691.007Z" transform="translate(-139.283 -491.868)" fill="#fa5814"/>
              <g id="Group_551" data-name="Group 551" transform="translate(21.511 180.566)" opacity="0.2">
                <ellipse id="Ellipse_9" data-name="Ellipse 9" cx="5.606" cy="3.943" rx="5.606" ry="3.943" transform="matrix(0.63, -0.777, 0.777, 0.63, 2.215, 8.707)" fill="#fff"/>
                <ellipse id="Ellipse_10" data-name="Ellipse 10" cx="2.588" cy="1.786" rx="2.588" ry="1.786" transform="translate(0 16.036) rotate(-48.847)" fill="#fff"/>
              </g>
              <path id="Path_281" data-name="Path 281" d="M918.973,229.045V268c.034,4.75,2.606,8.589,5.789,8.64h7.617a1.685,1.685,0,0,1,1.365.843,3.716,3.716,0,0,1,.565,2.037v12.43a3.062,3.062,0,0,0,1.175,2.638,1.482,1.482,0,0,0,2.075-.668l11.07-16.522a1.643,1.643,0,0,1,1.32-.758h50.27c3.182-.051,5.755-3.89,5.789-8.64V229.045c-.034-4.75-2.606-8.589-5.789-8.64H924.762C921.579,220.456,919.008,224.295,918.973,229.045Z" transform="translate(-760.711 -220.405)" fill="#f2f2f2"/>
              <g id="Group_554" data-name="Group 554" transform="translate(169.467 4.031)">
                <path id="Path_323" data-name="Path 323" d="M284.26,360.839H244.208a1.137,1.137,0,0,1-1.142-1.142V319.645a1.158,1.158,0,0,1,.677-1.057,1.114,1.114,0,0,1,1.226.254l40.052,40.052a1.113,1.113,0,0,1,.254,1.227A1.077,1.077,0,0,1,284.26,360.839Zm-40.052-41.405a.155.155,0,0,0-.127.042c-.042.042-.169.085-.169.254v40.052a.289.289,0,0,0,.3.3H284.26a.248.248,0,0,0,.254-.169.406.406,0,0,0-.042-.3L244.42,319.519A.273.273,0,0,0,244.208,319.434Z" transform="translate(-235.781 -315.731)" fill="#000102"/>
                <path id="Path_324" data-name="Path 324" d="M284.26,361.243h-5.794l-.042-.338a7.69,7.69,0,0,1-.127-1.353,8.3,8.3,0,0,1,1.48-4.779l.3-.423,4.991,4.991a1.113,1.113,0,0,1,.254,1.227A1.2,1.2,0,0,1,284.26,361.243Zm-5.075-.846h5.075a.248.248,0,0,0,.254-.169.407.407,0,0,0-.042-.3l-4.314-4.272a7.746,7.746,0,0,0-1.057,3.849C279.143,359.805,279.143,360.1,279.185,360.4Zm-34-31.593a8.424,8.424,0,0,1-1.776-.169l-.338-.085v-8.416a1.158,1.158,0,0,1,.677-1.057,1.113,1.113,0,0,1,1.226.254l6.6,6.6-.3.3A8.371,8.371,0,0,1,245.181,328.8Zm-1.269-.973a6.4,6.4,0,0,0,1.269.085,7.579,7.579,0,0,0,5.2-2.03l-5.963-5.963a.211.211,0,0,0-.3-.042c-.042.042-.169.085-.169.254v7.7Zm7.148,33.412h-6.852a1.137,1.137,0,0,1-1.142-1.142v-5.963h7.951v7.105Zm-7.148-6.217v5.118a.289.289,0,0,0,.3.3h6.006v-5.371h-6.3Z" transform="translate(-235.918 -316.114)" fill="#5b6f8b"/>
                <path id="Path_325" data-name="Path 325" d="M255.345,350.175a2.068,2.068,0,0,1-.592-1.48v-1.311a2.068,2.068,0,0,1,.592-1.48,2.247,2.247,0,0,1,1.565-.507,3.228,3.228,0,0,1,1.142.211,1.627,1.627,0,0,1,.761.634,2.012,2.012,0,0,1,.3.888h0c0,.042,0,.085-.042.085a.155.155,0,0,1-.127.042h-.719a.155.155,0,0,1-.127-.042c-.042-.042-.042-.085-.085-.127a1.161,1.161,0,0,0-.381-.634,1.211,1.211,0,0,0-.719-.169c-.719,0-1.057.381-1.1,1.184v1.227c.042.8.381,1.184,1.1,1.184a1.211,1.211,0,0,0,.719-.169,1.161,1.161,0,0,0,.381-.634c0-.085.042-.127.085-.127a.156.156,0,0,1,.127-.042h.719a.149.149,0,0,1,.169.169,1.328,1.328,0,0,1-.3.888,1.916,1.916,0,0,1-.761.634,2.5,2.5,0,0,1-1.142.211A3.129,3.129,0,0,1,255.345,350.175Zm-52.994.381a.155.155,0,0,1-.042-.127v-4.821a.149.149,0,0,1,.169-.169h2.157a1.941,1.941,0,0,1,1.311.381,1.286,1.286,0,0,1,.423,1.057,1.019,1.019,0,0,1-.169.634,1.2,1.2,0,0,1-.423.381,1.076,1.076,0,0,1,.508.465,1.426,1.426,0,0,1,.212.719,1.4,1.4,0,0,1-.465,1.1,1.815,1.815,0,0,1-1.311.423h-2.2C202.393,350.6,202.351,350.6,202.351,350.555Zm2.115-3a.827.827,0,0,0,.592-.169.7.7,0,0,0,.211-.507.546.546,0,0,0-.211-.465.827.827,0,0,0-.592-.169h-1.142v1.311Zm.085,2.242a.836.836,0,0,0,.592-.211.8.8,0,0,0,.211-.55.891.891,0,0,0-.211-.55.837.837,0,0,0-.592-.211h-1.227v1.48h1.227Zm-2.707-42.251a.155.155,0,0,1-.042-.127v-.085l1.776-4.779a.232.232,0,0,1,.254-.169h.8a.232.232,0,0,1,.254.169l1.776,4.779v.085a.15.15,0,0,1-.169.169h-.677a.233.233,0,0,1-.211-.127l-.338-.888h-2.2l-.338.888a.233.233,0,0,1-.211.127h-.677C201.928,307.585,201.886,307.585,201.843,307.543Zm1.607-1.861H205.1l-.846-2.284Z" transform="translate(-201.8 -302.381)" fill="#fa5814"/>
              </g>
              <g id="Group_559" data-name="Group 559" transform="translate(172.617 126.397)">
                <g id="Group_559-2" data-name="Group 559" transform="translate(0 0)">
                  <rect id="Rectangle_337" data-name="Rectangle 337" width="14.522" height="7.557" transform="translate(2.519 41.941)" fill="#fa5814"/>
                  <rect id="Rectangle_338" data-name="Rectangle 338" width="14.522" height="21.191" transform="translate(21.784 28.382)" fill="#358dce"/>
                  <rect id="Rectangle_339" data-name="Rectangle 339" width="14.522" height="39.196" transform="translate(41.122 10.303)" fill="#1fcb54"/>
                  <path id="Path_404" data-name="Path 404" d="M664.02,521.329l-.741,1.408-15.708,18.449a1.257,1.257,0,0,1-1.63.222l-10-6.224L621.712,549.04a.8.8,0,0,1-.519.222.841.841,0,0,1-.593-.222.806.806,0,0,1,0-1.111l14.374-14a1.242,1.242,0,0,1,1.556-.148l10,6.224,15.708-18.449a1.225,1.225,0,0,1,1.778-.222Z" transform="translate(-620.379 -519.62)" fill="#292561"/>
                  <path id="Path_405" data-name="Path 405" d="M726.644,518.4l-.074,4.742a1.14,1.14,0,0,1-1.112,1.111h0a1.14,1.14,0,0,1-1.111-1.111l-.074-3.334-3.482-.222h0a1.139,1.139,0,0,1-1.112-1.111,1.091,1.091,0,0,1,1.111-1.112l4.742-.074a1.026,1.026,0,0,1,1.111,1.111Z" transform="translate(-682.04 -517.289)" fill="#292561"/>
                </g>
              </g>
            </g>
          </g>
        </g>
      </g>
      <g id="Group_560" data-name="Group 560" transform="translate(3059.239 -2743.654)">
        <path id="Path_406" data-name="Path 406" d="M939.893,607.182c0,2.576,22.107,5.811,22.107,3.235,2.1-9.526,5.332-27.379-1.138-32.711-6.171-5.093-22.467-2.576-25.223,2.936a12.669,12.669,0,0,0-.958,4.613C934.381,590.227,941.511,600.771,939.893,607.182Z" transform="translate(-872.08 -548.248)" fill="#ff9a05"/>
        <path id="Path_387" data-name="Path 387" d="M842.006,747.046a1.6,1.6,0,0,1-1.558-1.2l-12.461-52.242h-4.553l-12.461,52.242a1.6,1.6,0,1,1-3.115-.719l12.761-53.44a1.6,1.6,0,0,1,1.558-1.2h7.07a1.6,1.6,0,0,1,1.558,1.2l12.761,53.44a1.585,1.585,0,0,1-1.2,1.917Zm-110.116,0a1.6,1.6,0,0,0,1.558-1.2l12.461-52.242h4.553l12.461,52.242a1.6,1.6,0,0,0,3.115-.719l-12.761-53.44a1.6,1.6,0,0,0-1.558-1.2h-7.069a1.6,1.6,0,0,0-1.558,1.2l-12.761,53.44a1.585,1.585,0,0,0,1.2,1.917Z" transform="translate(-730.288 -628.391)" fill="#292561"/>
        <path id="Path_388" data-name="Path 388" d="M852.892,691.268v5.871a.793.793,0,0,1-.779.779H755.058a.793.793,0,0,1-.779-.779v-5.871a.793.793,0,0,1,.779-.779h97.055a.755.755,0,0,1,.779.779Z" transform="translate(-746.926 -628.391)" fill="#e58c5c"/>
        <path id="Path_389" data-name="Path 389" d="M844.978,606.546c-.539-1.078-.9-2.217-1.558-3.3a4.822,4.822,0,0,0-3-2.277,1.87,1.87,0,0,0-1.5.18,2,2,0,0,0-.719,1.018,5.124,5.124,0,0,0,0,3.535,6.108,6.108,0,0,0,2.336,2.936,15.132,15.132,0,0,0,3.3,1.558,3.841,3.841,0,0,0,2.157.359c.6-.12,1.2-.539,1.138-1.078s-.719-.9-1.078-1.318A6.337,6.337,0,0,1,844.978,606.546Z" transform="translate(-804.913 -566.255)" fill="#ffd1c4"/>
        <path id="Path_390" data-name="Path 390" d="M912.8,851.225a2.346,2.346,0,0,0,.12.779.4.4,0,0,0,.3.24h14.259a.3.3,0,0,0,.3-.359l-.539-2.277-1.738-7.429-5.632.6s.419,3.355-4.014,4.613C913.1,848.169,912.736,850.027,912.8,851.225Z" transform="translate(-856.855 -733.589)" fill="#292561"/>
        <path id="Path_391" data-name="Path 391" d="M930.4,846.057a3.924,3.924,0,0,0,1.618-3.475l5.632-.6.959,4.074Z" transform="translate(-869.069 -733.454)" fill="#191937"/>
        <path id="Path_392" data-name="Path 392" d="M939.028,711.21a23.475,23.475,0,0,1-2.876.9c-6.051,1.438-17.793,2.1-21.927,5.811-4.433,3.954-2.816,25.043-2.217,35.647l17.374-.479c.9-7.189-5.272-11.263-5.032-18.572.24-8.747,4.373-8.328,4.373-8.328s4.853.18,10.245.18V711.21Z" transform="translate(-855.768 -642.761)" fill="#9859cd"/>
        <path id="Path_393" data-name="Path 393" d="M850.439,851.225a2.348,2.348,0,0,0,.12.779.4.4,0,0,0,.3.24h14.259a.3.3,0,0,0,.3-.359l-.539-2.277-1.737-7.429-5.632.6s.419,3.355-4.014,4.613C850.739,848.169,850.379,850.027,850.439,851.225Z" transform="translate(-813.61 -733.589)" fill="#292561"/>
        <path id="Path_394" data-name="Path 394" d="M868.045,846.057a3.924,3.924,0,0,0,1.618-3.475l5.632-.6.959,4.074Z" transform="translate(-825.824 -733.454)" fill="#191937"/>
        <path id="Path_395" data-name="Path 395" d="M885.68,683.545l-12.821-3.415S872.2,686,868.6,686.84c-6.051,1.438-20.31,1.677-24.5,5.392-4.434,3.954-6.59,29.177-5.991,39.781l20.25-.479c.9-7.189-4.014-11.263-3.774-18.572.24-8.747,3.834-8.268,3.834-8.268s18.213.659,23.245-.9C886.638,702.3,885.68,683.545,885.68,683.545Z" transform="translate(-804.996 -621.206)" fill="#9859cd"/>
        <path id="Path_396" data-name="Path 396" d="M838.008,817.353c-.18,3.774-.18,7.249-.06,9.825l20.25-.479c.479-3.655-.6-6.47-1.677-9.346Z" transform="translate(-804.894 -716.372)" fill="#7a3ecb"/>
        <path id="Path_397" data-name="Path 397" d="M954.33,522.674V518.72s-3.055.06-4.134-1.078c-1.8-1.917-2.7-18.153,5.991-18.333s7.609,7.609,7.369,10.185-2.816,7.669-2.816,7.669l.12,5.572C960.8,524.112,954.21,523.992,954.33,522.674Z" transform="translate(-881.974 -495.803)" fill="#ffd1c4"/>
        <path id="Path_398" data-name="Path 398" d="M946.808,806.016a1.451,1.451,0,0,1-1.5-1.318l-3.355-25.522h-9.586l3.3,25.163a1.5,1.5,0,0,1-1.5,1.677,1.451,1.451,0,0,1-1.5-1.318l-3.355-25.522h-2.7L923.263,804.7a1.508,1.508,0,1,1-3-.359l3.3-25.163h-9.706L910.5,804.7a1.509,1.509,0,0,1-3-.359l3.3-25.163v-3.655H945.07v3.655h0l3.3,25.163a1.509,1.509,0,0,1-1.558,1.677Z" transform="translate(-853.184 -687.362)" fill="#cb6e39"/>
        <path id="Path_399" data-name="Path 399" d="M883.072,595.976c-.719,7.189-12.941,21.807-19.171,21.508-3.715-.18-8.388-7.309-11.263-12.282-.06-.12-.18-.3-.24-.419-1.438-2.516-2.337-4.373-2.337-4.373l4.134-4.074s1.318,1.558,3,3.475l.36.36c2.516,2.756,5.751,5.931,7.309,6.111,1.917.18,8.687-16.715,13.66-19.471C881.035,585.432,883.551,591.183,883.072,595.976Z" transform="translate(-813.352 -556.344)" fill="#ff9a05"/>
        <path id="Path_400" data-name="Path 400" d="M977.548,540.989a4.429,4.429,0,0,1-.479,1.737c-1.138,2.336-5.392,3.475-7.669,3.894a17.478,17.478,0,0,1-9.286-.779,19.544,19.544,0,0,1-11.383-11.563,22.522,22.522,0,0,1,.479-16.416c1.138-2.7,2.7-5.152,3.894-7.788s2.576-6.53,2.217-9.406a1.266,1.266,0,0,0-1.618-1.2c-.36.18-.659,1.078-.839,1.677a.753.753,0,0,1-.719.539.729.729,0,0,1-.719-.719h0c.06-.719,0-1.8-.539-2.217a8.641,8.641,0,0,0-3-1.138,5.2,5.2,0,0,1-2.756-1.5,3.43,3.43,0,0,1-.3-3.235,5.9,5.9,0,0,1,2.1-2.576,11.545,11.545,0,0,1,9.825-2.1,11.392,11.392,0,0,1,7.609,6.53c1.5,3.475,1.138,7.489.6,11.2-.3,2.157-.659,4.553.419,6.47,1.019,1.8,3,2.816,4.853,3.774s3.774,2.217,4.373,4.194c.958,3-1.558,6.231-.719,9.286.539,1.977,2.4,2.936,3.235,4.673C977.968,536.136,977.788,539.012,977.548,540.989Z" transform="translate(-878.892 -487.877)" fill="#464747"/>
        <path id="Path_401" data-name="Path 401" d="M863.033,630.252a16.211,16.211,0,0,1-4.913,4.972c-.06-.12-.18-.3-.24-.419a15.826,15.826,0,0,0,4.853-4.913A1.588,1.588,0,0,0,863.033,630.252Z" transform="translate(-818.775 -586.366)" fill="#ec8400"/>
        <path id="Path_402" data-name="Path 402" d="M875.78,644.933a6.928,6.928,0,0,1-3.475-.959,12.5,12.5,0,0,1-3.894-3.714,27.392,27.392,0,0,1-2.516-4.254l.419-.18a22.127,22.127,0,0,0,2.456,4.134,13.128,13.128,0,0,0,3.774,3.594,6.033,6.033,0,0,0,4.913.6,9.228,9.228,0,0,0,3.894-3.235c1.678-2.1,3.3-4.314,4.733-6.53l.419.24a73.958,73.958,0,0,1-4.793,6.59,10.162,10.162,0,0,1-4.074,3.415A6.344,6.344,0,0,1,875.78,644.933Z" transform="translate(-824.333 -589.485)" fill="#ec8400"/>
        <path id="Path_403" data-name="Path 403" d="M951.8,652.442l-7.309,31.573a6.735,6.735,0,0,1-6.59,5.152H900.873a2.339,2.339,0,0,1-2.336-2.336,2.176,2.176,0,0,1,.719-1.678,2.354,2.354,0,0,1,1.677-.659H916.99l6.47-28.038A7.179,7.179,0,0,1,930.41,651h20.31a1.158,1.158,0,0,1,1.078,1.438Z" transform="translate(-846.97 -601.008)" fill="#a5a1a1"/>
      </g>
    </g>
  </g>
</svg>
