<svg xmlns="http://www.w3.org/2000/svg" width="386" height="291" viewBox="0 0 386 291">
  <g id="Group_806" data-name="Group 806" transform="translate(-2554 105)">
    <path id="Path_1438" data-name="Path 1438" d="M0,0H386V291H0Z" transform="translate(2554 -105)" fill="none"/>
    <g id="Group_805" data-name="Group 805" transform="translate(1310.193 219.409)">
      <g id="SvgjsG1122" transform="translate(1295.374 -326.409)">
        <g id="Group_549" data-name="Group 549" transform="translate(14.433 2)">
          <path id="Path_144" data-name="Path 144" d="M172.135,57.2l-.483,162.509c0,3.181-1.107,5.395-2.9,6.417l-10.024,5.821c1.789-1.051,2.925-3.265,2.925-6.418l.454-162.509c.028-6.275-4.458-14.056-9.882-17.18L88.708,9.186c-2.783-1.619-5.282-1.761-7.1-.681l10-5.821c1.817-1.051,4.344-.937,7.1.681l63.55,36.659C167.649,43.175,172.135,50.927,172.135,57.2Z" transform="translate(17.853 -2)" fill="#dce8f1"/>
          <path id="Path_142" data-name="Path 142" d="M152.262,46.36a14.7,14.7,0,0,1,6.632,11.529l-.461,162.556c-.012,4.271-3.05,6-6.748,3.866l-63.49-36.656A14.9,14.9,0,0,1,81.527,176l.461-162.514C82,9.237,85,7.526,88.7,9.662l25.654,14.811a5.366,5.366,0,0,1,2.17,3.089,9.425,9.425,0,0,0,3.907,5.282c1.795,1.036,3.321.665,3.961-.739a1.393,1.393,0,0,1,2.181-.577Z" transform="translate(17.813 1.24)" fill="#255bb8"/>
          <path id="Path_145" data-name="Path 145" d="M140.615,57.511a1.4,1.4,0,0,1,1.4-.138,1.372,1.372,0,0,1,.58,1.269l.023,8.251a4.319,4.319,0,0,1-1.962,3.4c-1.089.629-1.971.126-1.975-1.125l-.023-8.251A4.329,4.329,0,0,1,140.615,57.511Z" transform="translate(45.269 24.551)" fill="#474756"/>
          <path id="Path_146" data-name="Path 146" d="M142.571,74.567a1.382,1.382,0,0,0-1.393.141,4.307,4.307,0,0,0-1.966,3.4l.022,8.252a1.365,1.365,0,0,0,.581,1.266l-1.579-.909a1.383,1.383,0,0,1-.573-1.274l-.022-8.252a4.311,4.311,0,0,1,1.959-3.4,1.4,1.4,0,0,1,1.393-.141Zm-4.96-6.018-.022-8.252a4.32,4.32,0,0,1,1.966-3.4,1.4,1.4,0,0,1,1.393-.142l1.571.916a1.4,1.4,0,0,0-1.393.142,4.313,4.313,0,0,0-1.959,3.4l.022,8.252a1.356,1.356,0,0,0,.573,1.259l-1.579-.909A1.41,1.41,0,0,1,137.611,68.549Z" transform="translate(44.758 24.254)" fill="#616173"/>
          <path id="Path_147" data-name="Path 147" d="M140.647,68.926a1.4,1.4,0,0,1,1.4-.143,1.378,1.378,0,0,1,.58,1.269l.023,8.251a4.328,4.328,0,0,1-1.962,3.4c-1.089.629-1.971.12-1.975-1.131l-.023-8.251A4.319,4.319,0,0,1,140.647,68.926Z" transform="translate(45.285 30.036)" fill="#474756"/>
          <path id="Path_148" data-name="Path 148" d="M153.332,43.964c5.421,3.13,9.9,10.892,9.885,17.162l-.461,162.514c-.018,6.375-4.529,8.883-9.95,5.753L89.28,192.716c-5.493-3.172-9.975-10.871-9.957-17.246l.461-162.514c.018-6.271,4.529-8.841,10.022-5.669Zm6.16,177.834.461-162.556a14.7,14.7,0,0,0-6.632-11.529l-25.69-14.832a1.393,1.393,0,0,0-2.181.577c-.64,1.4-2.166,1.776-3.961.739a9.426,9.426,0,0,1-3.907-5.282,5.366,5.366,0,0,0-2.17-3.089L89.759,11.015c-3.7-2.135-6.7-.425-6.712,3.825l-.461,162.514a14.9,14.9,0,0,0,6.668,11.654l63.49,36.656c3.7,2.135,6.736.4,6.748-3.866" transform="translate(16.754 -0.113)" fill="#4c4c5e"/>
          <path id="Path_143" data-name="Path 143" d="M129.582,81.837a4.133,4.133,0,0,1,1.871,3.241l-.1,36.24c0,1.188-.849,1.67-1.883,1.073L97.929,104.183a4.133,4.133,0,0,1-1.871-3.241l.1-36.24c0-1.188.849-1.67,1.883-1.073Z" transform="translate(24.797 27.497)" fill="#1352ab"/>
          <g id="Group_529" data-name="Group 529" transform="translate(116.567 92.793)">
            <path id="Path_149" data-name="Path 149" d="M130.27,86.378l-.109,36.235a1.317,1.317,0,0,1-.544,1.211L127.7,124.94a1.317,1.317,0,0,0,.545-1.211l.109-36.235a4.135,4.135,0,0,0-1.878-3.239L94.933,66.042a1.307,1.307,0,0,0-1.334-.122L95.519,64.8a1.307,1.307,0,0,1,1.334.122l31.539,18.213A4.156,4.156,0,0,1,130.27,86.378Z" transform="translate(-92.951 -64.671)" fill="#df85de"/>
            <path id="Path_150" data-name="Path 150" d="M126.686,83.889a4.133,4.133,0,0,1,1.871,3.241l-.1,36.24c0,1.188-.849,1.67-1.883,1.073L95.033,106.234a4.133,4.133,0,0,1-1.871-3.241l.1-36.24c0-1.188.849-1.67,1.883-1.073Z" transform="translate(-93.162 -64.31)" fill="#af5fec"/>
            <path id="Path_151" data-name="Path 151" d="M120.538,89.246a2.357,2.357,0,0,1,1.073,1.859l-.043,15.231c0,.69-.486.973-1.08.63l-22.7-13.105a2.4,2.4,0,0,1-1.086-1.88l.043-15.231c0-.69.492-.955,1.093-.608Zm-6.934,5.79c.36-.1.362-.71,0-1.223L107.533,85.1a1.256,1.256,0,0,0-.389-.375c-.341-.2-.663-.073-.664.372l-.03,10.41a1.436,1.436,0,0,0,.652,1.134.5.5,0,0,0,.4.071l6.1-1.675" transform="translate(-91.46 -59.232)" fill="#fff"/>
          </g>
          <g id="Group_533" data-name="Group 533" transform="translate(58.829 105.418)">
            <path id="Path_159" data-name="Path 159" d="M56.189,92.68a15.041,15.041,0,0,0-1.9,6.888c-.617,7.913,1.141,15.8,2.888,23.54l4.094,18.143c.146.647.393,1.406,1.033,1.581.835.228,1.486-.712,1.829-1.507a69.419,69.419,0,0,0,3.758-43.1c-.748-3.158-1.9-6.84-4.866-8.626C60.589,88.126,57.459,90.655,56.189,92.68Z" transform="translate(-54.166 -65.528)" fill="#e22951"/>
            <path id="Path_160" data-name="Path 160" d="M67.814,179.133a55.75,55.75,0,0,0,8.163-1.579c1.695-.55,4.393-1.167,4.946-.5a2.845,2.845,0,0,1-.484,3.508c-1.141,1.118-6.5,6.117-8.232,6.291s-4.012.091-4.393.959a3.7,3.7,0,0,1-3.044,2c-1.591.159-3.286-.12-3.666-1.016a19.189,19.189,0,0,1,0-6.607C61.484,180.736,64.459,178.95,67.814,179.133Z" transform="translate(-50.969 -23.421)" fill="#fff"/>
            <path id="Path_161" data-name="Path 161" d="M75.71,130.022H59.993v3.195l-4.341-.3c1.6,7.393,4.775,22.5,5.471,27.373.927,6.488,2.008,7.415.772,14.058s.653,30.58,2.26,31.353,6.4.773,7.632-1.545-.155-22.864,2.472-32.288C76.536,163.7,77.186,139.062,75.71,130.022Z" transform="translate(-53.452 -45.887)" fill="#4c4c5e"/>
            <path id="Path_162" data-name="Path 162" d="M78.04,182.432a55.747,55.747,0,0,0,8.163-1.579c1.695-.55,4.393-1.167,4.946-.5a2.845,2.845,0,0,1-.484,3.508c-1.141,1.118-6.5,6.117-8.232,6.291s-4.012.091-4.393.959a3.7,3.7,0,0,1-3.044,2c-1.591.159-3.286-.12-3.666-1.016a19.19,19.19,0,0,1,0-6.607C71.71,184.035,74.684,182.25,78.04,182.432Z" transform="translate(-46.054 -21.836)" fill="#fff"/>
            <path id="Path_163" data-name="Path 163" d="M86.111,133.064H70.395v3.195l-4.341-.3c1.6,7.393,4.775,22.5,5.471,27.373.927,6.488,2.008,7.415.772,14.058s.653,30.58,2.26,31.353,6.4.772,7.632-1.545-.155-22.864,2.472-32.288C86.938,166.739,87.588,142.1,86.111,133.064Z" transform="translate(-48.452 -44.425)" fill="#616173"/>
            <path id="Path_164" data-name="Path 164" d="M92.027,102.8s-8.58-9.861-16.052-11.545-12.366-2.9-15.049-2c-2.47.832-6.549,10.588-4.841,16.943,1.438,5.349,3.157,13.891,3.157,19.469,1.773,13.1-2.623,10.022-3.563,26.549-.737,2.21,9.078,8.8,22.085,10.6s14.325-4.21,14.325-4.21C92.175,137.859,82.656,131.114,92.027,102.8Z" transform="translate(-53.458 -65.629)" fill="#ea3d5b"/>
            <path id="Path_165" data-name="Path 165" d="M102.946,98.221a7.272,7.272,0,0,0-1.083,1.709c-.116.214-.2.439-.316.654-.588,1.128-1.182,2.253-1.8,3.435-1.658-.78-3.312-1.562-4.988-2.352.279-.424.538-.8.776-1.181.786-1.268,1.574-2.54,2.352-3.813a4.319,4.319,0,0,0,.571-2.239c.016-.934.1-1.868.2-2.8a1.685,1.685,0,0,1,.517-1.056,18.551,18.551,0,0,1,1.34-1.38c.728-.563.9-1.431,1.343-2.147l.55-.956c.4-.694.806-1.393,1.242-2.069a5.7,5.7,0,0,1,.752-.882.531.531,0,0,1,.693-.057.613.613,0,0,1,.313.643,2.092,2.092,0,0,1-.208.656c-.349.694-.729,1.366-1.072,2.063-.329.658-.629,1.333-.978,2.081,1.325-.809,1.65-.685,1.851.621.761.271,1.082.415.7,1.954.573.274.569.813.534,1.326a6.8,6.8,0,0,1-.25,1.36,3.086,3.086,0,0,1-.386.607c-.281.488-.573.97-.82,1.474A9.482,9.482,0,0,1,102.946,98.221Z" transform="translate(-34.658 -68.492)" fill="#fed0b5"/>
            <g id="Group_531" data-name="Group 531" transform="translate(15.245 3.88)">
              <path id="Path_166" data-name="Path 166" d="M80.508,94.182c-.665,1.5-1.663.583-3.99,1.912-2.411,1.331.5,3.89.5,3.89-3.242,3.16-12.556-2.558-12.556-2.558,1.663-1.415.914-20.037,1.663-20.784.665-.832,12.387-1.664,14.632.913C82.919,80.049,81.09,92.686,80.508,94.182Z" transform="translate(-64.462 -75.819)" fill="#fed0b5"/>
            </g>
            <g id="Group_532" data-name="Group 532" transform="translate(12.944)">
              <path id="Path_167" data-name="Path 167" d="M63.973,88.531c1.584,2.441.757,3.731,1.646,4.447s3.869,2.48,5.665.769,2.33-5.79,5.292-4.911,1.811.389,3.288-2,1.23-1.22,1.278-3.627,3.982-3.15,3.246-4.877-2.46-6.793-12.872-4.589S62.389,86.09,63.973,88.531Z" transform="translate(-62.909 -73.198)" fill="#2a2a38"/>
            </g>
            <path id="Path_168" data-name="Path 168" d="M77.379,94.785A4.623,4.623,0,0,0,71.4,97.157c-1.315,2.687-2.016,6.743,2.191,10.737,7.212,6.847,26.475,13.146,29.123,9.129s10.773-17.62,11.32-21.18-6.3-3.469-6.3-3.469l-10.773,14.7S84.337,97.707,77.379,94.785Z" transform="translate(-46.371 -63.982)" fill="#ea3d5b"/>
          </g>
          <g id="Group_539" data-name="Group 539" transform="translate(144.947 204.505)">
            <path id="Path_169" data-name="Path 169" d="M112.949,184.218,172.007,149.9l-.028,10.025-59.058,34.321Z" transform="translate(-112.044 -135.422)" fill="#e22951"/>
            <path id="Path_170" data-name="Path 170" d="M112.921,190.989l59.058-34.321,44.813,25.874-59.056,34.319Z" transform="translate(-112.044 -132.168)" fill="#ff6c85"/>
            <path id="Path_171" data-name="Path 171" d="M199.619,166.076,143.07,198.94l-.036,12.042L199.619,178.1Z" transform="translate(-97.571 -127.646)" fill="#cfdee8"/>
            <path id="Path_172" data-name="Path 172" d="M157.177,197.807l-43.569-25.144.03,10.025,43.539,25.128Z" transform="translate(-111.714 -124.481)" fill="#e7f1f7"/>
            <path id="Path_173" data-name="Path 173" d="M143.189,208.462l59.056-34.319,0,1-59.056,34.321Z" transform="translate(-97.498 -123.769)" fill="#e22951"/>
            <path id="Path_174" data-name="Path 174" d="M143.21,201.013l59.056-34.319,0,1-59.056,34.321Z" transform="translate(-97.488 -127.349)" fill="#e22951"/>
            <path id="Path_175" data-name="Path 175" d="M112.352,183.2l59.058-34.319L217.1,175.256,158.04,209.576Z" transform="translate(-112.318 -135.912)" fill="#ff6c85"/>
            <path id="Path_176" data-name="Path 176" d="M158.051,198.435l0,1-44.814-25.872-.028,10.025,44.814,25.872,0,1-45.688-26.377.034-12.033Z" transform="translate(-112.329 -124.771)" fill="#ea3d5b"/>
            <g id="Group_535" data-name="Group 535" transform="translate(0.471)">
              <path id="Path_177" data-name="Path 177" d="M112.649,181.9l59.056-34.321,44.814,25.872-59.058,34.321Z" transform="translate(-112.646 -136.538)" fill="#ffe088"/>
              <path id="Path_178" data-name="Path 178" d="M157.8,189.245,114.227,164.1l.028,10.025L157.8,199.254Z" transform="translate(-111.888 -128.596)" fill="#e7f1f7"/>
              <path id="Path_179" data-name="Path 179" d="M143.544,192.258,202.6,157.939l-.034,12.042L143.508,204.3Z" transform="translate(-97.814 -131.557)" fill="#ffb839"/>
              <path id="Path_180" data-name="Path 180" d="M112.67,174.44l59.056-34.319,45.7,26.382-59.056,34.319Z" transform="translate(-112.636 -140.121)" fill="#fece51"/>
              <g id="Group_534" data-name="Group 534" transform="translate(0 34.319)">
                <path id="Path_187" data-name="Path 187" d="M158.376,189.682l-.036,12.042-45.694-26.382,0-1,44.813,25.872.028-10.034L112.678,164.3l0-1Z" transform="translate(-112.647 -163.3)" fill="#ffc950"/>
              </g>
            </g>
            <g id="Group_536" data-name="Group 536" transform="translate(14.756 45.808)">
              <path id="Path_188" data-name="Path 188" d="M126.2,173.305l-.018,5.028-2.159-2.24-1.731-.006.016-5.028Z" transform="translate(-122.295 -171.059)" fill="#7cdf82"/>
            </g>
            <g id="Group_537" data-name="Group 537" transform="translate(33.809 69.6)">
              <path id="Path_189" data-name="Path 189" d="M139.07,189.374l-.016,5.027-2.159-2.239-1.732-.007.018-5.027Z" transform="translate(-135.163 -187.128)" fill="#255bb8"/>
            </g>
          </g>
          <g id="Group_540" data-name="Group 540" transform="translate(36.653 19.303)">
            <path id="Path_196" data-name="Path 196" d="M73.172,35.542A4.883,4.883,0,0,1,75.4,39.381L75.33,62.533c0,1.415-1,1.993-2.239,1.276l-17.6-10.16L46.25,55.814,47.5,49.035l-6.1-3.522a4.883,4.883,0,0,1-2.213-3.846l.066-23.152c0-1.4,1-1.98,2.228-1.269Z" transform="translate(-39.189 -14.122)" fill="#fec22d"/>
            <path id="Path_197" data-name="Path 197" d="M45.773,26.237a7.038,7.038,0,0,1,3.2,5.539c-.006,2.033-1.449,2.856-3.219,1.834a7.057,7.057,0,0,1-3.2-5.539C42.56,26.026,44,25.216,45.773,26.237Zm9.913,5.723a7.038,7.038,0,0,1,3.2,5.539c-.006,2.033-1.449,2.856-3.219,1.834a7.057,7.057,0,0,1-3.2-5.539C52.473,31.749,53.916,30.939,55.685,31.96ZM65.6,37.683a7.038,7.038,0,0,1,3.2,5.539c-.006,2.033-1.449,2.856-3.219,1.834a7.057,7.057,0,0,1-3.2-5.539C62.385,37.472,63.829,36.662,65.6,37.683Z" transform="translate(-37.571 -9.866)" fill="#fff"/>
            <path id="Path_198" data-name="Path 198" d="M80.022,37.469l-.069,23.156a1.567,1.567,0,0,1-.654,1.446l-4.855,2.806a1.516,1.516,0,0,0,.654-1.428l.069-23.156a4.917,4.917,0,0,0-2.221-3.839l-31.7-18.3a1.577,1.577,0,0,0-1.584-.138l4.855-2.824a1.545,1.545,0,0,1,1.584.155L77.8,33.63A4.917,4.917,0,0,1,80.022,37.469Z" transform="translate(-38.959 -15.037)" fill="#fece51"/>
          </g>
          <g id="Group_542" data-name="Group 542" transform="translate(202.81 86.692)">
            <path id="Path_199" data-name="Path 199" d="M201.39,91.757l-.114,34.728c0,1.85-.655,3.16-1.708,3.759l-3.677,2.138c1.053-.626,1.708-1.907,1.708-3.786l.114-34.7a12.925,12.925,0,0,0-5.894-10.222L156.886,63.488c-1.651-.94-3.16-1.025-4.242-.4l3.677-2.138c1.082-.627,2.591-.541,4.242.427L195.5,81.536A12.923,12.923,0,0,1,201.39,91.757Z" transform="translate(-150.817 -60.551)" fill="#b4c4cc"/>
            <path id="Path_200" data-name="Path 200" d="M192.407,82.979a13.016,13.016,0,0,1,5.907,10.211l-.114,34.722c-.011,3.74-2.673,5.257-5.945,3.368l-34.938-20.171A13.016,13.016,0,0,1,151.41,100.9l.114-34.722c.011-3.74,2.673-5.257,5.945-3.368Z" transform="translate(-151.41 -59.857)" fill="#e7f1f7"/>
            <g id="Group_541" data-name="Group 541" transform="translate(4.38 11.641)">
              <path id="Path_201" data-name="Path 201" d="M182.891,88.752l-.007,2.867-8.5-4.908.009-2.866Z" transform="translate(-144.749 -60.996)" fill="#616173"/>
              <path id="Path_202" data-name="Path 202" d="M175.112,99.431,175.1,102.3,154.368,90.329l.009-2.869Z" transform="translate(-154.368 -59.259)" fill="#616173"/>
              <path id="Path_203" data-name="Path 203" d="M187.37,96.4l-.007,2.866-22.343-12.9.009-2.866Z" transform="translate(-149.248 -61.164)" fill="#616173"/>
              <path id="Path_204" data-name="Path 204" d="M180.842,97.683l-.007,2.869L154.383,85.281l.007-2.871Z" transform="translate(-154.361 -61.686)" fill="#616173"/>
              <path id="Path_205" data-name="Path 205" d="M168.245,85.354l-.007,2.866L154.4,80.229l.007-2.866Z" transform="translate(-154.354 -64.111)" fill="#616173"/>
              <path id="Path_206" data-name="Path 206" d="M181.863,88.158l-.009,2.867L154.411,75.18l.009-2.866Z" transform="translate(-154.347 -66.538)" fill="#616173"/>
              <path id="Path_207" data-name="Path 207" d="M186.111,84.818l-.009,2.869L157.689,71.282l.007-2.869Z" transform="translate(-152.772 -68.413)" fill="#b4c4cc"/>
              <path id="Path_208" data-name="Path 208" d="M183.155,99.017l-.009,2.871-9.4-5.428.009-2.869Z" transform="translate(-145.054 -56.312)" fill="#616173"/>
            </g>
          </g>
          <g id="Group_548" data-name="Group 548" transform="translate(0 96.57)">
            <path id="Path_209" data-name="Path 209" d="M15.474,86.8c1.244-.666,3.549-1.115,5.6-3.057-.024-.035,1.881-.753,1.985-.113.018.623-1.933,1.892-4.3,2.634.036-.057,2.2.36,2.829.43a3.892,3.892,0,0,0,3.458-2.134c1.191-2.055,3,.441,2.607.731A10.518,10.518,0,0,1,23.575,87.2c.085-.054,2.082,1.219,2.877.722.865-.6,2.276-.241,2.863-2.61-.036.014.756-1.01,2.055.638,1,1.493-3.75,2.393-3.545,2.644a3.474,3.474,0,0,0,3.493.4c1.909-.971,2.179-2.174,3.14-1.5,1.029.847-.155,2.132-2.971,2.693.081-.378,3.865,3.1,5.661,1.319a3.426,3.426,0,0,0-.061-2.325s0,0,0,0a2.351,2.351,0,0,0-.155-.295s0,0,0,0c-.019-.031-.038-.06-.059-.09h.01a4.086,4.086,0,0,0,1.167-.157c1-.235,2.58-1.579-.343-5.293a16.9,16.9,0,0,0-9.813-5.717c.331-.285,6.376,4.329,3.632,3.95-2.178-.484-5.4-4.159-6.775-4.091-1.236-.275-6.76,1.588-6.871,2.365a31.266,31.266,0,0,1,6.319-.8c1.446-.2,3.382.6,2.819,1.191-.54.58-2,.559-3.585.289-1.5-.364-5.265-.767-7.575,1.231-2.143,1.964-.5,1.789-.545,1.78a14.432,14.432,0,0,1,4.613-2.25c1.437-.321,2.554-.095,2.4.314a3.09,3.09,0,0,1-2.06,1.412c-.871-.026-4.309.165-5.8,2.145C14.411,85.186,14.3,87.432,15.474,86.8Z" transform="translate(-14.433 -62.303)" fill="#75d178"/>
            <path id="Path_210" data-name="Path 210" d="M21.669,81.4c5.667-1.121,10.509,3.069,11.733,5.769a4.086,4.086,0,0,0,1.167-.157,11.906,11.906,0,0,0-9.277-6.141A7.421,7.421,0,0,0,21.669,81.4Z" transform="translate(-10.956 -60.675)" fill="#75d178"/>
            <path id="Path_211" data-name="Path 211" d="M49.2,99.895A39.6,39.6,0,0,1,46,113.868a39.216,39.216,0,0,1-2.379,4.642,6.968,6.968,0,0,1-11.943,0A39.492,39.492,0,0,1,26.1,99.895Z" transform="translate(-8.824 -51.519)" fill="#474756"/>
            <path id="Path_212" data-name="Path 212" d="M45.788,97.056c4.523,2.611,4.547,6.846.053,9.458s-11.8,2.612-16.328,0-4.547-6.846-.053-9.458S41.263,94.444,45.788,97.056Z" transform="translate(-8.824 -53.825)" fill="#616173"/>
            <path id="Path_213" data-name="Path 213" d="M45.119,97.2a16.98,16.98,0,0,0-15.41,0c-2.691,1.564-3.666,3.744-2.928,5.758a6.325,6.325,0,0,1,2.928-3.127,16.982,16.982,0,0,1,15.41,0A6.394,6.394,0,0,1,48.1,103C48.84,100.974,47.846,98.774,45.119,97.2Z" transform="translate(-8.614 -53.703)" fill="#474756"/>
            <path id="Path_214" data-name="Path 214" d="M45.042,98.977a16.982,16.982,0,0,0-15.41,0A6.325,6.325,0,0,0,26.7,102.1a6.394,6.394,0,0,0,2.979,3.167,16.981,16.981,0,0,0,15.41,0,6.327,6.327,0,0,0,2.928-3.127A6.394,6.394,0,0,0,45.042,98.977Z" transform="translate(-8.536 -52.849)" fill="#7f5341"/>
            <path id="Path_215" data-name="Path 215" d="M34.642,115.333q.264-5.306.061-10.629t-.873-10.61c-.441-3.523-1.1-7.033-1.493-10.585a47.908,47.908,0,0,1-.323-5.347,28.991,28.991,0,0,1,.471-5.324,28.9,28.9,0,0,0-.287,5.322,47.632,47.632,0,0,0,.5,5.3c.513,3.517,1.29,6.995,1.856,10.526s.987,7.084,1.247,10.654.362,7.154.308,10.739C35.642,115.848,35.149,115.756,34.642,115.333Z" transform="translate(-5.984 -64.524)" fill="#7cdf82"/>
            <path id="Path_216" data-name="Path 216" d="M38.939,114.633,37.832,93.856c-.182-3.46-.395-6.938-.273-10.417a41.177,41.177,0,0,1,.488-5.192,28.157,28.157,0,0,1,1.286-5.041,28.065,28.065,0,0,0-1.1,5.067,40.91,40.91,0,0,0-.3,5.172c0,3.458.334,6.9.639,10.359l1.84,20.725C40.319,115.057,39.084,114.961,38.939,114.633Zm-6.531-1.03a23.946,23.946,0,0,0,.548-7.571,24.3,24.3,0,0,0-.628-3.778l-.118-.466c-.039-.155-.089-.308-.133-.462l-.136-.461c-.047-.153-.1-.3-.152-.456l-.154-.456-.171-.45-.172-.45-.185-.445c-1.013-2.369-2.376-4.62-3.393-7.045A18.131,18.131,0,0,1,26.562,87.8a10.7,10.7,0,0,1-.028-3.908,10.6,10.6,0,0,0,.208,3.871,17.858,17.858,0,0,0,1.309,3.649c1.113,2.342,2.571,4.51,3.726,6.89l.212.449.2.455.2.456.181.463c.059.155.123.308.179.464l.163.47c.053.157.112.313.16.472l.145.477a25.352,25.352,0,0,1,.632,11.9A1.359,1.359,0,0,1,32.408,113.6Zm3.767.774a24.986,24.986,0,0,0,.15-2.638c-.006-.885-.054-1.772-.137-2.659s-.217-1.772-.368-2.656-.34-1.764-.54-2.643c-.809-3.515-1.937-6.986-2.769-10.55-.206-.891-.4-1.787-.559-2.689s-.29-1.811-.387-2.723-.143-1.83-.151-2.749a25.58,25.58,0,0,1,.156-2.747,22.468,22.468,0,0,1,.5-2.7,19.169,19.169,0,0,1,.881-2.6,16.458,16.458,0,0,1,1.3-2.408,14.682,14.682,0,0,1,1.739-2.1,14.635,14.635,0,0,0-1.662,2.152,16.321,16.321,0,0,0-1.209,2.428,18.932,18.932,0,0,0-.783,2.593,22.153,22.153,0,0,0-.4,2.675,25.174,25.174,0,0,0-.063,2.7c.038.9.122,1.8.239,2.692s.285,1.781.471,2.665.407,1.76.641,2.633c.94,3.494,2.182,6.915,3.126,10.463.234.887.451,1.781.643,2.683s.347,1.814.473,2.734.2,1.849.238,2.782a26.4,26.4,0,0,1-.065,2.811A1.485,1.485,0,0,1,36.176,114.377Z" transform="translate(-8.698 -64.681)" fill="#75d178"/>
            <path id="Path_217" data-name="Path 217" d="M35.416,114.228q.419-5.253.91-10.49t1.051-10.474c.381-3.488.791-6.974,1.28-10.45.246-1.738.512-3.473.829-5.2.16-.863.333-1.724.539-2.577.105-.426.214-.852.349-1.27.031-.105.068-.209.1-.312l.055-.155.061-.153c.021-.051.04-.1.062-.152l.07-.149a3.086,3.086,0,0,1,.158-.288,3.069,3.069,0,0,0-.148.293L40.673,73c-.021.051-.038.1-.057.154l-.056.154-.049.157c-.032.1-.066.208-.093.315-.119.421-.213.849-.3,1.277-.175.858-.318,1.722-.448,2.588-.256,1.732-.461,3.472-.646,5.214-.367,3.484-.654,6.977-.913,10.471s-.481,6.992-.684,10.49-.386,7-.542,10.5A1.154,1.154,0,0,1,35.416,114.228Z" transform="translate(-4.349 -64.658)" fill="#75d178"/>
            <path id="Path_218" data-name="Path 218" d="M59.559,95.081c-1.139-.832-3.359-1.6-5.123-3.805.029-.032-1.758-1.007-1.95-.388-.1.615,1.652,2.143,3.891,3.205-.028-.062-2.228.051-2.862.033a3.892,3.892,0,0,1-3.129-2.594c-.894-2.2-3.028.021-2.684.361a10.518,10.518,0,0,0,3.776,2.465c-.076-.065-2.231.918-2.95.315-.773-.715-2.22-.555-2.473-2.982.034.019-.609-1.105-2.124.347-1.195,1.341,3.382,2.891,3.143,3.111a3.474,3.474,0,0,1-3.515-.093c-1.755-1.227-1.856-2.456-2.9-1.917-1.137.7-.143,2.133,2.568,3.08-.028-.386-4.258,2.535-5.789.52a3.426,3.426,0,0,1,.383-2.294l0,0a2.352,2.352,0,0,1,.195-.27s0,0,0,0c.023-.028.046-.054.071-.081h-.01a4.086,4.086,0,0,1-1.134-.318c-.955-.371-2.336-1.922,1.074-5.194a16.9,16.9,0,0,1,10.512-4.3c-.288-.328-6.915,3.4-4.145,3.407,2.225-.177,5.926-3.368,7.278-3.11,1.262-.1,6.474,2.512,6.476,3.3A31.267,31.267,0,0,0,52,86.2c-1.4-.4-3.433.126-2.957.788.454.649,1.9.831,3.51.784,1.539-.151,5.32-.028,7.33,2.271,1.85,2.243.245,1.841.292,1.838a14.432,14.432,0,0,0-4.255-2.869c-1.378-.518-2.516-.449-2.418-.022a3.09,3.09,0,0,0,1.844,1.684c.866.1,4.244.762,5.445,2.93C60.835,93.633,60.632,95.873,59.559,95.081Z" transform="translate(-4.141 -59.036)" fill="#75d178"/>
            <path id="Path_219" data-name="Path 219" d="M50.147,88.476c-5.456-1.9-10.834,1.58-12.421,4.083a4.086,4.086,0,0,1-1.134-.318,11.906,11.906,0,0,1,10.04-4.793A7.421,7.421,0,0,1,50.147,88.476Z" transform="translate(-3.783 -57.509)" fill="#7cdf82"/>
            <path id="Path_220" data-name="Path 220" d="M53.3,77.157c-1.388.25-3.475,1.328-6.289,1.08,0-.043-1.942.577-1.627,1.143.373.5,2.69.284,5.005-.6-.064-.022-1.5,1.648-1.952,2.093a3.892,3.892,0,0,1-4.036.473c-2.209-.872-2.075,2.205-1.591,2.191A10.518,10.518,0,0,0,47.2,82.5c-.1.01-.875,2.248-1.808,2.352-1.051.066-1.934,1.224-3.865-.269.037-.011-1.22-.323-1.215,1.776.145,1.79,4.426-.452,4.421-.127a3.474,3.474,0,0,1-2.493,2.479c-2.1.423-3.058-.352-3.39.776-.281,1.3,1.445,1.575,4,.268-.3-.246-1.105,4.831-3.62,4.548a3.426,3.426,0,0,1-1.4-1.861s0,0,0,0a2.35,2.35,0,0,1-.061-.327s0,0,0,0c0-.036-.007-.071-.009-.107a.027.027,0,0,0-.007.006,4.086,4.086,0,0,1-1.013.6c-.928.435-3,.364-3.017-4.363a16.9,16.9,0,0,1,4.145-10.573c-.436-.018-2.312,7.352-.4,5.351,1.407-1.732,1.653-6.613,2.773-7.413.8-.983,6.286-2.95,6.855-2.411a31.267,31.267,0,0,0-5.453,3.292c-1.259.74-2.278,2.571-1.471,2.684.783.12,1.914-.8,2.99-2,.953-1.218,3.652-3.869,6.7-3.736,2.9.209,1.5,1.093,1.532,1.057a14.431,14.431,0,0,0-5.013,1.1c-1.326.64-2.061,1.511-1.685,1.734a3.09,3.09,0,0,0,2.492-.172c.667-.561,3.481-2.545,5.878-1.917C53.129,75.234,54.61,76.927,53.3,77.157Z" transform="translate(-5.162 -64.393)" fill="#94ed96"/>
            <path id="Path_221" data-name="Path 221" d="M42.433,77.9c-5.139,2.638-6.335,8.93-5.619,11.806a4.086,4.086,0,0,1-1.013.6,11.906,11.906,0,0,1,3.463-10.573A7.421,7.421,0,0,1,42.433,77.9Z" transform="translate(-4.223 -62.09)" fill="#7cdf82"/>
            <g id="Group_543" data-name="Group 543" transform="translate(14.406 17.209)">
              <path id="Path_222" data-name="Path 222" d="M24.705,82.892c1.388.25,3.475,1.328,6.289,1.08,0-.043,1.942.577,1.627,1.143-.373.5-2.69.284-5.005-.6.064-.022,1.5,1.648,1.952,2.093a3.892,3.892,0,0,0,4.036.473c2.209-.872,2.075,2.205,1.591,2.191a10.517,10.517,0,0,1-4.39-1.031c.1.01.875,2.248,1.808,2.352,1.051.066,1.934,1.224,3.865-.269-.037-.011,1.22-.323,1.215,1.776-.146,1.79-4.426-.452-4.421-.127a3.474,3.474,0,0,0,2.493,2.479c2.1.423,3.058-.352,3.39.776.281,1.3-1.445,1.575-4,.268.3-.246,1.1,4.831,3.62,4.548a3.426,3.426,0,0,0,1.4-1.861v0a2.353,2.353,0,0,0,.061-.327s0,0,0,0c0-.036.007-.071.009-.107,0,0,0,0,.007.006a4.087,4.087,0,0,0,1.013.6c.928.435,3,.364,3.017-4.363A16.9,16.9,0,0,0,40.132,83.41c.436-.018,2.312,7.352.4,5.351-1.407-1.732-1.653-6.613-2.773-7.413-.8-.983-6.286-2.95-6.855-2.411a31.264,31.264,0,0,1,5.453,3.292c1.259.74,2.278,2.571,1.471,2.684-.783.12-1.914-.8-2.99-2-.953-1.218-3.652-3.869-6.7-3.736-2.9.209-1.5,1.093-1.532,1.057a14.431,14.431,0,0,1,5.013,1.1c1.326.64,2.061,1.511,1.685,1.734A3.09,3.09,0,0,1,30.8,82.9c-.667-.561-3.481-2.545-5.878-1.917C24.872,80.97,23.391,82.663,24.705,82.892Z" transform="translate(-24.163 -78.846)" fill="#94ed96"/>
              <path id="Path_223" data-name="Path 223" d="M31.232,83.637c5.139,2.638,6.335,8.93,5.619,11.806a4.086,4.086,0,0,0,1.013.6A11.906,11.906,0,0,0,34.4,85.47,7.421,7.421,0,0,0,31.232,83.637Z" transform="translate(-20.766 -76.543)" fill="#7cdf82"/>
            </g>
            <g id="Group_544" data-name="Group 544" transform="translate(23.421)">
              <path id="Path_224" data-name="Path 224" d="M49.824,71.269c-1.388.25-3.475,1.328-6.289,1.08,0-.043-1.942.577-1.627,1.143.373.5,2.69.284,5.005-.6-.064-.022-1.5,1.648-1.952,2.093a3.892,3.892,0,0,1-4.036.473c-2.209-.872-2.075,2.205-1.591,2.191a10.518,10.518,0,0,0,4.39-1.031c-.1.01-.875,2.248-1.808,2.352-1.051.066-1.934,1.224-3.865-.269.037-.011-1.22-.323-1.215,1.776.145,1.79,4.426-.452,4.421-.127a3.474,3.474,0,0,1-2.493,2.479c-2.1.423-3.058-.352-3.39.776-.281,1.3,1.445,1.575,4,.268-.3-.246-1.105,4.831-3.62,4.548a3.426,3.426,0,0,1-1.4-1.861v0a2.35,2.35,0,0,1-.061-.327s0,0,0,0c0-.036-.007-.071-.009-.107,0,0,0,0-.007.006a4.086,4.086,0,0,1-1.013.6c-.928.435-3,.364-3.017-4.363A16.9,16.9,0,0,1,34.4,71.787c-.436-.018-2.312,7.352-.4,5.351,1.407-1.732,1.653-6.613,2.773-7.413.8-.983,6.286-2.95,6.855-2.411a31.265,31.265,0,0,0-5.453,3.292c-1.259.74-2.278,2.571-1.471,2.684.783.12,1.914-.8,2.99-2,.953-1.218,3.652-3.869,6.7-3.736,2.9.209,1.5,1.093,1.532,1.057a14.432,14.432,0,0,0-5.013,1.1c-1.326.64-2.061,1.511-1.685,1.734a3.09,3.09,0,0,0,2.492-.172c.667-.561,3.481-2.545,5.878-1.917C49.657,69.347,51.138,71.04,49.824,71.269Z" transform="translate(-30.252 -67.223)" fill="#acf9ac"/>
              <path id="Path_225" data-name="Path 225" d="M38.961,72.014c-5.139,2.638-6.335,8.93-5.619,11.806a4.086,4.086,0,0,1-1.013.6,11.906,11.906,0,0,1,3.463-10.573A7.42,7.42,0,0,1,38.961,72.014Z" transform="translate(-29.312 -64.92)" fill="#94ed96"/>
            </g>
            <g id="Group_545" data-name="Group 545" transform="translate(5.728 1.032)">
              <path id="Path_226" data-name="Path 226" d="M18.882,72.422c1.4.152,3.559,1.082,6.349.638,0-.043,1.978.44,1.7,1.027-.337.525-2.664.471-5.035-.252.062-.027,1.613,1.539,2.093,1.952a3.892,3.892,0,0,0,4.059.19c2.143-1.024,2.224,2.055,1.74,2.075a10.517,10.517,0,0,1-4.451-.722c.1,0,1.03,2.181,1.968,2.22,1.053-.008,2.014,1.085,3.836-.539C31.106,79,32.338,78.6,32.48,80.7c-.02,1.8-4.447-.141-4.419.182a3.474,3.474,0,0,0,2.66,2.3c2.124.276,3.026-.565,3.436.537.371,1.28-1.331,1.673-3.972.547.28-.266,1.44,4.742,3.929,4.284a3.426,3.426,0,0,0,1.262-1.954s0,0,0,0a2.352,2.352,0,0,0,.038-.331s0,0,0,0c0-.036,0-.071,0-.108a.027.027,0,0,1,.008.006,4.085,4.085,0,0,0,1.052.529c.956.369,3.021.153,2.7-4.563A16.9,16.9,0,0,0,34.307,71.86c.434-.049,2.82,7.172.769,5.31-1.525-1.629-2.112-6.481-3.285-7.2-.865-.925-6.477-2.5-7.007-1.926a31.267,31.267,0,0,1,5.67,2.9c1.308.65,2.452,2.405,1.655,2.574-.773.174-1.965-.667-3.122-1.784-1.036-1.149-3.913-3.6-6.948-3.258-2.878.412-1.421,1.2-1.454,1.162a14.431,14.431,0,0,1,5.078.746c1.368.546,2.162,1.363,1.8,1.612a3.09,3.09,0,0,1-2.5,0c-.7-.513-3.651-2.3-6-1.5C18.914,70.492,17.555,72.284,18.882,72.422Z" transform="translate(-18.302 -67.92)" fill="#94ed96"/>
              <path id="Path_227" data-name="Path 227" d="M25.523,72.545c5.311,2.273,6.944,8.465,6.431,11.384a4.086,4.086,0,0,0,1.052.529,11.906,11.906,0,0,0-4.193-10.305A7.421,7.421,0,0,0,25.523,72.545Z" transform="translate(-14.831 -65.697)" fill="#7cdf82"/>
            </g>
            <g id="Group_546" data-name="Group 546" transform="translate(28.826 15.157)">
              <path id="Path_228" data-name="Path 228" d="M57.808,86.8c-1.244-.666-3.549-1.115-5.6-3.057.024-.035-1.881-.753-1.985-.113-.018.623,1.933,1.892,4.3,2.634-.036-.057-2.2.36-2.829.43a3.892,3.892,0,0,1-3.458-2.134c-1.191-2.055-3,.441-2.607.731A10.518,10.518,0,0,0,49.706,87.2c-.085-.054-2.082,1.219-2.877.722-.865-.6-2.276-.241-2.863-2.61.036.014-.756-1.01-2.055.638-1,1.493,3.75,2.393,3.545,2.644a3.474,3.474,0,0,1-3.493.4c-1.909-.971-2.179-2.174-3.14-1.5-1.029.847.155,2.132,2.971,2.693-.081-.378-3.865,3.1-5.661,1.319a3.426,3.426,0,0,1,.061-2.325v0a2.352,2.352,0,0,1,.155-.295s0,0,0,0c.019-.031.038-.06.059-.09H36.4a4.086,4.086,0,0,1-1.167-.157c-1-.235-2.58-1.579.343-5.293a16.9,16.9,0,0,1,9.813-5.717c-.331-.285-6.376,4.329-3.632,3.95,2.178-.484,5.4-4.159,6.775-4.091,1.236-.275,6.76,1.588,6.871,2.365a31.266,31.266,0,0,0-6.319-.8c-1.446-.2-3.382.6-2.819,1.191.54.58,2,.559,3.585.289,1.5-.364,5.265-.767,7.575,1.231,2.143,1.964.5,1.789.545,1.78a14.432,14.432,0,0,0-4.613-2.25c-1.437-.321-2.554-.095-2.4.314a3.09,3.09,0,0,0,2.06,1.412c.871-.026,4.309.165,5.8,2.145C58.87,85.186,58.98,87.432,57.808,86.8Z" transform="translate(-33.902 -77.459)" fill="#acf9ac"/>
              <path id="Path_229" data-name="Path 229" d="M47.7,81.4c-5.667-1.121-10.509,3.069-11.733,5.769a4.086,4.086,0,0,1-1.167-.157A11.906,11.906,0,0,1,44.08,80.87,7.421,7.421,0,0,1,47.7,81.4Z" transform="translate(-33.469 -75.832)" fill="#94ed96"/>
            </g>
            <g id="Group_547" data-name="Group 547" transform="translate(6.994 27.568)">
              <path id="Path_230" data-name="Path 230" d="M22.5,104.167c.393-1.355,1.683-3.317,1.73-6.142-.042-.007.776-1.871,1.306-1.5.458.423,0,2.705-1.121,4.915-.015-.066,1.8-1.321,2.285-1.723a3.892,3.892,0,0,0,.892-3.965c-.637-2.288,2.409-1.834,2.345-1.354a10.518,10.518,0,0,1-1.483,4.259c.021-.1,2.327-.636,2.528-1.553.175-1.039,1.418-1.8.135-3.872-.015.036-.194-1.247,1.893-1.023,1.765.331-.91,4.355-.587,4.383a3.474,3.474,0,0,0,2.725-2.221c.64-2.044-.032-3.078,1.125-3.291,1.325-.144,1.416,1.6-.151,4.007-.213-.322,4.92-.6,4.9-3.126a3.426,3.426,0,0,0-1.705-1.582h0A2.351,2.351,0,0,0,39,90.285h0c-.035-.008-.069-.014-.106-.021,0,0,0,0,.007-.007a4.086,4.086,0,0,0,.7-.944c.529-.877.675-2.949-4.025-3.455a16.9,16.9,0,0,0-10.948,3.021c.027-.436,7.553-1.533,5.363.164-1.869,1.219-6.749.955-7.661,1.986-1.061.692-3.59,5.945-3.112,6.566a31.266,31.266,0,0,1,3.843-5.08c.867-1.175,2.794-2,2.822-1.184.037.792-1,1.82-2.3,2.765-1.311.821-4.229,3.229-4.414,6.277-.094,2.906.931,1.607.892,1.634a14.432,14.432,0,0,1,1.616-4.871c.775-1.252,1.718-1.893,1.9-1.495a3.09,3.09,0,0,1-.431,2.46c-.627.6-2.894,3.2-2.519,5.646C20.61,103.8,22.139,105.449,22.5,104.167Z" transform="translate(-19.157 -85.842)" fill="#acf9ac"/>
              <path id="Path_231" data-name="Path 231" d="M24.163,93.617c3.16-4.836,9.541-5.37,12.327-4.358a4.085,4.085,0,0,0,.7-.944,11.906,11.906,0,0,0-10.876,2.342A7.421,7.421,0,0,0,24.163,93.617Z" transform="translate(-16.751 -84.845)" fill="#94ed96"/>
            </g>
          </g>
        </g>
      </g>
      <path id="Schoolgate" d="M3.616,15.663q-.488-.273-.924-.709T1.9,13.935q-.352-.583-.6-1.279T.928,11.147l1.379.02q.111.867.458,1.588t.952,1.058q.223.124.435.16t.384-.025q.173-.061.28-.24t.122-.485q.014-.291-.049-.565t-.229-.576q-.166-.3-.439-.647t-.679-.779l-.457-.492q-.3-.316-.6-.736t-.54-.91q-.238-.49-.38-1.054T1.448,6.3q.029-.613.229-1.05t.544-.663q.344-.225.808-.205t1.02.323q.578.315.991.759t.692.936q.279.492.442.988t.231.9l-1.312.033q-.085-.5-.352-1t-.758-.776q-.47-.257-.793-.126t-.346.613q-.022.467.26.96T4.02,9.138l.47.483q.449.472.814.966t.619,1.039q.253.545.373,1.128t.087,1.239q-.041.815-.311,1.271t-.662.624q-.392.169-.87.1T3.616,15.663Zm8.747,2.765q-.4.713-1.049.942t-1.58-.289q-.614-.343-1.11-.912t-.84-1.284q-.344-.715-.518-1.523t-.132-1.639q.042-.832.287-1.418t.642-.887q.4-.3.925-.305t1.145.335q.922.506,1.521,1.426t.845,1.993l-1.342.014q-.158-.6-.431-1.015t-.706-.654q-.281-.155-.537-.146t-.458.169q-.2.159-.33.48t-.151.788q-.024.467.064.907t.263.806q.175.367.415.651t.521.44q.442.246.765.147t.534-.508Zm1.344-8.213L15.143,11l-.165,2.972-.16,1.264.088.048q.259-.389.71-.483t.991.2q1.046.575,1.5,1.678t.372,2.535l-.253,4.367-1.438-.8.235-4.126q.043-.751-.2-1.287t-.714-.8q-.3-.163-.536-.121t-.415.249q-.175.207-.279.551t-.128.785l-.194,3.5-1.425-.8ZM22.431,18.2q.636.349,1.149.931t.868,1.307q.355.725.529,1.558t.122,1.677q-.052.844-.315,1.433t-.678.883q-.416.294-.962.286t-1.178-.361q-.632-.353-1.14-.933t-.859-1.3q-.351-.719-.525-1.545t-.125-1.666q.049-.841.306-1.43t.67-.89q.413-.3.958-.3T22.431,18.2Zm-.358,5.932q.278.155.547.16t.486-.149q.217-.154.357-.473t.17-.807q.03-.488-.064-.938t-.278-.827q-.185-.378-.438-.663T22.323,20q-.289-.16-.554-.16t-.48.156q-.216.156-.355.476t-.168.807q-.029.487.065.935t.277.824q.184.376.43.658T22.074,24.133ZM28.9,21.755q.646.355,1.166.942t.879,1.319q.358.731.533,1.57t.118,1.688q-.056.848-.325,1.439t-.693.884q-.424.294-.98.283t-1.2-.37q-.641-.358-1.157-.944t-.87-1.311q-.355-.725-.529-1.557t-.121-1.676q.053-.845.316-1.437t.684-.892q.421-.3.975-.3T28.9,21.755Zm-.385,5.964q.282.157.556.164t.5-.147q.221-.154.365-.474t.176-.811q.032-.491-.062-.944t-.28-.834q-.186-.381-.443-.669t-.54-.444q-.294-.162-.563-.164t-.489.154q-.22.156-.363.477t-.174.811q-.031.489.062.94t.279.83q.186.379.435.664T28.518,27.719Zm3.734,3.7.716-10.692,1.5.819-.728,10.705Zm5.062,6.41q-.6-.335-1.046-.8t-.77-.972q-.321-.511-.523-1.025t-.278-.957l1.481.057q.12.67.465,1.195t.793.776q.713.4,1.168.059t.53-1.37l.036-.508-.092-.051q-.3.33-.752.364T37.288,34.3q-.506-.282-.963-.816t-.789-1.237q-.332-.7-.513-1.531T34.9,29.026q.059-.867.338-1.45t.681-.884q.4-.3.9-.307t1.006.272q.59.324,1,.841t.647,1.145l.093.051.057-.8,1.453.8-.495,6.828q-.067.926-.34,1.541t-.7.908q-.429.293-1,.26T37.314,37.825Zm.419-5.1q.277.154.557.17t.507-.13q.227-.146.381-.457t.19-.806q.035-.495-.064-.955t-.289-.838q-.19-.378-.452-.663t-.54-.438q-.277-.153-.552-.164t-.5.144q-.226.155-.379.467t-.187.805q-.034.493.066.944t.289.827q.189.376.444.658T37.734,32.723Zm7.635,5.2-.094-.052q-.3.27-.7.357t-1-.245q-.443-.247-.819-.652t-.643-.9q-.266-.491-.4-1.046t-.088-1.109q.042-.57.25-.93t.547-.517q.339-.157.778-.094t.943.341q.562.311.918.625t.581.565l.017-.226q.044-.588-.291-1.174t-.875-.883q-.8-.439-1.41.117l-1.037-1.59q1.02-.977,2.6-.108,1.341.736,1.986,1.935t.524,2.785l-.339,4.425L45.31,38.7Zm.167-2.209q-.257-.315-.537-.572T44.38,34.7q-.55-.3-.871-.162t-.354.593q-.033.45.232.879t.64.637q.3.169.572.17t.467-.131q.2-.132.322-.385T45.536,35.716Zm3.473-.895-1.018-.561.131-1.7,1.019.56.177-2.279,1.559.853L50.7,33.98l1.431.786-.136,1.7-1.429-.788-.226,2.874q-.02.257,0,.5t.131.459q.147.334.456.505.2.112.325.126t.237-.018l.3,1.98q-.286.013-.608-.08t-.7-.3q-.438-.245-.774-.613t-.548-.8q-.5-.987-.405-2.237Zm9.32,9.28q-.487.681-1.226.856t-1.733-.382q-.67-.374-1.214-.986t-.918-1.372q-.375-.761-.55-1.608t-.106-1.71q.064-.8.349-1.4t.736-.911q.451-.316,1.035-.329t1.259.357q.711.391,1.242.993t.862,1.336q.331.733.464,1.557t.063,1.66q-.009.106-.015.183t-.026.161q-.018.069-.026.161l-4.438-2.461q.011.481.134.89t.327.751q.2.343.459.588t.531.4q.54.3.92.187t.624-.47Zm-1.194-3.683q0-.2-.066-.5t-.227-.6q-.157-.31-.4-.59t-.609-.479q-.505-.278-.919-.125t-.623.72Z" transform="translate(1416.866 -272.847)" fill="#fff"/>
      <path id="Intro_to" data-name="Intro to" d="M23.848,2.25l1.146.626L14.168,8.9,13,8.29ZM22.729,6.462,22.8,6.5q.752-.206,1.4-.209t1.071.222q.385.207.452.49t-.158.611q-.225.329-.706.7t-1.184.76L19.24,11.53l-1.108-.575,4.205-2.332q.795-.441.98-.758t-.193-.52q-.227-.121-.573-.118t-.762.1q-.416.1-.878.285T20,8.053l-3.6,2L15.271,9.47l7.383-4.1,1.04.559Zm3.3,2.547-.715-.381L26.991,7.7l.713.383,2.247-1.244,1.077.585-2.242,1.24.986.53-1.668.922-.989-.527-2.83,1.565q-.253.14-.439.274t-.252.26q-.121.192.095.305.141.074.276.089t.3,0l-1.4,1.1q-.354-.009-.656-.079t-.569-.208q-.309-.16-.385-.383t.054-.474q.276-.576,1.512-1.26Zm4.527.607,1,.539-1.01.557.065.035q.34-.108.685-.166t.658-.067q.313-.009.576.035t.432.136q.21.113.285.234t.061.243l-2.043.818q-.008-.1-.074-.192t-.236-.182q-.219-.117-.553-.126t-.742.078q-.408.088-.855.26t-.891.417l-3.548,1.957-1.082-.562Zm5.149,2.512q.454.244.544.605t-.143.785q-.233.424-.782.893t-1.383.926q-.834.458-1.691.761t-1.638.436q-.781.133-1.448.091t-1.129-.281q-.462-.239-.561-.6t.127-.783q.227-.426.775-.9t1.39-.936q.841-.463,1.708-.77t1.654-.439q.787-.132,1.455-.086T35.706,12.128Zm-5.9,3.242q.2.105.53.128t.737-.047q.408-.069.873-.234t.949-.431q.484-.266.782-.52t.419-.476q.121-.222.073-.4t-.248-.284q-.208-.111-.532-.132t-.734.048q-.41.069-.877.235t-.954.433q-.486.267-.783.523t-.417.477q-.119.222-.073.4T29.81,15.37Zm8.9.4-.673-.359,1.635-.9.671.361,2.191-1.2,1.013.551-2.186,1.2.928.5-1.627.89-.931-.5-2.76,1.51q-.247.135-.43.264t-.25.25q-.122.184.081.291.133.07.262.083t.286,0l-1.374,1.06q-.339-.006-.626-.071t-.538-.195q-.291-.151-.356-.362t.067-.452q.283-.551,1.488-1.211Zm6.285,1.356q.434.233.513.581t-.157.758q-.235.411-.778.866t-1.361.9q-.818.446-1.656.743t-1.6.429q-.76.132-1.4.095t-1.086-.265q-.441-.229-.529-.573t.142-.756q.23-.412.772-.87t1.368-.91q.825-.451,1.672-.751t1.612-.431q.765-.131,1.411-.09T44.992,17.126Zm-5.786,3.157q.193.1.51.121t.714-.049q.4-.069.851-.23t.929-.42q.475-.259.769-.506t.417-.461q.122-.215.08-.385t-.233-.272q-.2-.106-.512-.125t-.712.05q-.4.069-.855.231t-.934.423q-.477.26-.771.508t-.415.462q-.121.215-.08.382T39.206,20.284Z" transform="translate(1473.269 -109.01)" fill="#fff"/>
      <path id="Programming" d="M13.849,7.777,24.066,2.088l2.008,1.1q.4.221.521.544t-.05.7q-.166.379-.606.787t-1.149.8q-.723.4-1.462.647T21.9,7.011q-.688.1-1.278.037t-1-.276l-.942-.5L14.949,8.35ZM21.46,5.769q.424.227,1.065.105t1.2-.429q.27-.15.474-.32t.289-.335q.085-.165.04-.314t-.26-.266L23.315,3.7l-2.81,1.563Zm3.962.593.968.521-.961.533.063.034q.325-.1.655-.157t.63-.062q.3-.008.553.036t.417.132q.2.109.276.226t.062.234l-1.949.781q-.009-.1-.074-.185t-.229-.176q-.212-.113-.532-.123t-.711.073q-.39.083-.817.247t-.85.4l-3.378,1.872L18.5,10.2ZM30.394,8.8q.439.237.53.584t-.127.756q-.218.408-.739.858t-1.315.888q-.794.438-1.613.728t-1.566.415q-.748.125-1.389.083t-1.087-.274q-.446-.232-.546-.577t.112-.754q.212-.409.732-.862t1.321-.9q.8-.443,1.628-.736t1.581-.417q.753-.124,1.4-.078T30.394,8.8Zm-5.616,3.1q.195.1.51.125t.706-.043q.391-.065.835-.223t.905-.412q.461-.255.743-.5t.4-.457q.113-.213.065-.384T28.7,9.734q-.2-.108-.512-.129t-.7.043q-.392.065-.839.223t-.909.414q-.463.256-.745.5t-.394.458q-.111.213-.065.381T24.779,11.9Zm-.265,4.871q-.4-.206-.527-.469t-.061-.547q.066-.284.271-.562t.5-.514l1.657.118q-.432.353-.484.645t.248.446q.475.246,1.282.1t1.759-.674l.47-.258-.061-.032q-.617.152-1.159.143t-.932-.212q-.337-.176-.406-.479t.15-.689q.219-.385.719-.826t1.308-.887q.808-.446,1.623-.729t1.526-.41q.71-.127,1.276-.1t.9.211q.385.208.41.5t-.246.631l.06.032.736-.4.937.5-6.29,3.457q-.854.47-1.681.77t-1.561.427q-.735.128-1.353.081T24.514,16.771Zm4.808-2.606q.183.1.486.122t.682-.036q.379-.061.815-.211t.893-.4q.457-.251.734-.494t.384-.449q.107-.206.054-.37t-.234-.261q-.182-.1-.481-.122t-.687.04q-.387.065-.826.216t-.9.4q-.459.253-.729.492t-.375.446q-.105.206-.054.367T29.322,14.165Zm7.978-1.4.914.492-.939.515.059.032q.315-.1.633-.154t.607-.063q.289-.01.53.031t.4.124q.192.1.259.215t.053.223l-1.9.759q-.006-.093-.065-.176t-.214-.167q-.2-.107-.508-.115t-.685.074q-.377.082-.792.241t-.828.386l-3.3,1.811-.987-.514Zm-.915,6-.059-.031q-.551.12-1.063.144t-.89-.172q-.282-.147-.359-.37t.037-.485q.115-.262.436-.549t.828-.565q.521-.286,1.05-.456t1.031-.23q.5-.06.927,0t.742.225q.352.187.476.364t.161.314l.2-.112q.533-.292.656-.6t-.213-.492q-.5-.267-1.625-.023l.193-.863q1.92-.43,2.906.1.829.447.532,1.082t-1.729,1.416l-4,2.188-.948-.494Zm2-1.1q-.018-.171-.109-.315t-.3-.256q-.346-.183-.814-.129t-.879.279q-.41.225-.475.455t.171.353q.192.1.483.115t.617-.042q.325-.056.667-.176T38.388,17.669ZM44.053,16.4l.884.476-.872.476.057.031q.655-.179,1.237-.19t.924.174q.4.215.316.553t-.484.679q.665-.185,1.322-.221t1.079.193q.317.171.353.4t-.164.5q-.2.272-.614.581t-.994.624l-4.154,2.259-.933-.486,3.838-2.088q1.35-.734.769-1.045-.184-.1-.482-.09t-.657.1q-.36.092-.779.263t-.838.4l-3.213,1.75-.944-.492,3.856-2.1q1.356-.739.741-1.068-.179-.1-.472-.084t-.651.107q-.359.095-.776.268t-.838.4l-3.228,1.762-.954-.5Zm6.242,3.363.857.462-.86.467.056.03q.644-.177,1.214-.19t.9.166q.387.209.3.539t-.484.665q.653-.183,1.3-.22t1.053.185q.307.166.339.392t-.168.492q-.2.266-.611.569t-.982.612l-4.1,2.219-.9-.472,3.789-2.052q1.332-.721.77-1.022-.179-.1-.47-.086t-.645.1q-.354.091-.766.259t-.826.392L46.88,24.993l-.915-.477,3.807-2.065q1.339-.726.742-1.045-.174-.093-.46-.08t-.639.107q-.352.094-.763.264t-.827.4l-3.187,1.73-.925-.482Zm7.49,3.017q-.115-.062-.133-.165t.057-.228q.075-.125.231-.257t.4-.262q.24-.13.484-.214t.474-.125q.231-.041.421-.03t.3.073q.235.129.076.4t-.624.519q-.465.251-.959.336T57.784,22.781ZM49.9,26.568l6.5-3.514.885.477-6.486,3.5Zm8.168-1.7.054.029q.643-.181,1.187-.194t.876.166q.305.165.34.4t-.179.507q-.213.275-.643.588T58.659,27l-3.894,2.1-.879-.458,3.691-1.989q.7-.376.877-.64t-.121-.425q-.18-.1-.469-.088t-.643.1q-.355.087-.755.249t-.8.375l-3.161,1.706-.89-.464,6.475-3.5.824.444Zm-4.134,7q-.347-.178-.442-.411t-.016-.488q.079-.254.285-.506T54.248,30l1.487.082q-.415.322-.483.583t.192.395q.412.213,1.151.067t1.636-.627l.442-.238-.053-.028q-.568.145-1.056.145t-.827-.176q-.292-.152-.333-.422t.184-.617q.225-.347.707-.748T58.54,27.6q.761-.41,1.516-.675t1.406-.389q.65-.123,1.159-.1t.8.175q.333.18.335.442t-.266.567l.052.028.693-.372.811.437-5.924,3.18q-.8.432-1.572.712t-1.44.4q-.673.125-1.228.092T53.936,31.867Zm4.526-2.4q.158.083.431.1t.619-.042q.346-.06.751-.2t.835-.372q.43-.231.7-.452t.378-.406q.111-.186.075-.331t-.193-.23q-.157-.084-.426-.1t-.623.046q-.354.064-.761.2t-.838.373q-.432.232-.693.45t-.37.4q-.11.186-.075.329T58.462,29.469Z" transform="translate(1456.269 -99.792)" fill="#fff"/>
    </g>
  </g>
</svg>
