<svg xmlns="http://www.w3.org/2000/svg" xmlns:xlink="http://www.w3.org/1999/xlink" width="386.439" height="291" viewBox="0 0 386.439 291">
  <defs>
    <linearGradient id="linear-gradient" x1="87.26" y1="-268.606" x2="87.26" y2="-267.624" gradientUnits="objectBoundingBox">
      <stop offset="0" stop-color="#5a5857"/>
      <stop offset="0.428" stop-color="#555352"/>
      <stop offset="0.952" stop-color="#464544"/>
      <stop offset="1" stop-color="#444342"/>
    </linearGradient>
    <linearGradient id="linear-gradient-2" y1="0.5" x2="1" y2="0.5" gradientUnits="objectBoundingBox">
      <stop offset="0" stop-color="#e6e5e5"/>
      <stop offset="1" stop-color="#f2f2f2"/>
    </linearGradient>
    <linearGradient id="linear-gradient-6" y1="0.5" x2="1" y2="0.5" gradientUnits="objectBoundingBox">
      <stop offset="0.01" stop-color="#bae1ff"/>
      <stop offset="1" stop-color="#86c0ff"/>
    </linearGradient>
  </defs>
  <g id="Group_811" data-name="Group 811" transform="translate(-2777 284)">
    <rect id="Rectangle_515" data-name="Rectangle 515" width="386" height="291" transform="translate(2777 -284)" fill="none"/>
    <g id="Group_810" data-name="Group 810" transform="translate(1056.5 -3582.876)">
      <g id="Group_592" data-name="Group 592" transform="translate(1721.5 3427.635)">
        <rect id="Rectangle_476" data-name="Rectangle 476" width="43.847" height="60.612" transform="translate(0 0)" fill="none"/>
        <text id="S" transform="translate(9.027 42.579)" fill="#fff" font-size="42" font-family="ProductSans-Bold, Product Sans" font-weight="700"><tspan x="0" y="0">S</tspan></text>
      </g>
      <g id="Group_593" data-name="Group 593" transform="translate(1753.74 3427.635)">
        <path id="Path_1028" data-name="Path 1028" d="M0,0H45.137V60.612H0Z" transform="translate(0 0)" fill="none"/>
        <text id="C" transform="translate(6.448 42.579)" fill="#fff" font-size="42" font-family="ProductSans-Bold, Product Sans" font-weight="700"><tspan x="0" y="0">C</tspan></text>
      </g>
      <g id="Group_602" data-name="Group 602" transform="translate(1735.328 3403.165)">
        <rect id="Rectangle_477" data-name="Rectangle 477" width="3.777" height="5.081" transform="matrix(0.765, -0.644, 0.644, 0.765, 9.274, 11.778)" fill="#e69b66"/>
        <path id="Path_1004" data-name="Path 1004" d="M388.756,189.225l-1,.839c.495,2.815,1.738,3.925,2.709,4.36l1.558-1.31Z" transform="translate(-376.591 -179.878)" fill="#d18d5d"/>
        <path id="Path_1005" data-name="Path 1005" d="M399.76,162.379l-.252.112-.1.042-2.364,1.052-1.361,1.5-.694.767a1.6,1.6,0,0,1-1.8.414c-1-.417-2.339-1.546-2.825-4.581a1.6,1.6,0,0,1,.223-1.094l1.033-1.67s.058-.236.159-.594a9.631,9.631,0,0,1,1.349-3.2,1.086,1.086,0,0,1,.528-.215,6.537,6.537,0,0,1,7.309,5.543Z" transform="translate(-378.681 -152.149)" fill="#fcaa70"/>
        <path id="Path_1006" data-name="Path 1006" d="M399.15,146s-.55,1.124.25,1.042.915-1.848,1.529-2.4c0,0,2.359,3.964,6.07,3.208,0,0-.589,1.574.085,2.293,0,0-2.016.373-1.861,2.087a9.1,9.1,0,0,0,1.3-.851c.509-.428,2.389.774,3.524-.772s-2.876-7.39-4.452-8.6a1.78,1.78,0,0,0-2.653.318,1.191,1.191,0,0,1,.062-.7c.146-.462-.445-.995-.835-.589s.383,1.138.257,1.375c0,0-1.4-.872-1.966-.447S398.632,144.449,399.15,146Z" transform="translate(-385.631 -140.89)" fill="#222"/>
        <path id="Path_1007" data-name="Path 1007" d="M395.52,165.792a1.015,1.015,0,1,1-.045-1.435A1.015,1.015,0,0,1,395.52,165.792Z" transform="translate(-381.436 -159.597)" fill="#fcaa70"/>
        <path id="Path_1008" data-name="Path 1008" d="M331.241,202.161c-.153.507-.293,1.011-.421,1.5a17.644,17.644,0,0,0-.743,6.051,11.177,11.177,0,0,0,2.966,6.088c3.2-.812,5.641-1.615,5.641-1.615.873.043,2.516.216,4.1.4,1.991.234,3.9.482,4.113.507-1.992-.507-3.177-2.232-3.626-4.346a9.765,9.765,0,0,1-.206-1.839,11.133,11.133,0,0,1,1.465-5.781c1.13-1.9.612-4.029-.654-5.871-3.284.938-3.772-3.467-3.772-3.467a9.014,9.014,0,0,0-2.4-1.021C335.3,192.186,332.718,197.255,331.241,202.161Z" transform="translate(-330.014 -182.702)" fill="#3d79b2"/>
        <path id="Path_1009" data-name="Path 1009" d="M384.805,280.592l-1.528,1.285a12.448,12.448,0,0,0,2.469,3.588c2.054.241,4.022.5,4.128.51-2-.5-3.19-2.229-3.641-4.349Z" transform="translate(-372.977 -253.575)" fill="#fea07a"/>
        <path id="Path_1010" data-name="Path 1010" d="M372.38,274.675l.716,1.411,1.392.138a2.974,2.974,0,0,1,2.956-.251,9.762,9.762,0,0,1-.206-1.839C375.173,272.636,372.38,274.675,372.38,274.675Z" transform="translate(-364.187 -247.923)" fill="#4f9ce6"/>
        <path id="Path_1011" data-name="Path 1011" d="M346.275,288.6l-4.281,3.6,13.022,17.161,4.433,11.394.671-.2.294-.086,1.815-.536L359.6,307.385Z" transform="translate(-339.677 -260.03)" fill="#dbd0b2"/>
        <path id="Path_1012" data-name="Path 1012" d="M353.3,296.878l-.236.2,12.744,17.745,3.24,12.411.294-.086-3.252-12.458-.015-.023Z" transform="translate(-348.605 -266.711)" fill="#c5bba0"/>
        <path id="Path_1013" data-name="Path 1013" d="M374.846,303.413l4.426,6.245.54.13,2.921.708-7.481,7.816,1.737,2.066L391.4,307.957s-7.809-5.027-15.9-4.589C375.275,303.378,375.062,303.392,374.846,303.413Z" transform="translate(-366.176 -271.925)" fill="#dbd0b2"/>
        <path id="Path_1014" data-name="Path 1014" d="M432.247,451.443l2.78-.82,4.087.354.157.505-6.51,1.382Z" transform="translate(-412.476 -390.724)" fill="#373737"/>
        <path id="Path_1015" data-name="Path 1015" d="M372.117,380.759l1.735,2.064,1.08,3-.314.264-3.66-4.353Z" transform="translate(-363.04 -334.371)" fill="#373737"/>
        <path id="Path_1016" data-name="Path 1016" d="M390,346.477l-3.586,3.747-.518-.682,3.635-3.726Z" transform="translate(-375.092 -306.185)" fill="#c5bba0"/>
        <path id="Path_1017" data-name="Path 1017" d="M382.425,318.78l.248.347a64.536,64.536,0,0,1,10.207,1.868l-11.2,10.86.2.236,11.6-11.249-.258-.073A62.87,62.87,0,0,0,382.425,318.78Z" transform="translate(-371.691 -284.378)" fill="#c5bba0"/>
        <path id="Path_1018" data-name="Path 1018" d="M339.459,247.4s1.337,4.461,6.843,7.958l1.773-1.491s-4.674-3.425-5.414-6.668l-1.459-1.465-1.45.33Z" transform="translate(-337.633 -225.454)" fill="#fea07a"/>
        <path id="Path_1019" data-name="Path 1019" d="M338.178,200.672a4.382,4.382,0,0,0,.221,2.153,2.724,2.724,0,0,1,3.2-.2,2.789,2.789,0,0,0,.554-1.835,7.46,7.46,0,0,0-.023-1c-.183-2.161,5.242-6.3,2.452-8.929C342.266,188.672,338.562,196.315,338.178,200.672Z" transform="translate(-336.572 -180.883)" fill="#3d79b2"/>
        <path id="Path_1020" data-name="Path 1020" d="M338.178,241.315a4.382,4.382,0,0,0,.221,2.153,2.724,2.724,0,0,1,3.2-.2,2.79,2.79,0,0,0,.554-1.835A4,4,0,0,0,338.178,241.315Z" transform="translate(-336.572 -221.526)" fill="#4f9ce6"/>
        <path id="Path_1021" data-name="Path 1021" d="M342.706,293.134s3.929.072,5.641-1.616l-2.072-2.923-2.389.548-1.893,3.052Z" transform="translate(-339.677 -260.03)" fill="#3d79b2"/>
        <path id="Path_1022" data-name="Path 1022" d="M377.573,291.882a3.205,3.205,0,0,0-.958-4.094l-1.773,1.491Z" transform="translate(-366.173 -259.38)" fill="#fea07a"/>
        <path id="Path_1023" data-name="Path 1023" d="M374.846,303.526l4.426,6.245.54.13-4.319-6.42C375.275,303.491,375.062,303.505,374.846,303.526Z" transform="translate(-366.176 -272.038)" fill="#c5bba0"/>
        <path id="Path_1024" data-name="Path 1024" d="M372.94,233.256l-.313-.027a5.531,5.531,0,0,0-.16.787l.308.027a5.282,5.282,0,0,1,.164-.786Zm.382-1.054-.326-.028c-.107.251-.205.5-.284.754l.317.027C373.113,232.7,373.211,232.453,373.322,232.2Zm.543-1.048-.339-.029c-.142.248-.275.5-.395.751l.328.031Q373.646,231.525,373.865,231.154Zm.673-1.037-.356-.031q-.258.368-.484.745l.343.03Q374.274,230.484,374.539,230.117Zm.749-1-.365-.031c-.184.231-.364.471-.536.712l.36.031C374.921,229.582,375.1,229.344,375.288,229.113Zm.808-.977-.378-.033c-.19.224-.383.454-.571.69l.373.032C375.709,228.589,375.9,228.359,376.1,228.135Zm.781-.89-.384-.035c-.17.2-.347.4-.527.6l.375.035,0,0C376.525,227.641,376.7,227.44,376.877,227.245Zm.771-.874-.373-.032,0,0-.283.314c-.08.087-.157.177-.242.268l.384.035.087-.1.307-.343A1.854,1.854,0,0,0,377.647,226.372Zm.563-.852-.334-.029a3.936,3.936,0,0,1-.368.563l.36.031A4.139,4.139,0,0,0,378.211,225.52Zm.342-.9-.308-.027a4.767,4.767,0,0,1-.218.6l.323.026A3.892,3.892,0,0,0,378.553,224.62Zm-.159-.917a3.935,3.935,0,0,1-.079.586l.308.027a3.931,3.931,0,0,0,.075-.586Z" transform="translate(-364.258 -207.688)" fill="#356899"/>
        <path id="Path_1025" data-name="Path 1025" d="M361.208,275.839a1.025,1.025,0,0,1-.8.847A2.192,2.192,0,0,0,361.208,275.839Zm-.925-.8a1.025,1.025,0,0,1-.8.847A2.191,2.191,0,0,0,360.283,275.042Zm-.9-1.065a1.025,1.025,0,0,1-.8.846A2.191,2.191,0,0,0,359.388,273.977Z" transform="translate(-353.064 -248.239)" fill="#a5663d"/>
        <rect id="Rectangle_478" data-name="Rectangle 478" width="11.037" height="0.425" transform="translate(7.612 31.172) rotate(-2.365)" fill="#b6b2b0"/>
        <rect id="Rectangle_479" data-name="Rectangle 479" width="18.793" height="0.775" transform="translate(2.877 31.811) rotate(-2.024)" fill="#404072"/>
        <rect id="Rectangle_480" data-name="Rectangle 480" width="10.867" height="0.777" transform="translate(10.796 31.529) rotate(-2.024)" fill="#404072"/>
        <path id="Path_1026" data-name="Path 1026" d="M396.245,258.334l-1.678,8-11.732.415,1.726-8Z" transform="translate(-372.62 -235.621)" fill="#404072"/>
        <path id="Path_1027" data-name="Path 1027" d="M416.462,275.226a.876.876,0,1,0,.844-.906.876.876,0,0,0-.844.906Z" transform="translate(-399.743 -248.515)" fill="#eee8e5"/>
      </g>
      <g id="Group_594" data-name="Group 594" transform="translate(1789.205 3428.276)">
        <rect id="Rectangle_476-2" data-name="Rectangle 476" width="45.137" height="60.612" transform="translate(0 0)" fill="none"/>
        <text id="H" transform="translate(6.448 41.579)" fill="#fff" font-size="41" font-family="ProductSans-Bold, Product Sans" font-weight="700"><tspan x="0" y="0">H</tspan></text>
      </g>
      <g id="Group_595" data-name="Group 595" transform="translate(1827.894 3425.697)">
        <rect id="Rectangle_476-3" data-name="Rectangle 476" width="45.137" height="60.612" transform="translate(0 0)" fill="none"/>
        <text id="O" transform="translate(2.579 44.869)" fill="#fff" font-size="43" font-family="ProductSans-Bold, Product Sans" font-weight="700"><tspan x="0" y="0">O</tspan></text>
      </g>
      <g id="Group_596" data-name="Group 596" transform="translate(1866.582 3426.342)">
        <rect id="Rectangle_476-4" data-name="Rectangle 476" width="45.137" height="60.612" transform="translate(0 0)" fill="none"/>
        <text id="O-2" data-name="O" transform="translate(3.869 43.579)" fill="#fff" font-size="43" font-family="ProductSans-Bold, Product Sans" font-weight="700"><tspan x="0" y="0">O</tspan></text>
      </g>
      <g id="Group_597" data-name="Group 597" transform="translate(1900.112 3428.276)">
        <rect id="Rectangle_476-5" data-name="Rectangle 476" width="43.847" height="60.612" transform="translate(0 0)" fill="none"/>
        <text id="L" transform="translate(9.027 42.579)" fill="#fff" font-size="42" font-family="ProductSans-Bold, Product Sans" font-weight="700"><tspan x="0" y="0">L</tspan></text>
      </g>
      <g id="Group_598" data-name="Group 598" transform="translate(1933.643 3426.987)">
        <path id="Path_1116" data-name="Path 1116" d="M0,0H43.847V60.612H0Z" transform="translate(0 0)" fill="none"/>
        <text id="G" transform="translate(5.158 43.579)" fill="#fff" font-size="43" font-family="ProductSans-Bold, Product Sans" font-weight="700"><tspan x="0" y="0">G</tspan></text>
      </g>
      <g id="Group_599" data-name="Group 599" transform="translate(1972.331 3429.343)">
        <rect id="Rectangle_476-6" data-name="Rectangle 476" width="43.847" height="60.612" transform="translate(0 0)" fill="none"/>
        <text id="A" transform="translate(6.448 41.579)" fill="#fff" font-size="41" font-family="ProductSans-Bold, Product Sans" font-weight="700"><tspan x="0" y="0">A</tspan></text>
      </g>
      <g id="Group_600" data-name="Group 600" transform="translate(2009.73 3428.276)">
        <rect id="Rectangle_476-7" data-name="Rectangle 476" width="45.137" height="60.612" transform="translate(0 0)" fill="none"/>
        <text id="T" transform="translate(9.027 42.579)" fill="#fff" font-size="42" font-family="ProductSans-Bold, Product Sans" font-weight="700"><tspan x="0" y="0">T</tspan></text>
      </g>
      <g id="Group_601" data-name="Group 601" transform="translate(2037.457 3428.276)">
        <rect id="Rectangle_476-8" data-name="Rectangle 476" width="45.137" height="60.612" transform="translate(0 0)" fill="none"/>
        <text id="E" transform="translate(9.027 42.579)" fill="#fff" font-size="42" font-family="ProductSans-Bold, Product Sans" font-weight="700"><tspan x="0" y="0">E</tspan></text>
      </g>
      <g id="Group_603" data-name="Group 603" transform="translate(2061.315 3426.673)">
        <path id="Path_1029" data-name="Path 1029" d="M2226.806,336.451h-26.161l-3.462-37.816h25.945l.068.708,3.559,36.587Z" transform="translate(-2195.521 -292.865)" fill="#4d5258"/>
        <path id="Path_1030" data-name="Path 1030" d="M2232.06,339.472H2206.9l-3.355-36.587H2228.5Z" transform="translate(-2200.826 -296.407)" fill="#f8f8f0"/>
        <path id="Path_1031" data-name="Path 1031" d="M2232.82,525.6l1.555,20.885h1.026l-1.662-20.885Z" transform="translate(-2225.22 -482.015)" fill="#4d5258"/>
        <path id="Path_1032" data-name="Path 1032" d="M2359.482,525.6l1.555,20.885h1.025L2360.4,525.6Z" transform="translate(-2330.777 -482.015)" fill="#4d5258"/>
        <path id="Path_1033" data-name="Path 1033" d="M2191.494,458.128l-3.335,30.006h-.954l4.057-32.552Z" transform="translate(-2187.205 -423.662)" fill="#4d5258"/>
        <path id="Path_1034" data-name="Path 1034" d="M2223.767,347.257h-2.635L2219.182,326h1.99Z" transform="translate(-2213.854 -315.668)" fill="#cad9f0"/>
        <path id="Path_1035" data-name="Path 1035" d="M2240.351,363.429l-1.909-18.024h1.909l2.174,18.024Z" transform="translate(-2229.906 -331.843)" fill="#ffedc5"/>
        <path id="Path_1036" data-name="Path 1036" d="M2254.354,338.4l2.44,19.19h2.333l-2.651-19.19Z" transform="translate(-2243.166 -326.009)" fill="#cad9f0"/>
        <path id="Path_1037" data-name="Path 1037" d="M2276.739,371.388l1.556,13.695h2.12l-1.839-13.695Z" transform="translate(-2261.821 -353.496)" fill="#ffedc5"/>
        <path id="Path_1038" data-name="Path 1038" d="M2313.86,359.633h-6.515l-.072-.751h6.515Z" transform="translate(-2287.267 -343.074)" fill="#97aebc"/>
        <path id="Path_1039" data-name="Path 1039" d="M2314.521,366.459h-6.516l-.072-.755h6.516Z" transform="translate(-2287.818 -348.759)" fill="#97aebc"/>
        <path id="Path_1040" data-name="Path 1040" d="M2315.184,373.3h-6.516l-.072-.751h6.517Z" transform="translate(-2288.37 -354.465)" fill="#97aebc"/>
        <path id="Path_1041" data-name="Path 1041" d="M2315.851,380.149h-6.516l-.076-.751h6.516Z" transform="translate(-2288.922 -360.172)" fill="#97aebc"/>
        <path id="Path_1042" data-name="Path 1042" d="M2317.2,393.995h-6.516l-.072-.751h6.516Z" transform="translate(-2290.047 -371.711)" fill="#97aebc"/>
        <path id="Path_1043" data-name="Path 1043" d="M2317.862,400.821h-6.515l-.077-.755h6.516Z" transform="translate(-2290.599 -377.396)" fill="#97aebc"/>
        <path id="Path_1044" data-name="Path 1044" d="M2318.524,407.664h-6.515l-.076-.751h6.515Z" transform="translate(-2291.15 -383.102)" fill="#97aebc"/>
        <path id="Path_1045" data-name="Path 1045" d="M2319.207,414.511h-6.516l-.072-.751h6.516Z" transform="translate(-2291.723 -388.809)" fill="#97aebc"/>
        <path id="Path_1046" data-name="Path 1046" d="M2320.633,429.3h-6.516l-.072-.751h6.515Z" transform="translate(-2292.911 -401.133)" fill="#97aebc"/>
        <path id="Path_1047" data-name="Path 1047" d="M2321.3,436.146h-6.516l-.076-.751h6.516Z" transform="translate(-2293.463 -406.839)" fill="#97aebc"/>
        <path id="Path_1048" data-name="Path 1048" d="M2321.982,442.993h-6.516l-.072-.751h6.512Z" transform="translate(-2294.035 -412.545)" fill="#97aebc"/>
        <path id="Path_1049" data-name="Path 1049" d="M2322.644,449.818h-6.516l-.073-.755h6.516Z" transform="translate(-2294.587 -418.229)" fill="#97aebc"/>
        <path id="Path_1050" data-name="Path 1050" d="M2253.185,469.532h-20.832l-.238-2.6h20.833Z" transform="translate(-2224.632 -433.121)" fill="#e0e8f3"/>
        <path id="Path_1051" data-name="Path 1051" d="M2255.277,492.439h-20.832l-.243-2.6h20.833Z" transform="translate(-2226.372 -452.212)" fill="#e0e8f3"/>
        <path id="Path_1052" data-name="Path 1052" d="M2322.718,436.356s-.332-.088-1.232.518-2.561,1.075-3.441.059c0,0-.586-.2-.616-.581,0,0-.332-.162-.361-.416s.782-.147,1.29,0,.675-.153.675-.153a1.08,1.08,0,0,0-.528-.121c-.274.02-.84-.352-.674-.645s1.085.166,1.6-.059a1.562,1.562,0,0,1,1.222.235,2.677,2.677,0,0,0,1.31-.342Z" transform="translate(-2295.43 -406.385)" fill="#ffcd9c"/>
        <rect id="Rectangle_481" data-name="Rectangle 481" width="4.588" height="4.676" transform="translate(35.081 10.985)" fill="#ffcd9c"/>
        <path id="Path_1053" data-name="Path 1053" d="M2397.756,333.975v1.4a5.975,5.975,0,0,0,4.588-2.252C2400.05,334.481,2398.6,334.387,2397.756,333.975Z" transform="translate(-2362.675 -321.604)" fill="#3a3027" opacity="0.33"/>
        <path id="Path_1054" data-name="Path 1054" d="M2390.543,281.641a7.24,7.24,0,0,1,.626-1.954,5.9,5.9,0,0,1,8.077,1.83.982.982,0,0,1,.158.49,8.682,8.682,0,0,1-1.429,2.792c-.188.277-.317.455-.317.455l-.718,2.181c-.209.139-.412.266-.607.383-2.638,1.567-4.164,1.207-4.926.653a1.684,1.684,0,0,1-.6-.732,23.1,23.1,0,0,1,.341-4.006Z" transform="translate(-2356.663 -276.302)" fill="#ffcd9c"/>
        <path id="Path_1055" data-name="Path 1055" d="M2386.816,265.97c0,.606.116,1.1,1.4,1.473s3.751-.257,4.841,0a2.048,2.048,0,0,1,1.079.69,3.364,3.364,0,0,1,.6,1.061l-.431.966-.216,1.152.781,1.192c.234-.342.558-.837.838-1.334a7.525,7.525,0,0,0,1.042-4.7l-.573.591a4.091,4.091,0,0,0-.492-1.162c-1.1-1.733-3.476-1.612-4.786-1.612s-3.585-.276-3.585-.276c-.494.591-.011,1.548.49,1.887a1.215,1.215,0,0,1-.353.124A1.585,1.585,0,0,1,2386.816,265.97Z" transform="translate(-2353.557 -264.007)" fill="#281d13"/>
        <path id="Path_1056" data-name="Path 1056" d="M2386.816,275.79c0,.606.116,1.1,1.4,1.473s3.751-.257,4.841,0a2.048,2.048,0,0,1,1.079.69l.483.193c-.5-2.681-4.844-1.094-5.817-1.081C2386.91,277.09,2386.816,275.79,2386.816,275.79Z" transform="translate(-2353.557 -273.827)" fill="#1f170f"/>
        <path id="Path_1057" data-name="Path 1057" d="M2425.94,277.388l-.431.966-.216,1.152.781,1.192c.234-.343.558-.837.839-1.334a7.527,7.527,0,0,0,1.042-4.7l-.573.591-1.009-1.411.216.973-.958-.223.742.737-1.6-.112.778.556-1.288-.133A2.715,2.715,0,0,1,2425.94,277.388Z" transform="translate(-2384.762 -272.201)" fill="#120d08"/>
        <path id="Path_1058" data-name="Path 1058" d="M2431.635,306.943a.916.916,0,1,0,1.017-.8A.916.916,0,0,0,2431.635,306.943Z" transform="translate(-2390.904 -299.115)" fill="#ffcd9c"/>
        <path id="Path_1059" data-name="Path 1059" d="M2370.365,490.028l-1.179-.414s-.762,1.453-.393,2.292c.205.468.968.623.968.623a.195.195,0,0,0,.053-.3l-.375-.309a.711.711,0,0,1-.057-.759c.049-.118.106-.285.235-.3,0,0-.312.789.034.885s.545-.813.531-1.235S2370.365,490.028,2370.365,490.028Z" transform="translate(-2338.454 -452.024)" fill="#ffcd9c"/>
        <path id="Path_1060" data-name="Path 1060" d="M2388.574,487.44l.024,1.364.171,10.106.024,1.354v0l.175,10.343h2.2s2.164-6.924.2-11.328l1.849-7.829,1.394,7.235.259,1.341,0,.037.9,10.544h2.165s1.338-8.654-.316-11.328l.207-8.917.068-2.925Z" transform="translate(-2355.023 -450.212)" fill="#414143"/>
        <path id="Path_1061" data-name="Path 1061" d="M2395.582,553.114l.259,1.34,0,.038a11.69,11.69,0,0,1,1.23-1.745A3.906,3.906,0,0,0,2395.582,553.114Zm-5.843.222.025,1.353a11.694,11.694,0,0,1,1.137-1.585A3.752,3.752,0,0,0,2389.739,553.336Z" transform="translate(-2355.994 -504.638)" fill="#1c262e"/>
        <path id="Path_1062" data-name="Path 1062" d="M2388.574,487.44l.024,1.364a41.769,41.769,0,0,0,9.232,1.561l.068-2.925Z" transform="translate(-2355.023 -450.212)" fill="#010508"/>
        <path id="Path_1063" data-name="Path 1063" d="M2341.429,357.063l4.818-1.119-.14,1.72-.526,6.42,1.373.613.446.2.779-2.432-.049,1.378s6.469,2.363,10.3,1.843c0,0-.319-11.751.527-14.105.125-.349.266-.675.389-.991,1.978-5.12,2.021-6.628-.831-8.023a8.065,8.065,0,0,1-3.025-2.4,7.355,7.355,0,0,1-.692-1.105s-.566,2.271-3.647,2.3a3.364,3.364,0,0,1-.94-1.979l-1.316,1.185-2.546,2.545s-.973,6.509.413,9.218l-6.057,2.88Z" transform="translate(-2315.125 -326.557)" fill="#b7dde8"/>
        <path id="Path_1064" data-name="Path 1064" d="M2383.407,349.228c.031.105.064.206.1.306a8.061,8.061,0,0,0,1.1,2.226,3.922,3.922,0,0,1,.677-1.993c.043-.082.089-.168.14-.255a24.4,24.4,0,0,1,2.249-3.273c2.47-3.127,2.932-5.223,3.009-6.072-.039-.053-.076-.105-.111-.156a9.166,9.166,0,0,1-.581-.95s-.566,2.271-3.647,2.3a3.369,3.369,0,0,1-.94-1.979l-.947.852h0l-.369.332c-.076.183-.149.366-.216.545A12.4,12.4,0,0,0,2383.407,349.228Z" transform="translate(-2350.322 -326.557)" fill="#ebf1f1"/>
        <path id="Path_1065" data-name="Path 1065" d="M2373.153,415.317c5.655-1.21,11.15-4.881,12.845-6.085q.2-.517.389-.991c-3.965,3.966-13.094,5.355-13.094,5.355Z" transform="translate(-2342.171 -384.209)" fill="#9bbbc4"/>
        <path id="Path_1066" data-name="Path 1066" d="M2378.235,460.574l.446.2.778-2.432v-4.233Z" transform="translate(-2346.406 -422.433)" fill="#9bbbc4"/>
        <path id="Path_1067" data-name="Path 1067" d="M2415.081,505.1l-.247-1.284-.024,2.432Z" transform="translate(-2376.886 -463.861)" fill="#010508"/>
        <path id="Path_1068" data-name="Path 1068" d="M2429.286,628.848v.582l.3.313a1.2,1.2,0,0,0,.881.384h1.982a.363.363,0,0,0,.364-.366v-.094c0-.019,0-.039,0-.058a1,1,0,0,0-.238-.591l-.6-.7.089-2.367h-2.487v2.086A1.308,1.308,0,0,0,2429.286,628.848Z" transform="translate(-2388.951 -565.647)" fill="#593c34"/>
        <path id="Path_1069" data-name="Path 1069" d="M2429.287,643.441V644l.295.313a1.2,1.2,0,0,0,.881.383h1.982a.363.363,0,0,0,.364-.366v-.094c0-.02,0-.039,0-.059h-2.126a1.588,1.588,0,0,1-1.115-.462Z" transform="translate(-2388.952 -580.221)" fill="#9e7a55"/>
        <rect id="Rectangle_482" data-name="Rectangle 482" width="1.282" height="0.222" rx="0.062" transform="translate(42.711 61.222) rotate(180)" fill="#9e7a55"/>
        <path id="Path_1070" data-name="Path 1070" d="M.01,0H1.272a.01.01,0,0,1,.01.01v.2a.01.01,0,0,1-.01.01H.01A.01.01,0,0,1,0,.212V.01A.01.01,0,0,1,.01,0Z" transform="translate(42.711 61.604) rotate(180)" fill="#9e7a55"/>
        <path id="Path_1071" data-name="Path 1071" d="M.01,0H1.272a.01.01,0,0,1,.01.01v.2a.01.01,0,0,1-.01.01H.01A.01.01,0,0,1,0,.212V.01A.01.01,0,0,1,.01,0Z" transform="translate(42.711 61.987) rotate(180)" fill="#9e7a55"/>
        <path id="Path_1072" data-name="Path 1072" d="M.019,0H2.794a.02.02,0,0,1,.019.019V.4a.019.019,0,0,1-.019.019H.019A.019.019,0,0,1,0,.4V.019A.019.019,0,0,1,.019,0Z" transform="translate(43.272 60.65) rotate(180)" fill="#9a7955"/>
        <path id="Path_1073" data-name="Path 1073" d="M2431.92,361.857l-1.838-.278-1.8.278-.8,1.044.582-1.322,2.229-.208Z" transform="translate(-2387.447 -345.148)" fill="#9bbbc4"/>
        <path id="Path_1074" data-name="Path 1074" d="M2368.1,630.355s3.468.119,4.119-.592v.6h2.223s-.009-.692-.048-1.44a13.517,13.517,0,0,0-.13-1.472,3.352,3.352,0,0,1-.058-1.215h-2.549s-.622,1.748-1.661,2.162-1.807.178-1.9.978c-.018.162-.028.3-.035.413A1.4,1.4,0,0,0,2368.1,630.355Z" transform="translate(-2337.924 -565.883)" fill="#593c34"/>
        <path id="Path_1075" data-name="Path 1075" d="M2368.1,632.438a13.869,13.869,0,0,0,3.651-.323.351.351,0,0,1,.468.332h2.223s-.009-.692-.048-1.44a26.6,26.6,0,0,1-6.33.866A1.4,1.4,0,0,0,2368.1,632.438Zm4.27-2.973.105-.241-.006-.017-1.078-.471-.017.007-.106.241.007.017,1.078.471Zm-.478.478.105-.241-.007-.017-.938-.41-.017.007-.105.241.007.017.938.41Zm-.478.478.1-.241-.007-.017-.8-.349-.017.007-.1.241.007.017.8.348Z" transform="translate(-2337.924 -567.966)" fill="#9a7955"/>
        <path id="Path_1076" data-name="Path 1076" d="M.021,0H2.943a.021.021,0,0,1,.021.021V.446a.021.021,0,0,1-.021.021H.021A.021.021,0,0,1,0,.446V.021A.021.021,0,0,1,.021,0Z" transform="translate(36.449 60.479) rotate(180)" fill="#9a7955"/>
        <path id="Path_1077" data-name="Path 1077" d="M2383.407,353.979c.031.106.064.206.1.306a8.061,8.061,0,0,0,1.1,2.226,3.922,3.922,0,0,1,.677-1.993c.043-.082.089-.168.14-.255a24.406,24.406,0,0,1,2.249-3.273c2.47-3.127,2.932-5.223,3.009-6.072-.039-.052-.076-.105-.111-.156a12.675,12.675,0,0,1-2.127,4.74c-1.589,2.015-3.87,5.136-3.962,6.253a10.334,10.334,0,0,1-1.244-5.712,40.465,40.465,0,0,1,1.219-5.055l-.369.332c-.076.183-.149.366-.216.545A12.4,12.4,0,0,0,2383.407,353.979Z" transform="translate(-2350.322 -331.308)" fill="#d6dbdb"/>
      </g>
      <g id="Group_604" data-name="Group 604" transform="translate(1920.969 3420.726)">
        <path id="Path_1078" data-name="Path 1078" d="M1936.913,123.012a17.645,17.645,0,0,0,1.431,4.71,27.872,27.872,0,0,1-6.3-1.893,18.132,18.132,0,0,1-1.985-1.043l1.45-7.142,5.067-3.855a4.615,4.615,0,0,1,.746.046,3.9,3.9,0,0,1,2.378,1.084c2.781,3.045-1.39,7.165-1.39,7.165Z" transform="translate(-1926.359 -112.561)" fill="#fec22d"/>
        <path id="Path_1079" data-name="Path 1079" d="M1943.425,162.516l-3.338.383-.08-3.73-.062-2.385-.031-1.162,2.771-.071.115,4.429.011.407.045,1.095Z" transform="translate(-1934.336 -146.357)" fill="#ffcd9c"/>
        <path id="Path_1080" data-name="Path 1080" d="M1942.94,165.619a8.134,8.134,0,0,1-2.8-1.218l-.062-2.385c.425,1.735,1.74,1.963,2.835,2.463Z" transform="translate(-1934.464 -151.588)" fill="#e69b66"/>
        <path id="Path_1081" data-name="Path 1081" d="M1930.731,125.016c.057,1.437-1.748,4.1-2.3,4.1a3.125,3.125,0,0,1-.39-.034c-1.156-.158-4.151-.957-4.6-4.123a3.191,3.191,0,0,0-.329-1.033,4.884,4.884,0,0,0-3.3-2.156l2.215-4.287a36.6,36.6,0,0,1,4.548-.255,3.684,3.684,0,0,1,3.978,3.3c.018.124.028.228.034.3s.007.131.007.142v0l-.049.312-.1.67-.233,1.491A6.757,6.757,0,0,1,1930.731,125.016Z" transform="translate(-1918.065 -115.345)" fill="#ffcd9c"/>
        <path id="Path_1082" data-name="Path 1082" d="M1921.473,109.714c-.32.905-5.246,2.538-4.963,6.123l-.256,2.026a22.5,22.5,0,0,0,.486,4.1c-.741-.334-5.87-3.2-6.066-5.707a10.343,10.343,0,0,1,1.459-6.045,6.5,6.5,0,0,1,1.587-1.623c1.454-1.043,3.225-1.043,5.3-1.157.311-.018.631-.037.956-.064a1.427,1.427,0,0,1,1.656,1.267A2.182,2.182,0,0,1,1921.473,109.714Z" transform="translate(-1910.672 -107.357)" fill="#f8d34f"/>
        <path id="Path_1083" data-name="Path 1083" d="M1931.374,147c-.394.339-.24,1.2.346,1.923s1.38,1.035,1.775.7.239-1.2-.346-1.923S1931.768,146.665,1931.374,147Z" transform="translate(-1927.248 -139.329)" fill="#ffcd9c"/>
        <path id="Path_1084" data-name="Path 1084" d="M1973.376,207.013l-1.261,2.814-.811,1.8-.174-.025c-4.212-.7-2.709-6.091-3.422-11.465-.013-.081-.021-.157-.034-.238-.849-5.837,2.811-7,2.811-7,.955.925,1.754,5.285,2.263,8.918.115.781.212,1.532.293,2.2C1973.257,205.773,1973.376,207.013,1973.376,207.013Z" transform="translate(-1956.695 -176.579)" fill="#b6846b"/>
        <path id="Path_1085" data-name="Path 1085" d="M1932.117,196.349s.076,2.313.28,4.669c.038.416.077.836.119,1.244.013.076.021.157.03.233s.017.144.025.216c.013.115.026.229.038.34v0a13.856,13.856,0,0,0,.437,2.25,1.656,1.656,0,0,0,.259.543l-2.645,1.532-1.172.675-2.051,1.189-7.8-.488s.009-.008.009-.013a27.119,27.119,0,0,0,3.15-6.253,5.879,5.879,0,0,0,.284-2.131,2.148,2.148,0,0,0-.051-.348c-.017-.068-.03-.14-.047-.212-.637-2.954-1.614-9.02-1.614-9.02s-2.726-3.481-1.583-5.968a4.166,4.166,0,0,1,3.066-2.1c.233-.055.458-.106.679-.153h0c.08.047,2.178,1.24,2.772-.284,3.66.047,5.206,1.906,5.3,2.025l0,0s.127,5.527,2.225,8.634c0,0,0,.008,0,.008a5.59,5.59,0,0,0,.743.908,9.293,9.293,0,0,1-.505.836C1933.582,195.415,1932.818,196.349,1932.117,196.349Z" transform="translate(-1917.818 -167.984)" fill="#f73149"/>
        <path id="Path_1086" data-name="Path 1086" d="M1916.495,312.44c7.537.318,7.4.92,7.4.92s.248,10.542,4.812,14.256h2.3l-.015-.7-.034-1.661-.2-9.626.778-10.825.072-.994s-.049-.025-.138-.068a8.826,8.826,0,0,0-4.283-.908,3.832,3.832,0,0,0-.488.086,6.117,6.117,0,0,0-1.827.822c-.379.237-.736.478-1.117.674a4,4,0,0,1-.736.3,3.591,3.591,0,0,1-1.437.1c-.071-.009-.143-.018-.218-.03-2.449-.4-6.738.5-7.583,1.492l-.005.006h0S1908.959,312.122,1916.495,312.44Z" transform="translate(-1911.955 -265.511)" fill="#96b60b"/>
        <path id="Path_1087" data-name="Path 1087" d="M1961.095,312.93l3.567,1.337.356-1.167-2.467-.276h0Z" transform="translate(-1951.475 -273.625)" fill="#005e09"/>
        <path id="Path_1088" data-name="Path 1088" d="M1992.087,409.8l2,.743,3.22,4.05-5.758-2.918Z" transform="translate(-1976.118 -352.099)" fill="#b6846b"/>
        <path id="Path_1089" data-name="Path 1089" d="M1998.455,432.884h2.3l3.242,2.189h-5.148Z" transform="translate(-1981.708 -370.779)" fill="#b6846b"/>
        <path id="Path_1090" data-name="Path 1090" d="M1977.433,318.818s-.685,10.213,2.782,17.058c0,0-3.937-3.462-3.26-17.428Z" transform="translate(-1964.246 -278.175)" fill="#005e09"/>
        <path id="Path_1091" data-name="Path 1091" d="M1919.477,203.9l-2.072,4.618-.174-.025c-4.276-.709-2.662-6.253-3.456-11.7-.849-5.837,2.811-7,2.811-7C1918.284,191.431,1919.477,203.9,1919.477,203.9Z" transform="translate(-1913.08 -174.062)" fill="#b6846b"/>
        <path id="Path_1092" data-name="Path 1092" d="M1932.436,268.363l.042.006.088.013.044.006c.137.018.281.032.43.04.043,0,.086.005.13.006l.063,0,.095,0h.718a14.016,14.016,0,0,1,1.185-4.356c-.182-.1-.365-.2-.548-.314C1933.84,264.411,1932.83,267.195,1932.436,268.363Z" transform="translate(-1928.284 -233.929)" fill="#b6846b"/>
        <path id="Path_1093" data-name="Path 1093" d="M1940.869,269.772h9.76c.743.135,1.884-.016,2.175-.881,0,0,.325-.286.245-.537a.47.47,0,0,0,.124-.364c-.048-.171-.543.112-.833.34s-.475.079-.475.079a.758.758,0,0,1,.309-.217c.181-.059.45-.448.265-.594s-.656.393-1.049.384-.726.474-.726.474l-.065.023h0a28.876,28.876,0,0,1-8.543-3.064A14.009,14.009,0,0,0,1940.869,269.772Z" transform="translate(-1935.108 -235.261)" fill="#e69b66"/>
        <rect id="Rectangle_483" data-name="Rectangle 483" width="27.104" height="1.118" transform="translate(1.649 36.482)" fill="#5a5857"/>
        <rect id="Rectangle_484" data-name="Rectangle 484" width="15.673" height="1.121" transform="translate(13.077 36.479)" fill="#444342"/>
        <path id="Path_1094" data-name="Path 1094" d="M1989.407,235.381l-2.826,11.444H1968.4l2.894-11.444Z" transform="translate(-1957.389 -210.956)" fill="#5a5857"/>
        <path id="Path_1095" data-name="Path 1095" d="M1994.7,235.381l-2.826,11.444h-16.931l2.895-11.444Z" transform="translate(-1962.68 -210.956)" fill="url(#linear-gradient)"/>
        <rect id="Rectangle_485" data-name="Rectangle 485" width="15.919" height="0.613" transform="translate(11.014 35.869)" fill="#222221"/>
        <path id="Path_1096" data-name="Path 1096" d="M2023.349,257.7a1.39,1.39,0,1,0,1.39-1.39A1.39,1.39,0,0,0,2023.349,257.7Z" transform="translate(-2001.852 -227.889)" fill="#5a5857"/>
      </g>
      <g id="Group_606" data-name="Group 606" transform="translate(1858.845 3395.876)">
        <path id="Path_1104" data-name="Path 1104" d="M1073.669,206.8s-.134-7.54,1.656-10.136l-1.257,10.589Z" transform="translate(-1047.173 -176.88)" fill="#b4d6b8"/>
        <path id="Path_1106" data-name="Path 1106" d="M1005.187,391.251l-1.759.654-2.834,3.564,5.068-2.568Z" transform="translate(-987.114 -336.81)" fill="#1c205f"/>
        <path id="Path_1107" data-name="Path 1107" d="M1000.029,413.014h-2.024l-2.853,1.165h4.531Z" transform="translate(-982.641 -354.697)" fill="#1c205f"/>
        <path id="Path_1110" data-name="Path 1110" d="M1073.679,196.259l1.823,4.064.153-.022c3.763-.624,2.343-5.5,3.042-10.3.747-5.136-2.474-6.164-2.474-6.164C1074.729,185.284,1073.679,196.259,1073.679,196.259Z" transform="translate(-1047.183 -166.336)" fill="#96b60b"/>
        <path id="Path_1111" data-name="Path 1111" d="M1070.973,253.859a12.326,12.326,0,0,1,1.043,3.833h.534a5.32,5.32,0,0,0,.882-.067c-.347-1.027-1.237-3.478-1.977-4.042C1071.294,253.68,1071.133,253.774,1070.973,253.859Z" transform="translate(-1044.959 -223.659)" fill="#e3eb7b"/>
        <g id="Group_605" data-name="Group 605" transform="translate(0 0)">
          <path id="Path_1097" data-name="Path 1097" d="M1033.206,93.966s-4.6-.683-4.855,2.62c-.986.414-.643,2.162-.641,2.276a2.55,2.55,0,0,0-.986,1.625,1.589,1.589,0,0,0,.761,1.6,2.9,2.9,0,0,0,.05,4.118c.405.4.007,2.765,2.948,3.34s5.967-.9,6.187-2.11,2.015-1.352,1.977-2.809S1034.558,94.015,1033.206,93.966Z" transform="translate(-1008.519 -92.42)" fill="#01008a"/>
          <path id="Path_1098" data-name="Path 1098" d="M1059.626,153.855l3.283.377.078-3.669.061-2.346.03-1.143-2.725-.07-.113,4.356-.011.4-.044,1.077Z" transform="translate(-1035.633 -136.061)" fill="#ffcd9c"/>
          <path id="Path_1099" data-name="Path 1099" d="M1063.012,157.36a8,8,0,0,0,2.758-1.2l.061-2.346c-.418,1.707-1.711,1.931-2.788,2.422Z" transform="translate(-1038.416 -141.66)" fill="#3a3027" opacity="0.33"/>
          <path id="Path_1100" data-name="Path 1100" d="M973.962,114.279c-.056,1.414.393,4.034,2.533,4.034.143,0,4.277-.181,4.642-4.089a2.728,2.728,0,0,1,.323-1.017,4.805,4.805,0,0,1,3.247-2.121l-2.179-4.217a36,36,0,0,0-4.474-.251,3.624,3.624,0,0,0-3.913,3.247c-.018.122-.028.225-.034.3s-.007.129-.007.14v0l.048.306.1.659.2,1.275a.656.656,0,0,1-.047.363A5.467,5.467,0,0,0,973.962,114.279Zm1.99,12.777c-.7,4.8.721,9.675-3.042,10.3l-.154.022a5.54,5.54,0,0,1-.729.045h-8.775a4.04,4.04,0,0,0-.436.146c-.768.3-2.081.382-2.569-.519,0,0-.4-.247-.364-.532,0,0-.221-.175-.2-.369s.606.019.96.211.527,0,.527,0a.816.816,0,0,0-.373-.176c-.207-.031-.568-.4-.4-.59s.78.3,1.2.218.87.374.87.374a3.99,3.99,0,0,0,.477.1,25.44,25.44,0,0,0,7.5-2.7c.161-.086.321-.179.483-.276,0,0,1.05-10.975,2.545-12.421C973.479,120.892,976.7,121.919,975.953,127.056Z" transform="translate(-953.489 -102.868)" fill="#ffcd9c"/>
          <path id="Path_1101" data-name="Path 1101" d="M1022.867,199.191l1.11,2.477.714,1.588.153-.022c3.707-.616,2.384-5.361,3.012-10.09.011-.071.019-.138.03-.209.747-5.136-2.474-6.164-2.474-6.164-.841.814-1.543,4.651-1.992,7.848-.1.687-.187,1.349-.258,1.939C1022.972,198.1,1022.867,199.191,1022.867,199.191Z" transform="translate(-1005.42 -168.745)" fill="#96b60b"/>
          <path id="Path_1102" data-name="Path 1102" d="M1024.635,189.141s-.067,2.036-.247,4.109c-.034.366-.067.736-.1,1.095-.011.067-.019.138-.026.205l-.022.19c-.011.1-.022.2-.034.3v0a12.2,12.2,0,0,1-.385,1.98,1.456,1.456,0,0,1-.228.478l2.328,1.349,1.031.594,1.8,1.046,6.868-.43s-.007-.007-.007-.011a23.865,23.865,0,0,1-2.773-5.5,5.183,5.183,0,0,1-.25-1.875,1.994,1.994,0,0,1,.045-.306c.015-.06.026-.123.041-.187.561-2.6,1.42-7.938,1.42-7.938s2.4-3.063,1.394-5.252a3.666,3.666,0,0,0-2.7-1.845c-.205-.049-.4-.093-.6-.135h0c-.071.041-1.917,1.091-2.44-.25-3.221.041-4.581,1.677-4.663,1.782l0,0s-.112,4.864-1.958,7.6c0,0,0,.007,0,.007a4.9,4.9,0,0,1-.654.8,8.16,8.16,0,0,0,.445.736C1023.346,188.319,1024.018,189.141,1024.635,189.141Z" transform="translate(-1005.092 -160.515)" fill="#e3eb7b"/>
          <path id="Path_1103" data-name="Path 1103" d="M1021.5,298.862c-6.632.28-6.508.809-6.508.809s-.218,9.277-4.234,12.545h-2.025l.013-.619.03-1.462.176-8.471-.685-9.526-.063-.875s.043-.022.121-.06a7.768,7.768,0,0,1,3.769-.8,3.365,3.365,0,0,1,.429.076,5.381,5.381,0,0,1,1.608.724c.334.208.648.421.983.593a3.531,3.531,0,0,0,.648.263,3.16,3.16,0,0,0,1.265.092c.063-.008.126-.016.192-.027,2.155-.349,5.93.444,6.674,1.313l0,.005h0S1028.127,298.582,1021.5,298.862Z" transform="translate(-993.365 -253.9)" fill="#b8d1e1"/>
          <path id="Path_1105" data-name="Path 1105" d="M1041.824,299.921l-3.139,1.177-.314-1.027,2.171-.243h0Z" transform="translate(-1018.163 -261.669)" fill="#1c205f"/>
          <path id="Path_1108" data-name="Path 1108" d="M1028.833,305.456s.6,8.988-2.449,15.011c0,0,3.465-3.047,2.869-15.337Z" transform="translate(-1008.311 -266.026)" fill="#1c205f"/>
          <path id="Path_1109" data-name="Path 1109" d="M1026.966,190c-.7,4.8.721,9.675-3.042,10.3l-.153.022a5.557,5.557,0,0,1-.729.045H1014.2c-.1.028-.2.066-.325.114-.767.3-2.08.382-2.569-.519,0,0-.4-.247-.364-.532,0,0-.221-.175-.2-.369s.606.019.96.211.526,0,.526,0a.817.817,0,0,0-.373-.176c-.207-.031-.568-.4-.4-.59s.78.3,1.2.218.87.374.87.374a3.893,3.893,0,0,0,.553.112,25.476,25.476,0,0,0,7.383-2.673c.161-.086.321-.179.482-.276,0,0,1.05-10.975,2.544-12.421C1024.492,183.838,1027.712,184.865,1026.966,190Z" transform="translate(-995.451 -166.335)" fill="#ffcd9c"/>
          <path id="Path_1112" data-name="Path 1112" d="M1051.737,94.556a2.536,2.536,0,0,0,.668-3.518,1.88,1.88,0,0,0-1.7-.568,2.737,2.737,0,0,0,.085-.5,2.1,2.1,0,0,0-2.311-2.382c-1.155-2.533-4.12-1.988-4.94-1.328a3,3,0,0,0-3.622-.187,3.218,3.218,0,0,0-.9,4.6,1.855,1.855,0,0,0,2.334.725,1.693,1.693,0,0,0,1.2.212,2.282,2.282,0,0,0,2.158,1.819c.064,0,.125.007.186.009-.335,2.1,1.3,4.029,1.649,5.026-.408.93-.969,2.329,1.528,3.21,2.38.84,4.461-1.56,4.461-1.56C1054.1,99.943,1054.238,95.223,1051.737,94.556Z" transform="translate(-1018.21 -85.557)" fill="#01008a"/>
          <rect id="Rectangle_486" data-name="Rectangle 486" width="30.279" height="1.249" transform="translate(3.648 32.172)" fill="#f7c30b"/>
          <rect id="Rectangle_487" data-name="Rectangle 487" width="17.509" height="1.252" transform="translate(3.651 32.168)" fill="#f7c30b"/>
          <path id="Path_1113" data-name="Path 1113" d="M924.9,190.572l3.157,12.785h20.308l-3.234-12.785Z" transform="translate(-924.901 -171.87)" fill="#f7c30b"/>
          <path id="Path_1114" data-name="Path 1114" d="M924.9,190.572l3.157,12.785h18.914l-3.234-12.785Z" transform="translate(-924.901 -171.87)" fill="#fe8a11"/>
          <rect id="Rectangle_488" data-name="Rectangle 488" width="17.784" height="0.685" transform="translate(23.465 32.172) rotate(180)" fill="#f7c30b"/>
          <path id="Path_1115" data-name="Path 1115" d="M976.2,218.718a1.406,1.406,0,1,1-1.406-1.406,1.406,1.406,0,0,1,1.406,1.406Z" transform="translate(-964.757 -193.848)" fill="#eee8e5"/>
        </g>
      </g>
      <g id="Group_613" data-name="Group 613" transform="translate(1985.363 3426.255)">
        <path id="Path_894" data-name="Path 894" d="M1599.489,323.74h-2.68l.173-2.28.023-.314h2.289l.165,2.194Z" transform="translate(-1589.235 -308.813)" fill="#404072"/>
        <rect id="Rectangle_449" data-name="Rectangle 449" width="6.441" height="0.741" transform="translate(5.694 14.927)" fill="#404072"/>
        <path id="Path_895" data-name="Path 895" d="M1600.4,323.34l-2.477-1.88.024-.314h2.289Z" transform="translate(-1590.179 -308.813)" fill="#a5a6a8"/>
        <g id="Group_607" data-name="Group 607" transform="translate(0 0)">
          <rect id="Rectangle_447" data-name="Rectangle 447" width="17.829" height="12.333" rx="0.915" fill="#404072"/>
          <rect id="Rectangle_448" data-name="Rectangle 448" width="17.829" height="9.848" transform="translate(0 0.741)" fill="#5e5f5f"/>
          <path id="Path_896" data-name="Path 896" d="M1550.128,248.238v9.143h17.11v-9.086Z" transform="translate(-1549.769 -247.173)" fill="#cce3f0"/>
          <rect id="Rectangle_450" data-name="Rectangle 450" width="5.103" height="3.11" transform="translate(1.847 2.25)" fill="#e7eded"/>
          <rect id="Rectangle_451" data-name="Rectangle 451" width="5.103" height="0.737" transform="translate(1.847 2.25)" fill="#6d7675"/>
          <rect id="Rectangle_452" data-name="Rectangle 452" width="5.103" height="3.11" transform="translate(8.914 5.24)" fill="#e7eded"/>
          <rect id="Rectangle_453" data-name="Rectangle 453" width="5.103" height="0.737" transform="translate(8.914 5.24)" fill="#6d7675"/>
          <rect id="Rectangle_454" data-name="Rectangle 454" width="0.32" height="0.315" transform="translate(15.822 1.443)" fill="#e7eded"/>
          <rect id="Rectangle_455" data-name="Rectangle 455" width="0.32" height="0.315" transform="translate(16.759 1.443)" fill="#e7eded"/>
          <rect id="Rectangle_456" data-name="Rectangle 456" width="0.32" height="0.315" transform="translate(15.822 2.163)" fill="#e7eded"/>
          <rect id="Rectangle_457" data-name="Rectangle 457" width="0.32" height="0.315" transform="translate(16.759 2.163)" fill="#e7eded"/>
          <rect id="Rectangle_458" data-name="Rectangle 458" width="0.32" height="0.315" transform="translate(15.822 2.883)" fill="#e7eded"/>
          <rect id="Rectangle_459" data-name="Rectangle 459" width="0.32" height="0.315" transform="translate(16.759 2.883)" fill="#e7eded"/>
          <rect id="Rectangle_460" data-name="Rectangle 460" width="0.32" height="0.315" transform="translate(15.822 3.603)" fill="#e7eded"/>
          <rect id="Rectangle_461" data-name="Rectangle 461" width="0.32" height="0.315" transform="translate(16.759 3.603)" fill="#e7eded"/>
          <rect id="Rectangle_462" data-name="Rectangle 462" width="0.32" height="0.315" transform="translate(15.822 4.323)" fill="#e7eded"/>
          <rect id="Rectangle_463" data-name="Rectangle 463" width="0.32" height="0.315" transform="translate(16.759 4.323)" fill="#e7eded"/>
          <rect id="Rectangle_464" data-name="Rectangle 464" width="0.32" height="0.315" transform="translate(15.822 5.043)" fill="#e7eded"/>
          <rect id="Rectangle_465" data-name="Rectangle 465" width="0.32" height="0.315" transform="translate(16.759 5.043)" fill="#e7eded"/>
          <rect id="Rectangle_466" data-name="Rectangle 466" width="0.32" height="0.315" transform="translate(15.822 5.764)" fill="#e7eded"/>
          <rect id="Rectangle_467" data-name="Rectangle 467" width="0.32" height="0.315" transform="translate(16.759 5.764)" fill="#e7eded"/>
          <rect id="Rectangle_468" data-name="Rectangle 468" width="0.32" height="0.315" transform="translate(15.822 6.484)" fill="#e7eded"/>
          <rect id="Rectangle_469" data-name="Rectangle 469" width="0.32" height="0.315" transform="translate(16.759 6.484)" fill="#e7eded"/>
          <path id="Path_897" data-name="Path 897" d="M1563.411,248.451l-7.676,4.32v-.4l6.957-3.916Z" transform="translate(-1554.509 -247.353)" opacity="0.61" fill="url(#linear-gradient-2)"/>
          <path id="Path_898" data-name="Path 898" d="M1564.272,248.451l-8.536,4.8v-.2l8.177-4.6Z" transform="translate(-1554.509 -247.353)" opacity="0.61" fill="url(#linear-gradient-2)"/>
          <path id="Path_899" data-name="Path 899" d="M1567.555,248.451l-11.82,6.652v-.4l11.1-6.248Z" transform="translate(-1554.509 -247.353)" opacity="0.61" fill="url(#linear-gradient-2)"/>
          <path id="Path_900" data-name="Path 900" d="M1571.919,248.451l-15.26,8.589-.087-.154,14.987-8.435Z" transform="translate(-1555.217 -247.353)" opacity="0.61" fill="url(#linear-gradient-2)"/>
        </g>
      </g>
      <g id="Group_614" data-name="Group 614" transform="translate(1969.847 3418.147)">
        <rect id="Rectangle_470" data-name="Rectangle 470" width="4.134" height="4.214" transform="translate(5.448 9.34)" fill="#ffcd9c"/>
        <path id="Path_901" data-name="Path 901" d="M1480.548,334.746V336a5.384,5.384,0,0,1-4.134-2.029C1478.482,335.2,1479.791,335.117,1480.548,334.746Z" transform="translate(-1470.967 -324.157)" fill="#3a3027" opacity="0.33"/>
        <path id="Path_902" data-name="Path 902" d="M1461.539,273.26a11.673,11.673,0,0,1,.165,2.593,1.5,1.5,0,0,1-.542.661c-.688.5-2.063.822-4.439-.59-.176-.1-.359-.217-.549-.344l-.646-1.965s-.067-.093-.172-.247l-.112-.164a7.777,7.777,0,0,1-1.289-2.514.89.89,0,0,1,.142-.445,5.32,5.32,0,0,1,7.279-1.647,6.474,6.474,0,0,1,.564,1.759l-.542,1.887S1461.464,272.685,1461.539,273.26Zm2.174,26.535,1.062-.373s.686,1.309.354,2.066c-.185.421-.873.562-.873.562a.175.175,0,0,1-.047-.272l.338-.279a.641.641,0,0,0,.051-.684c-.044-.107-.1-.257-.212-.268,0,0,.281.711-.03.8s-.491-.733-.478-1.113S1463.713,299.8,1463.713,299.8Z" transform="translate(-1451.274 -266.107)" fill="#ffcd9c"/>
        <path id="Path_903" data-name="Path 903" d="M1457.835,521.948l-.021,1.229-.154,9.107-.021,1.221v0l-.158,9.321-1.959.087s-1.977-6.326-.2-10.295l-1.667-7.055-1.256,6.52-.234,1.208,0,.033-.812,9.5H1449.4s-1.207-7.8.284-10.208l-.186-8.035-.061-2.636Z" transform="translate(-1446.875 -488.959)" fill="#414143"/>
        <path id="Path_904" data-name="Path 904" d="M1467.437,601.827l-.233,1.208,0,.034a10.491,10.491,0,0,0-1.109-1.572A3.519,3.519,0,0,1,1467.437,601.827Zm5.265.2-.022,1.22a10.574,10.574,0,0,0-1.025-1.429A3.382,3.382,0,0,1,1472.7,602.028Z" transform="translate(-1461.916 -558.702)" fill="#1c262e"/>
        <path id="Path_905" data-name="Path 905" d="M1461.377,521.948l-.021,1.229a37.645,37.645,0,0,1-8.319,1.407l-.062-2.636Z" transform="translate(-1450.416 -488.959)" fill="#010508"/>
        <path id="Path_906" data-name="Path 906" d="M1447.719,363.776l-1.237.549-.4.179-.7-2.189.041,1.24a34.965,34.965,0,0,1-6.233,1.58c-.247.034-.5.063-.74.086a10.318,10.318,0,0,1-2.305,0s.572-8.749-.826-13.6c-1.364-4.755-1.82-5.973.751-7.228a7.269,7.269,0,0,0,2.724-2.163,6.474,6.474,0,0,0,.624-.994s.512,2.043,3.288,2.073a3.05,3.05,0,0,0,.848-1.782l1.184,1.065,2.294,2.294s.878,5.869-.374,8.308Z" transform="translate(-1433.969 -330.516)" fill="#498799"/>
        <path id="Path_907" data-name="Path 907" d="M1525.883,487.173l-.4.179-.7-2.192v-3.814Z" transform="translate(-1513.37 -453.362)" fill="#325c69"/>
        <path id="Path_908" data-name="Path 908" d="M1487.2,543.054l.222-1.157.022,2.192Z" transform="translate(-1480.421 -506.449)" fill="#010508"/>
        <path id="Path_909" data-name="Path 909" d="M1441.3,368.826l1.656-.251,1.626.251.718.941-.525-1.192-2.009-.187Z" transform="translate(-1440.178 -354.328)" fill="#325c69"/>
        <path id="Path_910" data-name="Path 910" d="M1468.023,454.782c-.247.034-.5.064-.74.086l-.179-11.39A30.433,30.433,0,0,1,1468.023,454.782Z" transform="translate(-1462.804 -420.162)" fill="#325c69"/>
        <path id="Path_911" data-name="Path 911" d="M1459.538,537.306l-1.014.445-.259.735s.547.363,1.224-.5c0,0,.445.864.955.6a2.028,2.028,0,0,1-.479-.719A1.143,1.143,0,0,0,1459.538,537.306Z" transform="translate(-1455.054 -502.424)" fill="#ffcd9c"/>
        <path id="Path_912" data-name="Path 912" d="M1435.687,398.428s-4.936-17.256-3.034-20.033l1.372,1.33s4.173,11.738,2.676,18.259Z" transform="translate(-1432.217 -363.102)" fill="#498799"/>
        <path id="Path_913" data-name="Path 913" d="M1452.676,691.329h1.951l1.3,1.205v.4h-3.254Z" transform="translate(-1450.154 -637.462)" fill="#010508"/>
        <path id="Path_914" data-name="Path 914" d="M1502.366,691.416l1.959-.087,1.14,1.011v.591h-3.1Z" transform="translate(-1493.719 -637.462)" fill="#010508"/>
        <path id="Path_915" data-name="Path 915" d="M1453.546,260.871a2.294,2.294,0,0,0,1.533-2.286,10.7,10.7,0,0,1,2.993-1.675c1.141-.392,2.567.218,3.756.808-.026-.065-.612-1.824-2.089-2.031a3.266,3.266,0,0,1,.965,0s-1.211-1.8-4.428-1.262a5.662,5.662,0,0,0-2.265,1.115,2.089,2.089,0,0,0-.991,1.735S1452.311,258.145,1453.546,260.871Z" transform="translate(-1450.278 -254.325)" fill="#666"/>
        <path id="Path_916" data-name="Path 916" d="M1453.546,269.518a2.294,2.294,0,0,0,1.533-2.286,10.7,10.7,0,0,1,2.993-1.675,4.758,4.758,0,0,0-2.386.388c-1.2.616-1.7-.116-1.4-.943a.7.7,0,0,0-.276-.814,2.088,2.088,0,0,0-.99,1.735S1452.311,266.793,1453.546,269.518Z" transform="translate(-1450.279 -262.972)" fill="#575757"/>
        <path id="Path_917" data-name="Path 917" d="M1456.941,301.834a.826.826,0,1,1-.917-.723A.826.826,0,0,1,1456.941,301.834Z" transform="translate(-1452.45 -295.339)" fill="#ffcd9c"/>
      </g>
      <g id="Group_616" data-name="Group 616" transform="translate(2001.794 3417.317)">
        <path id="Path_943" data-name="Path 943" d="M1669.937,694.137l-.951.759.757-.025.59-.734Z" transform="translate(-1665.573 -638.921)" fill="#ffcd9c"/>
        <g id="Group_611" data-name="Group 611" transform="translate(0 0)">
          <path id="Path_934" data-name="Path 934" d="M1708.445,313.177a1.806,1.806,0,0,1-.114.6,4.067,4.067,0,0,1-.288.615c-.688,1.228-1.882,2.408-.626,3.061,2.077,1.072,4.22-.737,5.658-2.484.124-.074.249-.143.371-.212s.239-.138.353-.208l-1.13-5.57-.484-.369-.513-.39c-.905-.48-1.24-1.552-1.977-2.222a2.189,2.189,0,0,0-.762-.444,2.277,2.277,0,0,0-.427-.1,3.267,3.267,0,0,0-1.723.292,3.069,3.069,0,0,0-1.71,3.4,4.526,4.526,0,0,0,2.18,3.38,3.272,3.272,0,0,0,.6.315C1708.155,313.009,1708.445,313.177,1708.445,313.177Z" transform="translate(-1696.666 -303.717)" fill="#a6712f"/>
          <path id="Path_935" data-name="Path 935" d="M1738.143,359.916l2.6.3.062-2.909.048-1.86.024-.906-2.161-.056-.089,3.454-.009.318-.035.854Z" transform="translate(-1725.213 -346.01)" fill="#e8bb8e"/>
          <path id="Path_936" data-name="Path 936" d="M1741.616,364.284a6.34,6.34,0,0,0,2.187-.95l.048-1.86c-.331,1.353-1.356,1.531-2.21,1.921Z" transform="translate(-1728.208 -352.038)" fill="#e69b66"/>
          <path id="Path_937" data-name="Path 937" d="M1717.868,319.123c-.044,1.121,1.363,3.2,1.795,3.2a2.437,2.437,0,0,0,.3-.027,3.962,3.962,0,0,0,3.588-3.215,2.491,2.491,0,0,1,.256-.806,3.809,3.809,0,0,1,2.573-1.681l-1.728-3.344a28.539,28.539,0,0,0-3.546-.2,2.873,2.873,0,0,0-3.1,2.574c-.014.1-.022.178-.026.238s-.005.1-.005.111v0l.038.243.082.522.182,1.162A5.271,5.271,0,0,0,1717.868,319.123Z" transform="translate(-1707.727 -310.277)" fill="#ffcd9c"/>
          <path id="Path_939" data-name="Path 939" d="M1724.79,296.249a2.7,2.7,0,0,0,.442.556,10.139,10.139,0,0,1,3.213,3.475q.14.262.257.534t.212.552c.4,1.192-.341,2.331-.341,3.47a1.544,1.544,0,0,0,1.34,1.608,5.15,5.15,0,0,0,2.154-.243,5.077,5.077,0,0,0,.681-.283,3.569,3.569,0,0,0,2.933-3.63,7.192,7.192,0,0,0-.013-.736,6.41,6.41,0,0,0-.3-3.582c-.087-.218-.187-.432-.293-.654a7.565,7.565,0,0,0-1.923-2.857,4.94,4.94,0,0,0-.542-.417,6.035,6.035,0,0,0-6.9-.1,2.49,2.49,0,0,0-.426.316,1.857,1.857,0,0,0-.6,1.478A2.718,2.718,0,0,0,1724.79,296.249Z" transform="translate(-1713.602 -292.904)" fill="#cf9951"/>
          <path id="Path_940" data-name="Path 940" d="M1688.335,345.2c.308.264.187.936-.27,1.5s-1.076.807-1.384.543-.186-.936.27-1.5S1688.028,344.937,1688.335,345.2Zm-2.051,32.362-2.726.808s-.705,9.456-.3,14.033l.7.016,2.33-8.9A7.743,7.743,0,0,0,1686.284,377.563Zm-4.521,1.094-2.828.288s-2.582,9.611-3.034,14.183h.669l4.09-8.618A7.743,7.743,0,0,0,1681.762,378.656Z" transform="translate(-1671.536 -337.912)" fill="#ffcd9c"/>
          <path id="Path_941" data-name="Path 941" d="M1670.369,690.654h1.174l.391-1.571v1.54s.208-2.184.208-2.309H1672l-.448,1.451-.543.17.543-1.445h-.095l-.625,1.552-.461.278Zm-8.169,0h1.716l.82-.751.126.694h.29l.189-1.06h0a.772.772,0,0,0,.055-.907l-.261-.41-1.245,1.548-.757.025Z" transform="translate(-1659.721 -633.818)" fill="#313131"/>
          <path id="Path_944" data-name="Path 944" d="M1697.947,508.082l8.39-.624a25.418,25.418,0,0,0,.9-5.556s2.726-4-.336-7.064c0,0-4.409,2.958-7.235,1.41A60.986,60.986,0,0,0,1697.947,508.082Z" transform="translate(-1690.548 -467.049)" fill="#313131"/>
          <path id="Path_945" data-name="Path 945" d="M1644.757,405.984c.22.086.306-.041.306-.041a.482.482,0,0,0-.23-.075c-.123,0-.36-.191-.274-.314s.476.118.715.039.534.154.534.154a21.914,21.914,0,0,0,6.274-2.142c.117-.063.235-.131.352-.2,0,0,.767-8.019,1.859-9.076,0,0,2.353.751,1.807,4.5-.511,3.5.527,7.069-2.222,7.525l-.112.016a4.051,4.051,0,0,1-.532.033h-6.8a2.479,2.479,0,0,0-.3.142c-.424.233-1.2.355-1.551-.133,0,0-.253-.115-.25-.283,0,0-.141-.085-.144-.2S1644.538,405.9,1644.757,405.984Z" transform="translate(-1644.184 -380.37)" fill="#febd9f"/>
          <path id="Path_946" data-name="Path 946" d="M1704.145,403.406l.811,1.81.521,1.16.112-.016c2.708-.45,1.741-3.917,2.2-7.372.008-.052.014-.1.022-.153.546-3.753-1.807-4.5-1.807-4.5-.614.6-1.127,3.4-1.455,5.735-.074.5-.136.985-.188,1.417C1704.221,402.609,1704.145,403.406,1704.145,403.406Z" transform="translate(-1695.893 -380.372)" fill="#a69d01"/>
          <path id="Path_947" data-name="Path 947" d="M1705.712,430.662a7.093,7.093,0,0,0,.543.614l.052,3.12.522,1.16.112-.016c2.708-.45,1.741-3.917,2.2-7.372l-3.24,1.078C1705.827,429.748,1705.764,430.231,1705.712,430.662Z" transform="translate(-1697.245 -409.553)" fill="#a69d01"/>
          <path id="Path_948" data-name="Path 948" d="M1701.582,460.479a9.016,9.016,0,0,1,.761,2.8h.39a3.886,3.886,0,0,0,.644-.049,8.937,8.937,0,0,0-1.444-2.953C1701.817,460.348,1701.7,460.416,1701.582,460.479Z" transform="translate(-1693.683 -437.244)" fill="#ffc529"/>
          <path id="Path_949" data-name="Path 949" d="M1705.353,393.93s-.049,1.486-.182,3c-.025.267-.973,5.186-1.032,5.257,4.1,1.292,9.239-.28,9.239-.28l-.005,0s0,0,0,0a17.033,17.033,0,0,1-2.024-4.021c-.843-2.936.917-7.531.917-7.531s1.752-2.237,1.018-3.836c-.266-.579-2.01-1.337-2.152-1.366,0,0-1.786.719-2.169-.261a3.971,3.971,0,0,0-3.278,1.3l0,0s-.083,3.553-1.43,5.552c0,0,0,0,0,0a3.543,3.543,0,0,1-.477.584,5.982,5.982,0,0,0,.325.538C1704.411,393.329,1704.9,393.93,1705.353,393.93Z" transform="translate(-1695.569 -372.226)" fill="#ffc529"/>
          <path id="Path_950" data-name="Path 950" d="M1677.016,402.806c.129,1.055,1.964.828,1.964.828h9.18a4.006,4.006,0,0,0,.532-.033l.112-.016c2.748-.456,1.712-4.021,2.222-7.525.546-3.754-1.807-4.5-1.807-4.5-1.092,1.057-1.858,9.076-1.858,9.076-.117.07-.235.139-.352.2a17.951,17.951,0,0,1-5.653,1.973Z" transform="translate(-1672.497 -377.98)" fill="#febd9f"/>
          <path id="Path_951" data-name="Path 951" d="M1752.179,400.634l1.332,2.97.112-.016c2.749-.456,1.711-4.021,2.222-7.525.546-3.753-1.807-4.5-1.807-4.5C1752.946,392.614,1752.179,400.634,1752.179,400.634Z" transform="translate(-1737.318 -377.982)" fill="#a69d01"/>
          <path id="Path_952" data-name="Path 952" d="M1749.621,457.709a9,9,0,0,1,.762,2.8h.39a3.893,3.893,0,0,0,.644-.049,8.934,8.934,0,0,0-1.444-2.953C1749.856,457.578,1749.738,457.646,1749.621,457.709Z" transform="translate(-1735.111 -434.855)" fill="#ffc529"/>
        </g>
      </g>
      <g id="Group_617" data-name="Group 617" transform="translate(1839.79 3449.2)">
        <path id="Path_953" data-name="Path 953" d="M680.972,433.872a7.014,7.014,0,0,1,1.518,3.243,13.392,13.392,0,0,1,.28,2.971l-1.467.854-.028.015.039,0,1.437-.158a27.29,27.29,0,0,1-.61,4.5l-1.054.113-.388.044c-.116-.021-.231-.044-.339-.074a.709.709,0,0,1-.073-.017,27.114,27.114,0,0,1-1.683-5.339l1.156-.493.463-.2-.675-.177-1.139-.3c-.069-.5-.116-1.013-.137-1.523,0-.112-.007-.222-.01-.332l1.3-.6-1.286-.327a7.938,7.938,0,0,1,.909-3.4,3.338,3.338,0,0,1,1.227.672l-.484,1.456Z" transform="translate(-673.432 -432.664)" fill="#2f9a50"/>
        <path id="Path_954" data-name="Path 954" d="M648.834,451.405a12.067,12.067,0,0,1,1.276,1.825c.074.12.143.245.213.374.085.153.167.312.25.475l-.935,1.456,1.243-.819c.163.355.326.732.48,1.134A29.9,29.9,0,0,1,652.392,459l-.742.488-.127.085c-.088-.011-.177-.025-.261-.04-.116-.021-.231-.044-.339-.074a.739.739,0,0,1-.073-.017,5.327,5.327,0,0,1-1.092-.414,26.355,26.355,0,0,1-2.921-3.1l1.125-1.353-1.833.405a16.894,16.894,0,0,1-.98-1.587l.886-1.135-1.292.3a7.875,7.875,0,0,1-.745-3.437,3.326,3.326,0,0,1,1.4.038l.234,1.516.5-1.295A6.861,6.861,0,0,1,648.834,451.405Z" transform="translate(-643.993 -446.744)" fill="#3fc969"/>
        <path id="Path_955" data-name="Path 955" d="M699.174,445.009a7.968,7.968,0,0,1,.016,3.517l-1.328-.008,1.111.914a15.739,15.739,0,0,1-.613,1.759l-1.873,0,1.388,1.077a26.578,26.578,0,0,1-2.218,3.721,5.451,5.451,0,0,1-1.908.1c-.088-.01-.177-.025-.261-.04-.116-.021-.231-.044-.339-.074a26.969,26.969,0,0,1,.438-3.6c.025-.138.053-.27.081-.4l1.39.53-1.229-1.22a12.339,12.339,0,0,1,1.449-3.565,6.544,6.544,0,0,1,1.862-1.991l.774,1.155-.1-1.53a3.355,3.355,0,0,1,1.359-.343Z" transform="translate(-686.22 -443.268)" fill="#23ba51"/>
        <rect id="Rectangle_471" data-name="Rectangle 471" width="5.062" height="4.78" transform="translate(5.206 11.999)" fill="#5b433f"/>
      </g>
      <g id="Group_618" data-name="Group 618" transform="translate(1769.216 3457.568)">
        <path id="Path_959" data-name="Path 959" d="M791.811,516.056s-.625-3.059-1.73-4.108c-.924-.877-2.092-2.8-1.122-3.863s7.68,5.388,7.154,6.382-3.822,3.9-3.822,3.9Z" transform="translate(-781.084 -507.966)" fill="#242444"/>
        <path id="Path_960" data-name="Path 960" d="M795.924,564.178l-.427.1c-1.048.252-2.1.513-3.142.795l1.75-18.31h-3.249l-3.374,21.76a2.263,2.263,0,0,0,1.708,2.282l.861.216c1.889.475,3.775.838,5.66,1.182.071.013.142.022.212.033Z" transform="translate(-780.201 -538.788)" fill="#4d59e3"/>
        <path id="Path_961" data-name="Path 961" d="M756.433,515.734s-1.133-2.91-2.4-3.758c-1.059-.709-2.535-2.406-1.758-3.618s8.479,4.015,8.128,5.083-3.108,4.493-3.108,4.493Z" transform="translate(-752.06 -508.133)" fill="#242444"/>
        <path id="Path_962" data-name="Path 962" d="M791.994,560.177a5.631,5.631,0,0,0-1.418-.4,8.619,8.619,0,0,0-1.41-.106,10.439,10.439,0,0,0-1.4.094c-.467.065-.934.148-1.4.222q-2.8.449-5.6,1c-1.866.364-3.73.759-5.594,1.2-1.048.252-2.1.513-3.142.795l-.749-19.059h-3.249l-.875,24.259a2.263,2.263,0,0,0,1.708,2.282l.3.076h23.753a5.974,5.974,0,0,0-.926-10.358Z" transform="translate(-764.05 -536.529)" fill="#4c6afe"/>
        <path id="Path_963" data-name="Path 963" d="M963.252,597.406l4.509,9.435-.5-.468,8.107,4.384a.9.9,0,0,1-.8,1.606l-8.37-3.857a1.025,1.025,0,0,1-.413-.345l-.085-.123-5.953-8.6a2.033,2.033,0,0,1,3.344-2.315A2.193,2.193,0,0,1,963.252,597.406Z" transform="translate(-916.771 -578.104)" fill="#fdc8a9"/>
        <path id="Path_964" data-name="Path 964" d="M959.8,581.182l-2.94-.542.4-2.179.632-3.43,2.94.541Z" transform="translate(-914.768 -561.247)" fill="#fdc8a9"/>
        <path id="Path_965" data-name="Path 965" d="M963.828,578.049l.456-2.477-2.94-.541-.141.764A3.843,3.843,0,0,0,963.828,578.049Z" transform="translate(-918.216 -561.247)" fill="#fdc8a9" opacity="0.54" style="mix-blend-mode: multiply;isolation: isolate"/>
        <path id="Path_966" data-name="Path 966" d="M967.765,544.571s-1.662,5.6-3.091,6.661-4.685-2.975-4.685-2.975l1.927-5.285,4.381-1.484L968,543.94Z" transform="translate(-917.252 -534.598)" fill="#fdc8a9"/>
        <path id="Path_967" data-name="Path 967" d="M963.281,604.429s1.815-.992,3.752-2.117l-3.107-5.791a2.042,2.042,0,0,0-2.795-.644c-1.889.917-.549,3.6-.549,3.6Z" transform="translate(-917.356 -577.579)" fill="#fe54ad"/>
        <path id="Path_969" data-name="Path 969" d="M900.5,592.319a2.9,2.9,0,0,1,2.488,1.6c.884,1.648,1,2.571.176,5.24s-.825,2.87-1.928,3.6a58.4,58.4,0,0,0-5.316,3.971,11.783,11.783,0,0,1-5.908,2.256H884.76l-1.346-10.748s6.421,1.87,10.151-2.006S897.616,592.275,900.5,592.319Z" transform="translate(-856.416 -574.976)" fill="#ffaede"/>
        <path id="Path_970" data-name="Path 970" d="M948.93,602.955l-.891,11.529-1.164-1.2,10.391.544a.9.9,0,0,1-.043,1.795l-10.405.046a1.153,1.153,0,0,1-1.155-1.072l-.008-.126-.778-11.537a2.032,2.032,0,0,1,4.055-.274A2.263,2.263,0,0,1,948.93,602.955Z" transform="translate(-905.241 -581.692)" fill="#fdc8a9"/>
        <path id="Path_971" data-name="Path 971" d="M954.848,527.065a6.073,6.073,0,0,0-3.076-1.208c-1.572-.136-3.526.232-4.2,2.642-1.2,4.266-1.285,6.656,1.69,9.327,0,0,1.243-.128,1.176-2.128s.733-3.066,1.467-2.333.8-1.267,1.2-1.933,2.133-2.133,3.133-.133,2.711,1.667,3.244.8a2.292,2.292,0,0,0-.844-3.333C957.213,527.877,956.949,528.621,954.848,527.065Z" transform="translate(-906.765 -522.16)" fill="#242444"/>
        <path id="Path_972" data-name="Path 972" d="M1004.775,625.888l-13.194-.008,2.917-11.988,13.194.008Z" transform="translate(-942.35 -592.12)" fill="#404072"/>
        <path id="Path_973" data-name="Path 973" d="M943.068,607.635s2.274-.184,4.73-.442l-.536-6.557s-.213-1.795-2.528-1.71-2.167,3.085-2.167,3.085Z" transform="translate(-903.408 -580.229)" fill="#fe54ad"/>
        <path id="Path_974" data-name="Path 974" d="M932.666,520.815s-1.333-2.666-3.555-1.067-2.133,3.733-1.778,5.6.8,4.177-.533,5.066a2.86,2.86,0,0,0-.978,4c.978,1.244,1.955,1.333,1.6,3.733s4.8,2.133,3.733-1.6.755-2.69,1.311-5.967-4.344-8.62-1.6-9.187c.774-.16,1.067,1,1.067,1Z" transform="translate(-889.728 -516.921)" fill="#242444"/>
        <path id="Path_975" data-name="Path 975" d="M951.958,525.495a.4.4,0,0,1-.2-.748l2-1.133a.4.4,0,1,1,.394.7l-2,1.133A.4.4,0,0,1,951.958,525.495Z" transform="translate(-910.554 -520.356)" fill="#fe54ad"/>
        <rect id="Rectangle_475" data-name="Rectangle 475" width="16.961" height="1.499" transform="translate(45.463 33.018)" fill="#404072"/>
        <path id="Path_976" data-name="Path 976" d="M1084.636,597.059a.716.716,0,1,0-.716.716A.716.716,0,0,0,1084.636,597.059Zm1.686.83a.5.5,0,0,1-.5-.5,2.235,2.235,0,0,0-2.232-2.233.5.5,0,1,1,0-1,3.236,3.236,0,0,1,3.232,3.232A.5.5,0,0,1,1086.322,597.89Z" transform="translate(-1015.051 -576.442)" fill="#647ca8"/>
        <path id="Path_977" data-name="Path 977" d="M1088.384,589.922a.5.5,0,0,1-.5-.5,4.3,4.3,0,0,0-4.294-4.294.5.5,0,0,1,0-1,5.3,5.3,0,0,1,5.294,5.294A.5.5,0,0,1,1088.384,589.922Z" transform="translate(-1015.051 -568.474)" fill="#647ca8"/>
        <path id="Path_978" data-name="Path 978" d="M958.673,587.521s1.349,2.363,2.568,2.562,1.212-1.076,0-3.075S958.673,587.521,958.673,587.521Z" transform="translate(-916.206 -570.148)" fill="#fdc8a9"/>
        <path id="Path_979" data-name="Path 979" d="M1027.547,642.372a1.125,1.125,0,1,0-1.125,1.125A1.125,1.125,0,0,0,1027.547,642.372Z" transform="translate(-969.136 -613.852)" fill="url(#linear-gradient-6)"/>
      </g>
    </g>
  </g>
</svg>
