<svg id="Group_428" data-name="Group 428" xmlns="http://www.w3.org/2000/svg" width="18.443" height="18.443" viewBox="0 0 18.443 18.443">
  <path id="Path_100" data-name="Path 100" d="M122.374,5.187A5.187,5.187,0,1,1,117.187,0a5.187,5.187,0,0,1,5.187,5.187Z" transform="translate(-107.966)" fill="#e7ece9"/>
  <path id="Path_101" data-name="Path 101" d="M13.833,320H11.848A6.272,6.272,0,0,1,6.6,320H4.611A4.611,4.611,0,0,0,0,324.611v.576a1.729,1.729,0,0,0,1.729,1.729H16.714a1.729,1.729,0,0,0,1.729-1.729v-.576A4.611,4.611,0,0,0,13.833,320Z" transform="translate(0 -308.473)" fill="#a5a1a1"/>
</svg>
