<svg id="Group_429" data-name="Group 429" xmlns="http://www.w3.org/2000/svg" width="13.833" height="18.443" viewBox="0 0 13.833 18.443">
  <path id="Path_102" data-name="Path 102" d="M13.833,1.729V18.443L6.916,14.409,0,18.443V1.729A1.729,1.729,0,0,1,1.729,0H2.882V11.747a.576.576,0,0,0,.834.515l3.2-1.6,3.2,1.6a.576.576,0,0,0,.834-.515V0H12.1a1.729,1.729,0,0,1,1.729,1.729Z" fill="#e7ece9"/>
  <path id="Path_103" data-name="Path 103" d="M88.069,0V11.747a.576.576,0,0,1-.834.515l-3.2-1.6-3.2,1.6A.576.576,0,0,1,80,11.747V0Z" transform="translate(-77.118)" fill="#a5a1a1"/>
</svg>
