<svg id="Group_427" data-name="Group 427" xmlns="http://www.w3.org/2000/svg" width="18.44" height="18.443" viewBox="0 0 18.44 18.443">
  <path id="Path_98" data-name="Path 98" d="M7.492,2.882a4.61,4.61,0,1,1-3.26,1.35,4.61,4.61,0,0,1,3.26-1.35M7.492,0a7.492,7.492,0,1,0,7.492,7.492A7.492,7.492,0,0,0,7.492,0Z" fill="#e7ece9"/>
  <path id="Path_99" data-name="Path 99" d="M342.083,341.068l-1.019,1.019a.861.861,0,0,1-1.221,0l-3.591-3.591a.865.865,0,0,1-.252-.612V337.3l1.3-1.3h.587a.865.865,0,0,1,.612.252l3.591,3.591A.868.868,0,0,1,342.083,341.068Z" transform="translate(-323.898 -323.898)" fill="#a5a1a1"/>
</svg>
