<svg xmlns="http://www.w3.org/2000/svg" width="20.007" height="20.029" viewBox="0 0 20.007 20.029">
  <g id="Group_8667" transform="translate(-11812 -639.985)">
    <path id="shop" d="M22,7.82a1.25,1.25,0,0,0,0-.19h0l-2-5A1,1,0,0,0,19,2H5a1,1,0,0,0-.93.63l-2,5h0a1.25,1.25,0,0,0,0,.19A.58.58,0,0,0,2,8H2a4,4,0,0,0,2,3.4V21a1,1,0,0,0,1,1H19a1,1,0,0,0,1-1V11.44A4,4,0,0,0,22,8h0a.58.58,0,0,0,0-.18ZM13,20H11V16h2Zm5,0H15V15a1,1,0,0,0-1-1H10a1,1,0,0,0-1,1v5H6V12a4,4,0,0,0,3-1.38,4,4,0,0,0,6,0A4,4,0,0,0,18,12Zm0-10a2,2,0,0,1-2-2,1,1,0,0,0-2,0,2,2,0,0,1-4,0A1,1,0,0,0,8,8a2,2,0,1,1-4,.15L5.68,4H18.32L20,8.15A2,2,0,0,1,18,10Z" transform="translate(11810 637.988)" fill="#e7ece9"/>
    <path id="Path_14428" d="M11697.941,665.375l2.075.662v7.973H11703s.028-4.017,0-4.758c-.006-.158-.128-1.145.7-1.317,1.465-.223,2.625.082,4.376,0a1.094,1.094,0,0,1,.914,1.027c.085,1.29,0,5.048,0,5.048h2.956v-7.973l2.022-.567.209,10.559h-16.224l-.012-9.992Z" transform="translate(115.941 -16.015)" fill="#a5a1a1"/>
    <rect id="Rectangle_1156" width="2" height="4" transform="translate(11821 654)" fill="#e7ece9"/>
  </g>
</svg>
